<?xml version="1.0" encoding="UTF-8"?>
<svg width="700pt" height="700pt" version="1.1" viewBox="0 0 700 700" xmlns="http://www.w3.org/2000/svg" xmlns:xlink="http://www.w3.org/1999/xlink">
 <defs>
  <symbol id="m" overflow="visible">
   <path d="m29.312-1.75c-1.5117 0.78125-3.0898 1.3711-4.7344 1.7656-1.6367 0.40625-3.3398 0.60938-5.1094 0.60938-5.3125 0-9.5273-1.4844-12.641-4.4531-3.1055-2.9688-4.6562-7-4.6562-12.094s1.5508-9.125 4.6562-12.094c3.1133-2.9688 7.3281-4.4531 12.641-4.4531 1.7695 0 3.4727 0.19922 5.1094 0.59375 1.6445 0.39844 3.2227 0.99219 4.7344 1.7812v6.5938c-1.5312-1.0391-3.0391-1.8008-4.5156-2.2812-1.4805-0.48828-3.0391-0.73438-4.6719-0.73438-2.9375 0-5.2461 0.94531-6.9219 2.8281-1.6797 1.875-2.5156 4.4648-2.5156 7.7656 0 3.293 0.83594 5.8828 2.5156 7.7656 1.6758 1.875 3.9844 2.8125 6.9219 2.8125 1.6328 0 3.1914-0.23828 4.6719-0.71875 1.4766-0.48828 2.9844-1.2539 4.5156-2.2969z"/>
  </symbol>
  <symbol id="h" overflow="visible">
   <path d="m21.453-17.406c-0.67969-0.3125-1.3516-0.53906-2.0156-0.6875-0.65625-0.15625-1.3203-0.23438-1.9844-0.23438-1.9688 0-3.4844 0.63281-4.5469 1.8906-1.0547 1.2617-1.5781 3.0703-1.5781 5.4219v11.016h-7.6562v-23.922h7.6562v3.9219c0.97656-1.5625 2.1016-2.7031 3.375-3.4219 1.2812-0.71875 2.8125-1.0781 4.5938-1.0781 0.25 0 0.52344 0.011719 0.82812 0.03125 0.30078 0.023438 0.73438 0.070312 1.2969 0.14062z"/>
  </symbol>
  <symbol id="c" overflow="visible">
   <path d="m27.562-12.031v2.1875h-17.891c0.1875 1.793 0.83203 3.1367 1.9375 4.0312 1.1133 0.89844 2.6719 1.3438 4.6719 1.3438 1.6016 0 3.25-0.23438 4.9375-0.70312 1.6875-0.47656 3.4219-1.2031 5.2031-2.1719v5.8906c-1.8047 0.6875-3.6094 1.2031-5.4219 1.5469-1.8125 0.35156-3.6211 0.53125-5.4219 0.53125-4.3359 0-7.7031-1.0977-10.109-3.2969-2.3984-2.207-3.5938-5.2969-3.5938-9.2656 0-3.9062 1.1758-6.9727 3.5312-9.2031 2.3633-2.2383 5.6094-3.3594 9.7344-3.3594 3.7578 0 6.7695 1.1367 9.0312 3.4062 2.2578 2.2617 3.3906 5.2812 3.3906 9.0625zm-7.8594-2.5312c0-1.457-0.42969-2.6289-1.2812-3.5156-0.84375-0.89453-1.9492-1.3438-3.3125-1.3438-1.4922 0-2.6992 0.41797-3.625 1.25-0.91797 0.83594-1.4922 2.0391-1.7188 3.6094z"/>
  </symbol>
  <symbol id="b" overflow="visible">
   <path d="m14.391-10.766c-1.5938 0-2.793 0.27344-3.5938 0.8125-0.80469 0.54297-1.2031 1.3398-1.2031 2.3906 0 0.96875 0.32031 1.7305 0.96875 2.2812 0.64453 0.54297 1.5469 0.8125 2.7031 0.8125 1.4375 0 2.6445-0.51562 3.625-1.5469 0.98828-1.0312 1.4844-2.3203 1.4844-3.875v-0.875zm11.688-2.8906v13.656h-7.7031v-3.5469c-1.0312 1.4492-2.1875 2.5078-3.4688 3.1719s-2.8398 1-4.6719 1c-2.4805 0-4.4961-0.72266-6.0469-2.1719-1.543-1.4453-2.3125-3.3203-2.3125-5.625 0-2.8125 0.96094-4.8672 2.8906-6.1719 1.9375-1.3125 4.9688-1.9688 9.0938-1.9688h4.5156v-0.60938c0-1.207-0.48047-2.0938-1.4375-2.6562-0.94922-0.5625-2.4375-0.84375-4.4688-0.84375-1.6367 0-3.1562 0.16797-4.5625 0.5-1.4062 0.32422-2.7188 0.8125-3.9375 1.4688v-5.8281c1.6445-0.40625 3.2891-0.70703 4.9375-0.90625 1.6562-0.20703 3.3047-0.3125 4.9531-0.3125 4.3203 0 7.4375 0.85547 9.3438 2.5625 1.9141 1.6992 2.875 4.4609 2.875 8.2812z"/>
  </symbol>
  <symbol id="g" overflow="visible">
   <path d="m12.031-30.719v6.7969h7.875v5.4688h-7.875v10.141c0 1.1172 0.21875 1.8711 0.65625 2.2656 0.4375 0.38672 1.3125 0.57812 2.625 0.57812h3.9375v5.4688h-6.5625c-3.0234 0-5.1641-0.62891-6.4219-1.8906-1.2617-1.2578-1.8906-3.3984-1.8906-6.4219v-10.141h-3.7969v-5.4688h3.7969v-6.7969z"/>
  </symbol>
  <symbol id="f" overflow="visible">
   <path d="m19.953-20.422v-12.812h7.6875v33.234h-7.6875v-3.4531c-1.0547 1.4062-2.2148 2.4375-3.4844 3.0938-1.2734 0.65625-2.7422 0.98438-4.4062 0.98438-2.9492 0-5.3711-1.1719-7.2656-3.5156-1.8867-2.3438-2.8281-5.3594-2.8281-9.0469s0.94141-6.7031 2.8281-9.0469c1.8945-2.3438 4.3164-3.5156 7.2656-3.5156 1.6562 0 3.1172 0.33594 4.3906 1 1.2812 0.65625 2.4453 1.6836 3.5 3.0781zm-5.0469 15.484c1.6445 0 2.8945-0.59766 3.75-1.7969 0.86328-1.1953 1.2969-2.9297 1.2969-5.2031 0-2.2812-0.43359-4.0195-1.2969-5.2188-0.85547-1.1953-2.1055-1.7969-3.75-1.7969-1.625 0-2.8711 0.60156-3.7344 1.7969-0.85547 1.1992-1.2812 2.9375-1.2812 5.2188 0 2.2734 0.42578 4.0078 1.2812 5.2031 0.86328 1.1992 2.1094 1.7969 3.7344 1.7969z"/>
  </symbol>
  <symbol id="e" overflow="visible">
   <path d="m16.406-4.9375c1.6328 0 2.8828-0.59766 3.75-1.7969 0.86328-1.1953 1.2969-2.9297 1.2969-5.2031 0-2.2812-0.43359-4.0195-1.2969-5.2188-0.86719-1.1953-2.1172-1.7969-3.75-1.7969-1.6367 0-2.8906 0.60547-3.7656 1.8125-0.875 1.1992-1.3125 2.9336-1.3125 5.2031 0 2.2617 0.4375 3.9961 1.3125 5.2031 0.875 1.1992 2.1289 1.7969 3.7656 1.7969zm-5.0781-15.484c1.0508-1.3945 2.2188-2.4219 3.5-3.0781 1.2812-0.66406 2.7539-1 4.4219-1 2.9453 0 5.3672 1.1719 7.2656 3.5156 1.8945 2.3438 2.8438 5.3594 2.8438 9.0469s-0.94922 6.7031-2.8438 9.0469c-1.8984 2.3438-4.3203 3.5156-7.2656 3.5156-1.668 0-3.1406-0.33594-4.4219-1s-2.4492-1.6914-3.5-3.0781v3.4531h-7.6562v-33.234h7.6562z"/>
  </symbol>
  <symbol id="a" overflow="visible">
   <path d="m0.53125-23.922h7.6562l6.4219 16.234 5.4688-16.234h7.6562l-10.062 26.188c-1.0117 2.6641-2.1953 4.5234-3.5469 5.5781-1.3438 1.0625-3.1211 1.5938-5.3281 1.5938h-4.4219v-5.0156h2.3906c1.3008 0 2.2422-0.21094 2.8281-0.625 0.59375-0.40625 1.0547-1.1484 1.3906-2.2188l0.20312-0.65625z"/>
  </symbol>
  <symbol id="d" overflow="visible">
   <path d="m4.0156-31.891h22.203v6.2188h-13.984v5.9375h13.141v6.2188h-13.141v7.2969h14.453v6.2188h-22.672z"/>
  </symbol>
  <symbol id="l" overflow="visible">
   <path d="m3.4219-9.3125v-14.609h7.6875v2.3906c0 1.293-0.011719 2.918-0.03125 4.875-0.011719 1.9609-0.015625 3.2656-0.015625 3.9219 0 1.9297 0.046875 3.3125 0.14062 4.1562 0.10156 0.84375 0.28125 1.4609 0.53125 1.8438 0.3125 0.5 0.71875 0.88672 1.2188 1.1562 0.50781 0.27344 1.0938 0.40625 1.75 0.40625 1.5938 0 2.8438-0.60938 3.75-1.8281 0.91406-1.2266 1.375-2.9297 1.375-5.1094v-11.812h7.6406v23.922h-7.6406v-3.4531c-1.1562 1.3867-2.3828 2.4141-3.6719 3.0781-1.2812 0.66406-2.6992 1-4.25 1-2.7734 0-4.8828-0.84766-6.3281-2.5469-1.4375-1.6953-2.1562-4.1602-2.1562-7.3906z"/>
  </symbol>
  <symbol id="k" overflow="visible">
   <path d="m23-23.172v6.2344c-1.0312-0.71875-2.0742-1.2422-3.125-1.5781-1.043-0.34375-2.125-0.51562-3.25-0.51562-2.1367 0-3.8047 0.625-5 1.875-1.1875 1.2422-1.7812 2.9805-1.7812 5.2188 0 2.2305 0.59375 3.9688 1.7812 5.2188 1.1953 1.25 2.8633 1.875 5 1.875 1.1953 0 2.332-0.17578 3.4062-0.53125 1.0703-0.36328 2.0625-0.89453 2.9688-1.5938v6.2656c-1.1875 0.4375-2.4023 0.76562-3.6406 0.98438-1.2305 0.22656-2.4648 0.34375-3.7031 0.34375-4.3125 0-7.6875-1.1094-10.125-3.3281s-3.6562-5.2969-3.6562-9.2344c0-3.9453 1.2188-7.0234 3.6562-9.2344 2.4375-2.2188 5.8125-3.3281 10.125-3.3281 1.25 0 2.4844 0.10938 3.7031 0.32812s2.4297 0.55469 3.6406 1z"/>
  </symbol>
  <symbol id="j" overflow="visible">
   <path d="m3.6719-33.234h7.6562v33.234h-7.6562z"/>
  </symbol>
  <symbol id="i" overflow="visible">
   <path d="m11.328-3.4531v12.547h-7.6562v-33.016h7.6562v3.5c1.0508-1.3945 2.2188-2.4219 3.5-3.0781 1.2812-0.66406 2.7539-1 4.4219-1 2.9453 0 5.3672 1.1719 7.2656 3.5156 1.8945 2.3438 2.8438 5.3594 2.8438 9.0469s-0.94922 6.7031-2.8438 9.0469c-1.8984 2.3438-4.3203 3.5156-7.2656 3.5156-1.668 0-3.1406-0.33594-4.4219-1s-2.4492-1.6914-3.5-3.0781zm5.0781-15.5c-1.6367 0-2.8906 0.60547-3.7656 1.8125-0.875 1.1992-1.3125 2.9336-1.3125 5.2031 0 2.2617 0.4375 3.9961 1.3125 5.2031 0.875 1.1992 2.1289 1.7969 3.7656 1.7969 1.6328 0 2.8828-0.59766 3.75-1.7969 0.86328-1.1953 1.2969-2.9297 1.2969-5.2031 0-2.2812-0.43359-4.0195-1.2969-5.2188-0.86719-1.1953-2.1172-1.7969-3.75-1.7969z"/>
  </symbol>
 </defs>
 <g>
  <path d="m472.5 8.75h-17.5c-11.391 0-21.016 7.3398-24.641 17.5h-160.72c-3.625-10.16-13.25-17.5-24.641-17.5h-17.5c-82.023 0-148.75 66.727-148.75 148.75v52.5c0 14.473 11.777 26.25 26.25 26.25h46.059c10.047 32.113 15.191 65.406 15.191 99.086v13.832l18.48 1.8477 17.141 162.84 5.1367 1.8633c3.9883 1.4531 98.219 35.535 142.99 35.535s139-34.082 142.99-35.535l5.1367-1.8633 17.141-162.84 18.48-1.8477v-13.832c0-33.68 5.1445-66.973 15.191-99.086h46.059c14.473 0 26.25-11.777 26.25-26.25v-52.5c0-82.023-66.727-148.75-148.75-148.75zm7.2539 17.867c6.4492 0.35937 12.828 1.0234 18.996 2.2734v41.109c0 53.07 43.18 96.25 96.25 96.25h8.75v19.109c-2.7461-0.98047-5.6719-1.6094-8.75-1.6094h-113.75v-148.75c0-2.9492-0.59375-5.7305-1.4961-8.3828zm123.55 122.13h-8.3047c-43.426 0-78.75-35.324-78.75-78.75v-36.094c48.258 17.141 83.527 61.66 87.055 114.84zm-209.96-105c-2.0469 28.867-18.051 54.566-43.34 68.844-25.289-14.277-41.293-39.977-43.34-68.844zm-122.09 148.75v-148.75h17.719c2.1719 37.02 23.617 69.816 57.121 86.582l3.9102 1.9492 3.9102-1.9609c33.504-16.758 54.957-49.551 57.121-86.582l17.719 0.003907v148.75c0 15.617 8.2969 29.25 20.633 36.984l-42.812 42.812c-15.898-11.602-35.414-18.539-56.57-18.539s-40.672 6.9375-56.578 18.551l-42.812-42.812c12.344-7.7383 20.641-21.371 20.641-36.988zm87.5 235.73v-17.684c15.883-2.293 29.793-10.648 39.305-22.699l15.242 8.8008c-12.715 17.207-32.207 29.098-54.547 31.582zm-72.047-31.578 15.242-8.8008c9.5117 12.047 23.422 20.414 39.305 22.699v17.684c-22.34-2.4883-41.832-14.379-54.547-31.582zm-54.547-160.88 48.09 48.09c-4.543 4.7852-8.5742 10.047-12.066 15.688l-63.309-63.305h22.629c1.5938 0 3.1055-0.30469 4.6562-0.47266zm196.59 114.22c0 11.219-2.3906 21.867-6.6328 31.535l-15.277-8.8203c2.8164-7.0352 4.4102-14.691 4.4102-22.715s-1.5938-15.68-4.418-22.707l15.277-8.8203c4.25 9.6602 6.6406 20.309 6.6406 31.527zm-78.75 43.75c-24.125 0-43.75-19.625-43.75-43.75s19.625-43.75 43.75-43.75 43.75 19.625 43.75 43.75-19.625 43.75-43.75 43.75zm-78.75-43.75c0-11.219 2.3906-21.867 6.6328-31.535l15.277 8.8203c-2.8164 7.0352-4.4102 14.691-4.4102 22.715s1.5938 15.68 4.418 22.707l-15.277 8.8203c-4.25-9.6602-6.6406-20.309-6.6406-31.527zm142.05-46.656-15.242 8.8008c-9.5117-12.047-23.422-20.414-39.305-22.699v-17.684c22.34 2.4883 41.832 14.379 54.547 31.582zm-72.047-13.895c-15.883 2.293-29.793 10.648-39.305 22.699l-15.242-8.8008c12.715-17.211 32.207-29.102 54.547-31.578zm78.504-5.582 48.09-48.09c1.5508 0.16797 3.0625 0.47266 4.6562 0.47266h22.629l-63.305 63.305c-3.4961-5.6328-7.5273-10.891-12.07-15.688zm-314.75-117.62c53.07 0 96.25-43.18 96.25-96.25v-41.109c6.1758-1.2617 12.547-1.9258 18.996-2.2734-0.90234 2.6523-1.4961 5.4336-1.4961 8.3828v148.75h-113.75c-3.0781 0-6.0039 0.62891-8.75 1.6094v-19.109zm78.75-132.34v36.094c0 43.426-35.324 78.75-78.75 78.75h-8.3047c3.5273-53.184 38.797-97.703 87.055-114.84zm-87.5 176.09c0-4.8281 3.9219-8.75 8.75-8.75h113.75c9.6523 0 17.5-7.8477 17.5-17.5v-148.75c0-4.8281 3.9219-8.75 8.75-8.75s8.75 3.9219 8.75 8.75v157.5c0 14.473-11.777 26.25-26.25 26.25h-122.5c-4.8281 0-8.75-3.9219-8.75-8.75zm73.141 26.25h10.734l79.887 79.887c-2.8945 7.6836-4.9336 15.777-5.7852 24.238l-70.5-7.0508c-0.16797-32.938-5.0078-65.531-14.336-97.074zm84.762 121.71c1.4883 18.086 8.0156 34.73 18.148 48.613l-58.02 58.02-11.77-111.79zm-37.512 129.02 67.234-67.234c4.7852 4.543 10.047 8.5742 15.688 12.066l-72.391 72.391c-3.6133-1.2266-6.7188-2.3008-9.0391-3.1055zm29.148 23.355 70.352-70.352c10.551 3.9805 21.934 6.2656 33.859 6.2656s23.309-2.2852 33.863-6.2656l70.352 70.352c-31.539 10.086-78.133 23.414-104.21 23.414s-72.676-13.328-104.21-23.414zm227.04-6.125-72.391-72.391c5.6445-3.4922 10.895-7.5234 15.688-12.066l67.234 67.234-1.4883 14.113c-2.3242 0.80859-5.4297 1.8828-9.043 3.1094zm12.891-39.621-58.02-58.02c10.141-13.887 16.66-30.527 18.148-48.613l51.641-5.1641zm30.535-131.26-70.496 7.043c-0.83984-8.4609-2.8789-16.562-5.7852-24.238l79.887-79.887h10.734c-9.3164 31.543-14.156 64.137-14.34 97.082zm78.742-114.58h-122.5c-14.473 0-26.25-11.777-26.25-26.25v-157.5c0-4.8281 3.9219-8.75 8.75-8.75s8.75 3.9219 8.75 8.75v148.75c0 9.6523 7.8477 17.5 17.5 17.5h113.75c4.8281 0 8.75 3.9219 8.75 8.75s-3.9219 8.75-8.75 8.75z"/>
  <path d="m350 323.75c-14.473 0-26.25 11.777-26.25 26.25s11.777 26.25 26.25 26.25 26.25-11.777 26.25-26.25-11.777-26.25-26.25-26.25zm0 35c-4.8281 0-8.75-3.9219-8.75-8.75s3.9219-8.75 8.75-8.75 8.75 3.9219 8.75 8.75-3.9219 8.75-8.75 8.75z"/>
  <path d="m411.25 166.25h-122.5v70h122.5zm-17.5 52.5h-87.5v-35h87.5z"/>
  <use x="70" y="691.25" xlink:href="#m"/>
  <use x="102.109375" y="691.25" xlink:href="#h"/>
  <use x="123.683594" y="691.25" xlink:href="#c"/>
  <use x="153.355469" y="691.25" xlink:href="#b"/>
  <use x="182.878906" y="691.25" xlink:href="#g"/>
  <use x="203.792969" y="691.25" xlink:href="#c"/>
  <use x="233.464844" y="691.25" xlink:href="#f"/>
  <use x="280.011719" y="691.25" xlink:href="#e"/>
  <use x="311.328125" y="691.25" xlink:href="#a"/>
  <use x="355.078125" y="691.25" xlink:href="#d"/>
  <use x="384.964844" y="691.25" xlink:href="#l"/>
  <use x="416.113281" y="691.25" xlink:href="#k"/>
  <use x="442.046875" y="691.25" xlink:href="#b"/>
  <use x="471.570312" y="691.25" xlink:href="#j"/>
  <use x="486.566406" y="691.25" xlink:href="#a"/>
  <use x="515.082031" y="691.25" xlink:href="#i"/>
 </g>
</svg>
