<?xml version="1.0" encoding="UTF-8"?>
<svg width="700pt" height="700pt" version="1.1" viewBox="0 0 700 700" xmlns="http://www.w3.org/2000/svg" xmlns:xlink="http://www.w3.org/1999/xlink">
 <defs>
  <symbol id="e" overflow="visible">
   <path d="m28.422-1.7031c-1.4688 0.76172-3 1.3359-4.5938 1.7188-1.5859 0.38281-3.2344 0.57812-4.9531 0.57812-5.1562 0-9.2422-1.4375-12.25-4.3125-3.0117-2.875-4.5156-6.7812-4.5156-11.719s1.5039-8.8438 4.5156-11.719c3.0078-2.8828 7.0938-4.3281 12.25-4.3281 1.7188 0 3.3672 0.19531 4.9531 0.57812 1.5938 0.38672 3.125 0.96094 4.5938 1.7188v6.4062c-1.4805-1.0078-2.9375-1.75-4.375-2.2188s-2.9492-0.70312-4.5312-0.70312c-2.8438 0-5.0859 0.91406-6.7188 2.7344-1.625 1.8242-2.4375 4.3359-2.4375 7.5312 0 3.1992 0.8125 5.7109 2.4375 7.5312 1.6328 1.8242 3.875 2.7344 6.7188 2.7344 1.582 0 3.0938-0.23438 4.5312-0.70312 1.4375-0.47656 2.8945-1.2188 4.375-2.2188z"/>
  </symbol>
  <symbol id="c" overflow="visible">
   <path d="m20.797-16.875c-0.64844-0.3125-1.293-0.53516-1.9375-0.67188-0.64844-0.14453-1.293-0.21875-1.9375-0.21875-1.9062 0-3.375 0.60938-4.4062 1.8281-1.0234 1.2188-1.5312 2.9688-1.5312 5.25v10.688h-7.4219v-23.203h7.4219v3.8125c0.94531-1.5195 2.0352-2.6289 3.2656-3.3281 1.2383-0.69531 2.7227-1.0469 4.4531-1.0469 0.25 0 0.51953 0.011719 0.8125 0.03125 0.28906 0.023437 0.71094 0.070313 1.2656 0.14062z"/>
  </symbol>
  <symbol id="a" overflow="visible">
   <path d="m26.719-11.656v2.1094h-17.328c0.17578 1.7422 0.80078 3.0469 1.875 3.9219 1.082 0.86719 2.5859 1.2969 4.5156 1.2969 1.5625 0 3.1602-0.22656 4.7969-0.6875 1.6328-0.46875 3.3164-1.1719 5.0469-2.1094v5.7188c-1.75 0.65625-3.5078 1.1523-5.2656 1.4844-1.75 0.34375-3.5078 0.51562-5.2656 0.51562-4.1992 0-7.4609-1.0625-9.7812-3.1875-2.3242-2.1328-3.4844-5.1289-3.4844-8.9844 0-3.7812 1.1406-6.7539 3.4219-8.9219 2.2812-2.1758 5.4258-3.2656 9.4375-3.2656 3.6445 0 6.5625 1.1016 8.75 3.2969 2.1875 2.1992 3.2812 5.1367 3.2812 8.8125zm-7.625-2.4688c0-1.4062-0.41406-2.5391-1.2344-3.4062-0.8125-0.86328-1.8867-1.2969-3.2188-1.2969-1.4375 0-2.6055 0.40625-3.5 1.2188-0.89844 0.80469-1.4531 1.9648-1.6719 3.4844z"/>
  </symbol>
  <symbol id="j" overflow="visible">
   <path d="m13.969-10.438c-1.5547 0-2.7188 0.26562-3.5 0.79688-0.78125 0.52344-1.1719 1.293-1.1719 2.3125 0 0.9375 0.3125 1.6719 0.9375 2.2031 0.63281 0.53125 1.5078 0.79688 2.625 0.79688 1.3945 0 2.5664-0.5 3.5156-1.5 0.95703-1 1.4375-2.2539 1.4375-3.7656v-0.84375zm11.328-2.7969v13.234h-7.4844v-3.4375c-0.99219 1.4062-2.1094 2.4336-3.3594 3.0781-1.2422 0.63281-2.75 0.95312-4.5312 0.95312-2.4062 0-4.3594-0.69531-5.8594-2.0938-1.4922-1.4062-2.2344-3.2227-2.2344-5.4531 0-2.7266 0.92969-4.7266 2.7969-6 1.875-1.2695 4.8125-1.9062 8.8125-1.9062h4.375v-0.57812c0-1.1641-0.46484-2.0195-1.3906-2.5625-0.92969-0.55078-2.3711-0.82812-4.3281-0.82812-1.5859 0-3.0625 0.16406-4.4375 0.48438-1.3672 0.3125-2.6328 0.78906-3.7969 1.4219v-5.6562c1.582-0.38281 3.1758-0.67578 4.7812-0.875 1.6016-0.20703 3.2031-0.3125 4.7969-0.3125 4.1875 0 7.207 0.82812 9.0625 2.4844 1.8633 1.6484 2.7969 4.3281 2.7969 8.0469z"/>
  </symbol>
  <symbol id="b" overflow="visible">
   <path d="m11.656-29.781v6.5781h7.6562v5.3125h-7.6562v9.8281c0 1.0859 0.21094 1.8203 0.64062 2.2031 0.4375 0.375 1.2891 0.5625 2.5625 0.5625h3.7969v5.2969h-6.3594c-2.9297 0-5-0.60938-6.2188-1.8281-1.2188-1.2266-1.8281-3.3047-1.8281-6.2344v-9.8281h-3.6875v-5.3125h3.6875v-6.5781z"/>
  </symbol>
  <symbol id="i" overflow="visible">
   <path d="m19.344-19.797v-12.438h7.4531v32.234h-7.4531v-3.3594c-1.0234 1.3672-2.1484 2.3672-3.375 3-1.2305 0.63281-2.6523 0.95312-4.2656 0.95312-2.8555 0-5.2031-1.1328-7.0469-3.4062-1.8359-2.2695-2.75-5.1914-2.75-8.7656 0-3.5703 0.91406-6.4922 2.75-8.7656 1.8438-2.2812 4.1914-3.4219 7.0469-3.4219 1.6016 0 3.0195 0.32422 4.25 0.96875 1.2383 0.64844 2.3672 1.6484 3.3906 3zm-4.8906 15.016c1.5938 0 2.8047-0.57812 3.6406-1.7344 0.83203-1.1641 1.25-2.8516 1.25-5.0625 0-2.207-0.41797-3.8906-1.25-5.0469-0.83594-1.1641-2.0469-1.75-3.6406-1.75-1.5742 0-2.7773 0.58594-3.6094 1.75-0.83594 1.1562-1.25 2.8398-1.25 5.0469 0 2.2109 0.41406 3.8984 1.25 5.0625 0.83203 1.1562 2.0352 1.7344 3.6094 1.7344z"/>
  </symbol>
  <symbol id="h" overflow="visible">
   <path d="m15.906-4.7812c1.5938 0 2.8047-0.57812 3.6406-1.7344 0.83203-1.1641 1.25-2.8516 1.25-5.0625 0-2.207-0.41797-3.8906-1.25-5.0469-0.83594-1.1641-2.0469-1.75-3.6406-1.75-1.5859 0-2.8047 0.58594-3.6562 1.75-0.84375 1.168-1.2656 2.8516-1.2656 5.0469 0 2.1992 0.42188 3.8828 1.2656 5.0469 0.85156 1.168 2.0703 1.75 3.6562 1.75zm-4.9219-15.016c1.0195-1.3516 2.1484-2.3516 3.3906-3 1.2383-0.64453 2.6641-0.96875 4.2812-0.96875 2.8633 0 5.2109 1.1406 7.0469 3.4219 1.832 2.2734 2.75 5.1953 2.75 8.7656 0 3.5742-0.91797 6.4961-2.75 8.7656-1.8359 2.2734-4.1836 3.4062-7.0469 3.4062-1.6172 0-3.043-0.32031-4.2812-0.95312-1.2422-0.64453-2.3711-1.6445-3.3906-3v3.3594h-7.4219v-32.234h7.4219z"/>
  </symbol>
  <symbol id="g" overflow="visible">
   <path d="m0.51562-23.203h7.4219l6.2344 15.75 5.2969-15.75h7.4219l-9.7656 25.406c-0.98047 2.5703-2.1211 4.375-3.4219 5.4062-1.3047 1.0312-3.0273 1.5469-5.1719 1.5469h-4.2812v-4.875h2.3125c1.2578 0 2.1758-0.19922 2.75-0.59375 0.57031-0.39844 1.0156-1.1172 1.3281-2.1562l0.21875-0.64062z"/>
  </symbol>
  <symbol id="f" overflow="visible">
   <path d="m11.875-24.891v18.859h2.8594c3.25 0 5.7344-0.80469 7.4531-2.4219 1.7266-1.6133 2.5938-3.9609 2.5938-7.0469 0-3.0625-0.85938-5.3906-2.5781-6.9844-1.7109-1.6016-4.1992-2.4062-7.4688-2.4062zm-7.9844-6.0312h8.4062c4.6953 0 8.1953 0.33594 10.5 1 2.3008 0.66797 4.2695 1.8047 5.9062 3.4062 1.457 1.3984 2.5352 3.0078 3.2344 4.8281 0.70703 1.8242 1.0625 3.8867 1.0625 6.1875 0 2.3359-0.35547 4.418-1.0625 6.25-0.69922 1.8359-1.7773 3.4492-3.2344 4.8438-1.6562 1.5938-3.6484 2.7305-5.9688 3.4062-2.3125 0.66797-5.793 1-10.438 1h-8.4062z"/>
  </symbol>
  <symbol id="t" overflow="visible">
   <path d="m21.688-22.469v5.625c-1.5859-0.65625-3.1172-1.1484-4.5938-1.4844-1.4805-0.33203-2.875-0.5-4.1875-0.5-1.4062 0-2.4531 0.17969-3.1406 0.53125-0.6875 0.35547-1.0312 0.89844-1.0312 1.625 0 0.59375 0.25781 1.0547 0.78125 1.375 0.51953 0.3125 1.4453 0.54297 2.7812 0.6875l1.3125 0.1875c3.8008 0.49219 6.3516 1.2891 7.6562 2.3906 1.3125 1.1055 1.9688 2.8398 1.9688 5.2031 0 2.4688-0.91406 4.3242-2.7344 5.5625-1.8242 1.2422-4.543 1.8594-8.1562 1.8594-1.5312 0-3.1172-0.12109-4.75-0.35938-1.6367-0.23828-3.3203-0.59766-5.0469-1.0781v-5.6406c1.4766 0.71875 2.9922 1.2617 4.5469 1.625 1.5508 0.35547 3.1289 0.53125 4.7344 0.53125 1.4453 0 2.5352-0.19531 3.2656-0.59375 0.73828-0.40625 1.1094-1.0039 1.1094-1.7969 0-0.65625-0.25781-1.1445-0.76562-1.4688-0.5-0.32031-1.5078-0.57812-3.0156-0.76562l-1.2969-0.15625c-3.3047-0.41406-5.6172-1.1797-6.9375-2.2969-1.3242-1.125-1.9844-2.8281-1.9844-5.1094 0-2.457 0.83594-4.2812 2.5156-5.4688 1.6875-1.1875 4.2695-1.7812 7.75-1.7812 1.3633 0 2.7969 0.10547 4.2969 0.3125 1.5078 0.21094 3.1484 0.53906 4.9219 0.98438z"/>
  </symbol>
  <symbol id="d" overflow="visible">
   <path d="m3.5625-23.203h7.4219v23.203h-7.4219zm0-9.0312h7.4219v6.0469h-7.4219z"/>
  </symbol>
  <symbol id="s" overflow="visible">
   <path d="m19.344-3.9375c-1.0234 1.3555-2.1484 2.3516-3.375 2.9844-1.2305 0.63672-2.6523 0.95312-4.2656 0.95312-2.8359 0-5.1797-1.1133-7.0312-3.3438-1.8438-2.2266-2.7656-5.0703-2.7656-8.5312 0-3.457 0.92188-6.2969 2.7656-8.5156 1.8516-2.2188 4.1953-3.3281 7.0312-3.3281 1.6133 0 3.0352 0.32031 4.2656 0.95312 1.2266 0.63672 2.3516 1.6367 3.375 3v-3.4375h7.4531v20.859c0 3.7266-1.1797 6.5781-3.5312 8.5469-2.3555 1.9688-5.7656 2.9531-10.234 2.9531-1.4492 0-2.8516-0.10938-4.2031-0.32812-1.3555-0.21875-2.7148-0.55859-4.0781-1.0156v-5.7812c1.2891 0.75 2.5547 1.3047 3.7969 1.6719 1.25 0.36328 2.5 0.54688 3.75 0.54688 2.4375 0 4.2188-0.53125 5.3438-1.5938 1.1328-1.0625 1.7031-2.7266 1.7031-5zm-4.8906-14.438c-1.5312 0-2.7266 0.57031-3.5781 1.7031-0.85547 1.1367-1.2812 2.7344-1.2812 4.7969 0 2.1367 0.41016 3.75 1.2344 4.8438 0.83203 1.0938 2.0391 1.6406 3.625 1.6406 1.5508 0 2.7539-0.5625 3.6094-1.6875 0.85156-1.1328 1.2812-2.7344 1.2812-4.7969s-0.42969-3.6602-1.2812-4.7969c-0.85547-1.1328-2.0586-1.7031-3.6094-1.7031z"/>
  </symbol>
  <symbol id="r" overflow="visible">
   <path d="m26.891-14.125v14.125h-7.4688v-10.812c0-2-0.046875-3.3789-0.14062-4.1406-0.085938-0.75781-0.23438-1.3203-0.45312-1.6875-0.29297-0.47656-0.6875-0.85156-1.1875-1.125-0.49219-0.26953-1.0547-0.40625-1.6875-0.40625-1.5547 0-2.7734 0.60156-3.6562 1.7969-0.875 1.1992-1.3125 2.8555-1.3125 4.9688v11.406h-7.4219v-23.203h7.4219v3.4062c1.1133-1.3516 2.2969-2.3516 3.5469-3 1.2578-0.64453 2.6484-0.96875 4.1719-0.96875 2.6758 0 4.707 0.82422 6.0938 2.4688 1.3945 1.6484 2.0938 4.0391 2.0938 7.1719z"/>
  </symbol>
  <symbol id="q" overflow="visible">
   <path d="m22.312-22.469v6.0469c-1.0117-0.69531-2.0273-1.207-3.0469-1.5312-1.0117-0.33203-2.0625-0.5-3.1562-0.5-2.0625 0-3.6719 0.60547-4.8281 1.8125-1.1562 1.2109-1.7344 2.8984-1.7344 5.0625 0 2.168 0.57812 3.8555 1.7344 5.0625 1.1562 1.2109 2.7656 1.8125 4.8281 1.8125 1.1641 0 2.2695-0.17188 3.3125-0.51562 1.0391-0.34375 2.0039-0.85156 2.8906-1.5312v6.0625c-1.168 0.42969-2.3516 0.74219-3.5469 0.95312-1.1875 0.21875-2.3828 0.32812-3.5781 0.32812-4.1875 0-7.4648-1.0703-9.8281-3.2188-2.3555-2.1445-3.5312-5.1289-3.5312-8.9531 0-3.8203 1.1758-6.8047 3.5312-8.9531 2.3633-2.1562 5.6406-3.2344 9.8281-3.2344 1.207 0 2.3984 0.10938 3.5781 0.32812 1.1875 0.21875 2.3672 0.54297 3.5469 0.96875z"/>
  </symbol>
  <symbol id="p" overflow="visible">
   <path d="m3.5625-32.234h7.4219v32.234h-7.4219z"/>
  </symbol>
  <symbol id="o" overflow="visible">
   <path d="m18.828-32.234v4.875h-4.0938c-1.0547 0-1.7891 0.19531-2.2031 0.57812-0.41797 0.375-0.625 1.0312-0.625 1.9688v1.6094h6.3438v5.3125h-6.3438v17.891h-7.4062v-17.891h-3.6875v-5.3125h3.6875v-1.6094c0-2.5312 0.70312-4.3984 2.1094-5.6094 1.4062-1.207 3.5859-1.8125 6.5469-1.8125z"/>
  </symbol>
  <symbol id="n" overflow="visible">
   <path d="m26.891-14.125v14.125h-7.4688v-10.766c0-2.0312-0.046875-3.4258-0.14062-4.1875-0.085938-0.75781-0.23438-1.3203-0.45312-1.6875-0.29297-0.47656-0.6875-0.85156-1.1875-1.125-0.49219-0.26953-1.0547-0.40625-1.6875-0.40625-1.5547 0-2.7734 0.60156-3.6562 1.7969-0.875 1.1992-1.3125 2.8555-1.3125 4.9688v11.406h-7.4219v-32.234h7.4219v12.438c1.1133-1.3516 2.2969-2.3516 3.5469-3 1.2578-0.64453 2.6484-0.96875 4.1719-0.96875 2.6758 0 4.707 0.82422 6.0938 2.4688 1.3945 1.6484 2.0938 4.0391 2.0938 7.1719z"/>
  </symbol>
  <symbol id="m" overflow="visible">
   <path d="m3.8906-30.922h8.9062l11.25 21.203v-21.203h7.5625v30.922h-8.9062l-11.25-21.219v21.219h-7.5625z"/>
  </symbol>
  <symbol id="l" overflow="visible">
   <path d="m3.8906-30.922h13.234c3.9375 0 6.957 0.875 9.0625 2.625 2.1016 1.7422 3.1562 4.2266 3.1562 7.4531 0 3.25-1.0547 5.75-3.1562 7.5-2.1055 1.7422-5.125 2.6094-9.0625 2.6094h-5.25v10.734h-7.9844zm7.9844 5.7812v8.625h4.4062c1.5391 0 2.7344-0.375 3.5781-1.125s1.2656-1.8164 1.2656-3.2031c0-1.375-0.42188-2.4297-1.2656-3.1719-0.84375-0.75-2.0391-1.125-3.5781-1.125z"/>
  </symbol>
  <symbol id="k" overflow="visible">
   <path d="m3.5625-23.203h7.4219v22.781c0 3.1133-0.75 5.4883-2.25 7.125-1.4922 1.6328-3.6523 2.4531-6.4844 2.4531h-3.6562v-4.875h1.2812c1.4062 0 2.3672-0.32031 2.8906-0.95312 0.53125-0.63672 0.79688-1.8867 0.79688-3.75zm0-9.0312h7.4219v6.0469h-7.4219z"/>
  </symbol>
 </defs>
 <g>
  <path d="m314.11 321.57c0.16797 3.1406 2.8008 5.6836 5.9375 5.6836l53.625 1.0195h0.085937c2.8008 0 5.2617-1.9531 5.9375-4.75 2.0352-9.0781 3.1406-21.891 2.9688-34.277-0.25391-12.727-4.2422-24.012-11.371-31.816-8.9102-9.7578-22.91-13.406-34.109-8.9922-10.184 4.0742-17.648 14.086-22.062 29.695-3.3945 12.047-2.4609 24.098-1.6133 35.805 0.26172 2.543 0.51563 5.0898 0.60156 7.6328zm12.812-40.133c3.3086-11.793 8.3164-19.09 14.848-21.637 6.4492-2.5469 15.102-0.085938 20.617 5.9375 5.0898 5.6016 8.0625 14 8.2305 23.844 0.16797 7.4648-0.25391 17.734-1.6953 26.473l-42.934-0.84766c-0.085937-0.67969-0.085937-1.4414-0.16797-2.1211-0.93359-11.113-1.6992-21.637 1.1016-31.648z"/>
  <path d="m211.95 232.91c4.4141 0.25391 8.8242 0.33984 13.152 0.33984 3.1406 0 6.2773 0 9.332-0.085938 3.0547 0 6.1094-0.085937 9.25-0.085937 2.9688 0 5.5156-2.1211 6.0234-5.0078 2.9688-16.801 5.4297-40.641-7.2969-53.625-4.75-4.9219-10.691-6.7031-16.715-5.2617-7.4648 1.8672-14.086 8.9922-16.629 17.734-2.8867 10.098-2.8867 20.363-2.8867 30.375 0 3.1406 0 6.2773-0.085938 9.418 0 3.2266 2.543 6.0273 5.8555 6.1992zm6.5312-15.613c0-9.5859 0-18.582 2.375-26.98 1.2734-4.4141 4.75-8.4844 7.8906-9.25 1.1016-0.25391 2.8008-0.33984 5.0078 1.9531 8.2305 8.4844 6.4492 27.406 4.8359 38.012-1.3594 0-2.8008 0-4.1562 0.085938-5.2617 0.085937-10.605 0.085937-15.953 0v-3.8203z"/>
  <path d="m451.99 226.8 34.789 1.9531h0.33984c1.8672 0 3.6484-0.84766 4.75-2.2891 1.1875-1.5273 1.6133-3.6484 1.0195-5.5156-0.93359-3.1406-0.76172-7.043-0.50781-11.285 0.16797-2.375 0.25391-4.75 0.16797-7.043-0.16797-6.957-0.93359-14.934-5.3438-21.723-4.582-7.043-14.594-12.641-23.926-8.9102-4.75 1.8672-8.7383 5.9375-11.539 11.793-4.4141 9.25-6.2773 21.805-5.6016 37.25 0.25 3.1367 2.7109 5.5977 5.8516 5.7695zm10.773-37.758c1.4414-2.9688 3.2227-5.0078 5.0078-5.7695 3.0547-1.1875 7.2969 1.2734 9.25 4.2422 2.8008 4.2422 3.3086 10.184 3.3945 15.359 0.085938 1.9531-0.085937 3.9883-0.16797 6.0234-0.085938 2.2891-0.25391 4.75-0.16797 7.2109l-21.805-1.1875c-0.007813-10.691 1.5195-19.602 4.4883-25.879z"/>
  <path d="m610.4 430.35c-4.668-15.273-9.9258-30.801-14.934-45.816-5.0078-14.934-10.184-30.375-14.848-45.562-0.76172-2.5469-3.0547-4.2422-5.6836-4.3281l-60.922-1.3594c-0.59375 0-1.1016 0.25391-1.6953 0.42578 0.16797-13.238 0.33984-26.641 0.59375-40.047 0-1.8672-0.76172-3.6484-2.207-4.75-0.42578-0.33984-0.84766-0.67969-1.2734-1.1016 0.76172-4.4141 1.3594-16.969 2.207-38.691 0.93359-23.758 2.6289-66.184 5.2617-77.891 13.066 0.25391 25.879-0.085938 38.266-0.42578 14-0.33984 28.426-0.76172 42.934-0.33984 3.3945 0.16797 6.1953-2.5469 6.2773-5.8555 0.085938-2.6289-1.5273-4.9219-3.9023-5.8555-3.8164-2.5469-20.957-18.582-31.223-28.34-6.8711-6.4492-12.727-11.965-15.02-13.914-6.1094-5.1758-11.793-11.539-17.309-17.816-2.7148-3.0547-5.3438-6.0234-8.0625-8.9102l-3.1406-3.2227c-40.473-41.914-49.551-53.879-51.418-57.273 0-1.5273-0.59375-3.0547-1.6953-4.3281-2.375-2.375-6.1953-2.4609-8.5703-0.085938-18.668 18.242-37.418 39.031-55.574 59.223-18.074 20.023-36.738 40.727-55.066 58.629-1.6953 1.6133-2.2891 4.0742-1.5273 6.2773 0.76172 2.207 2.7148 3.8164 5.0078 4.0742 13.32 1.6953 24.52 2.8008 35.211 3.8164 9.0781 0.84766 18.414 1.6953 29.188 3.0547-0.67969 10.352-1.1016 20.449-1.6133 30.461-0.33984 7.2969-0.67969 14.68-1.1016 22.145-19.516-16.121-38.777-31.988-56.934-47.09-2.375-1.9531-5.7695-1.8672-8.0625 0.25391-22.23 20.871-49.891 45.648-76.789 69.832-0.085938-11.285-0.84766-22.992-1.6953-34.535-0.93359-14-1.9531-28.508-1.6133-41.66l49.465 0.67969c2.8867-0.16797 4.8359-1.5273 5.7695-3.9023 0.93359-2.375 0.25391-5.0898-1.6953-6.7891-5.6836-4.9219-32.75-40.559-54.559-69.238-44.715-58.801-45.141-58.801-49.211-59.141-1.6953-0.085937-3.5625 0.50781-4.75 1.6953-40.812 39.371-77.805 84.848-113.61 128.89l-14.168 17.312c-1.6133 1.9531-1.7812 4.75-0.50781 6.957 1.2734 2.207 3.8164 3.3945 6.3633 2.8008 15.953-3.1406 28.254-4.8359 43.953-6.957 10.184-1.3594 21.805-2.9688 36.91-5.2617l15.359 170.97c0.085938 0.84766 0.33984 1.6133 0.76172 2.375l-56.508-0.84766c-2.375-0.085937-4.4141 1.2734-5.5156 3.3086-14.848 28.68-27.746 58.207-41.832 95.711-0.67969 1.7812-0.50781 3.7344 0.50781 5.3438 1.0195 1.6133 2.6289 2.6289 4.4961 2.8867 9.332 1.0195 18.668 1.2734 27.66 1.4414 6.957 0.16797 14 0.25391 21.043 0.84766-0.25391 11.625-0.84766 23.59-1.4414 35.215-0.67969 13.574-1.4414 27.66-1.6953 41.238 0 0.67969 0.16797 1.2734 0.33984 1.8672l-16.035 0.16797c-3.3945 0-6.0234 2.8008-6.0234 6.1094 0 3.3086 2.7148 6.0234 6.1094 6.0234h0.085937l444.95-3.9883c3.3945 0 6.0234-2.8008 6.0234-6.1094 0-3.3086-2.7148-6.0234-6.1094-6.0234h-0.085938-7.3867c0-0.16797 0.085937-0.33984 0.085937-0.50781 0.25391-13.746 1.1875-28.934 2.0352-43.527 0.76172-12.812 1.5273-25.965 1.9531-38.352 5.3438-0.33984 10.945-0.67969 16.461-1.0195 7.5508-0.50781 15.188-0.93359 22.316-1.3594 1.8672-0.085938 3.5625-1.0195 4.668-2.6289 1.0156-1.5273 1.3516-3.3945 0.75781-5.1758zm-182.08-281.78c-13.32-1.6953-24.438-2.8008-35.211-3.8164-7.1289-0.67969-14.426-1.3594-22.398-2.207 15.695-15.953 31.48-33.43 46.75-50.316 16.121-17.902 32.668-36.316 49.129-52.777 6.7031 9.25 21.297 25.453 50.398 55.574l3.0547 3.1406c2.6289 2.8008 5.1758 5.6836 7.8047 8.6562 5.8555 6.5352 11.793 13.32 18.582 19.008 2.207 1.8672 7.8906 7.2109 14.594 13.492 8.8242 8.3164 15.359 14.426 20.277 18.836-8.9102 0.085938-17.734 0.25391-26.387 0.50781-13.492 0.33984-27.406 0.76172-41.492 0.33984-8.1445 0.25391-10.438 3.2227-13.914 89.684-0.42578 11.539-0.93359 22.57-1.3594 29.781-19.938-16.547-40.98-33.938-62.023-51.25-2.0352-1.6953-4.0742-3.3086-6.0234-5.0078 0.67969-10.605 1.1875-20.957 1.6953-31.223 0.50781-11.793 1.1016-23.586 1.9531-35.891 0.085937-3.3086-2.207-6.1914-5.4297-6.5312zm-70.426 29.613c22.398 18.668 46.496 38.438 70.508 58.289 24.691 20.363 49.383 40.727 72.375 59.816-0.67969 38.777-0.84766 76.871-1.0195 113.7-0.16797 36.824-0.33984 74.836-1.1016 113.53l-95.453 0.84766c0-7.4648-0.085938-15.02-0.085938-22.484-0.16797-17.309-0.33984-35.297 0.42578-52.777 1.1016-25.539-4.3281-44.801-16.035-57.441-13.238-14.168-39.453-21.723-57.441-10.52-15.953 10.012-25.625 31.309-29.527 64.992-2.207 19.43-0.93359 39.371 0.33984 58.629 0.42578 6.5352 0.84766 13.066 1.1875 19.516 0 0.33984 0.16797 0.67969 0.25391 1.0195l-95.031 0.84766-0.84766-210.43c19.684-18.492 43.527-39.957 67.199-61.168 0.50781-0.33984 1.0195-0.76172 1.3594-1.2734 2.7148-2.4609 5.4297-4.8359 8.0625-7.2109 25.961-23.25 52.688-47.262 74.832-67.879zm-44.969 325.82c-1.2734-18.75-2.5469-38.098-0.42578-56.426 3.3945-29.441 11.453-48.277 23.926-56.086 12.727-7.9766 32.414-1.9531 42.086 8.4844 9.5039 10.184 13.746 26.559 12.812 48.617-0.76172 17.816-0.59375 35.891-0.42578 53.371 0.085938 7.4648 0.085938 15.02 0.085938 22.484l-77.129 0.67969c0.085938-0.50781 0.25391-0.93359 0.25391-1.4414-0.33594-6.4453-0.76172-13.066-1.1836-19.684zm-123.96-345.08c-0.16797-1.6953-1.0195-3.2227-2.2891-4.2422-1.3594-1.0195-3.0547-1.4414-4.668-1.1875-18.156 2.8008-31.562 4.668-43.102 6.1953-10.184 1.3594-19.008 2.5469-28.34 4.1562l3.7344-4.582c34.191-42.172 69.66-85.781 108.27-123.62 7.3828 8.8242 24.605 31.48 40.133 51.844 20.617 27.152 36.57 48.023 46.582 60.156l-41.574-0.59375h-0.085938c-3.2227 0-5.8555 2.5469-6.1094 5.6836-0.93359 15.359 0.25391 32.496 1.4414 48.957 1.0195 15.188 2.0352 30.801 1.4414 44.715-21.891 19.602-43.695 39.285-62.449 56.762zm-38.605 277.96c-9.332-1.0195-18.668-1.2734-27.746-1.4414-6.1094-0.17187-12.387-0.25781-18.668-0.68359 12.387-32.496 23.586-58.035 36.656-83.574l53.793 0.84766 0.67969 174.28-43.02 0.42578c0.16797-0.50781 0.33984-0.93359 0.33984-1.4414 0.33984-13.406 1.0195-27.406 1.6953-40.898 0.67969-13.574 1.4414-27.66 1.6953-41.238 0.089844-3.3047-2.2852-5.9375-5.4258-6.2734zm431.54-9.5039c-7.4648 0.50781-14.934 0.93359-21.977 1.3594-3.2227 0.16797-5.6836 2.8008-5.7695 5.9375-0.25391 13.746-1.1875 28.934-2.0352 43.527-0.84766 14.762-1.7812 30.035-2.0352 44.035 0 0.25391 0.085937 0.50781 0.16797 0.84766l-39.453 0.33984c0.67969-38.691 0.93359-76.617 1.0195-113.36 0.085937-21.297 0.16797-42.934 0.42578-64.91 0.50781 0.16797 1.0195 0.33984 1.5273 0.33984l56.508 1.2734c4.3281 13.914 9.0781 28 13.66 41.66 4.2422 12.473 8.4844 25.371 12.559 38.098-4.7539 0.25781-9.6758 0.51172-14.598 0.85156z"/>
  <use x="70" y="687.273438" xlink:href="#e"/>
  <use x="101.132813" y="687.273438" xlink:href="#c"/>
  <use x="122.058594" y="687.273438" xlink:href="#a"/>
  <use x="150.828125" y="687.273438" xlink:href="#j"/>
  <use x="179.457031" y="687.273438" xlink:href="#b"/>
  <use x="199.738281" y="687.273438" xlink:href="#a"/>
  <use x="228.511719" y="687.273438" xlink:href="#i"/>
  <use x="273.648438" y="687.273438" xlink:href="#h"/>
  <use x="304.015625" y="687.273438" xlink:href="#g"/>
  <use x="346.441406" y="687.273438" xlink:href="#f"/>
  <use x="381.65625" y="687.273438" xlink:href="#a"/>
  <use x="410.429688" y="687.273438" xlink:href="#t"/>
  <use x="435.679688" y="687.273438" xlink:href="#d"/>
  <use x="450.222656" y="687.273438" xlink:href="#s"/>
  <use x="480.589844" y="687.273438" xlink:href="#r"/>
  <use x="525.5625" y="687.273438" xlink:href="#e"/>
  <use x="556.699219" y="687.273438" xlink:href="#d"/>
  <use x="571.238281" y="687.273438" xlink:href="#c"/>
  <use x="592.160156" y="687.273438" xlink:href="#q"/>
  <use x="617.308594" y="687.273438" xlink:href="#p"/>
  <use x="631.851562" y="687.273438" xlink:href="#a"/>
  <use x="70" y="729.695312" xlink:href="#o"/>
  <use x="197.5" y="729.695312" xlink:href="#b"/>
  <use x="217.78125" y="729.695312" xlink:href="#n"/>
  <use x="291.527344" y="729.695312" xlink:href="#m"/>
  <use x="431.351563" y="729.695312" xlink:href="#l"/>
  <use x="512.511719" y="729.695312" xlink:href="#k"/>
  <use x="580.976562" y="729.695312" xlink:href="#b"/>
 </g>
</svg>
