<?xml version="1.0" encoding="UTF-8"?>
<svg width="700pt" height="700pt" version="1.1" viewBox="0 0 700 700" xmlns="http://www.w3.org/2000/svg" xmlns:xlink="http://www.w3.org/1999/xlink">
 <defs>
  <symbol id="w" overflow="visible">
   <path d="m14.656-0.875c-0.76172 0.39844-1.5547 0.69531-2.375 0.89062-0.8125 0.19531-1.6641 0.29688-2.5469 0.29688-2.6562 0-4.7617-0.73828-6.3125-2.2188-1.5547-1.4883-2.3281-3.5039-2.3281-6.0469 0-2.5508 0.77344-4.5664 2.3281-6.0469 1.5508-1.4883 3.6562-2.2344 6.3125-2.2344 0.88281 0 1.7344 0.10156 2.5469 0.29688 0.82031 0.19922 1.6133 0.49609 2.375 0.89062v3.2969c-0.76172-0.51953-1.5117-0.89844-2.25-1.1406-0.74219-0.23828-1.5234-0.35938-2.3438-0.35938-1.4688 0-2.625 0.46875-3.4688 1.4062-0.83594 0.9375-1.25 2.2344-1.25 3.8906 0 1.6484 0.41406 2.9375 1.25 3.875 0.84375 0.9375 2 1.4062 3.4688 1.4062 0.82031 0 1.6016-0.11719 2.3438-0.35938 0.73828-0.23828 1.4883-0.61719 2.25-1.1406z"/>
  </symbol>
  <symbol id="c" overflow="visible">
   <path d="m10.719-8.7031c-0.33594-0.15625-0.66797-0.26953-1-0.34375-0.32422-0.082031-0.65625-0.125-1-0.125-0.98047 0-1.7344 0.32031-2.2656 0.95312-0.53125 0.625-0.79688 1.5273-0.79688 2.7031v5.5156h-3.8125v-11.969h3.8125v1.9688c0.48828-0.78125 1.0508-1.3477 1.6875-1.7031 0.64453-0.36328 1.4102-0.54688 2.2969-0.54688 0.13281 0 0.27344 0.007812 0.42188 0.015625 0.14453 0.011719 0.36328 0.03125 0.65625 0.0625z"/>
  </symbol>
  <symbol id="a" overflow="visible">
   <path d="m13.781-6.0156v1.0938h-8.9375c0.09375 0.89844 0.41406 1.5703 0.96875 2.0156 0.55078 0.44922 1.3281 0.67188 2.3281 0.67188 0.80078 0 1.625-0.11719 2.4688-0.35938 0.84375-0.23828 1.7109-0.59766 2.6094-1.0781v2.9531c-0.90625 0.33594-1.8125 0.58984-2.7188 0.76562s-1.8125 0.26562-2.7188 0.26562c-2.1562 0-3.8398-0.54688-5.0469-1.6406-1.1992-1.1016-1.7969-2.6484-1.7969-4.6406 0-1.9453 0.58594-3.4766 1.7656-4.5938 1.1758-1.125 2.8008-1.6875 4.875-1.6875 1.875 0 3.375 0.57031 4.5 1.7031 1.1328 1.125 1.7031 2.6367 1.7031 4.5312zm-3.9375-1.2656c0-0.72656-0.21484-1.3125-0.64062-1.75-0.41797-0.44531-0.96875-0.67188-1.6562-0.67188-0.74219 0-1.3438 0.21094-1.8125 0.625-0.46094 0.41797-0.74609 1.0156-0.85938 1.7969z"/>
  </symbol>
  <symbol id="l" overflow="visible">
   <path d="m7.2031-5.3906c-0.80469 0-1.4062 0.13672-1.8125 0.40625-0.39844 0.27344-0.59375 0.67188-0.59375 1.2031 0 0.48047 0.16016 0.85938 0.48438 1.1406 0.32031 0.27344 0.77344 0.40625 1.3594 0.40625 0.71875 0 1.3203-0.25391 1.8125-0.76562 0.48828-0.51953 0.73438-1.1719 0.73438-1.9531v-0.4375zm5.8438-1.4375v6.8281h-3.8594v-1.7656c-0.51172 0.71875-1.0898 1.2461-1.7344 1.5781-0.63672 0.33203-1.418 0.5-2.3438 0.5-1.2422 0-2.2461-0.35938-3.0156-1.0781-0.77344-0.72656-1.1562-1.6719-1.1562-2.8281 0-1.3945 0.47656-2.4219 1.4375-3.0781 0.96875-0.65625 2.4883-0.98438 4.5625-0.98438h2.25v-0.29688c0-0.60156-0.24219-1.0469-0.71875-1.3281-0.48047-0.28125-1.2266-0.42188-2.2344-0.42188-0.8125 0-1.5742 0.085937-2.2812 0.25-0.71094 0.15625-1.3672 0.40234-1.9688 0.73438v-2.9219c0.82031-0.19531 1.6445-0.34766 2.4688-0.45312 0.82031-0.10156 1.6484-0.15625 2.4844-0.15625 2.1562 0 3.7109 0.42969 4.6719 1.2812 0.95703 0.84375 1.4375 2.2266 1.4375 4.1406z"/>
  </symbol>
  <symbol id="b" overflow="visible">
   <path d="m6.0156-15.359v3.3906h3.9375v2.7344h-3.9375v5.0781c0 0.55469 0.10938 0.92969 0.32812 1.125 0.21875 0.19922 0.65625 0.29688 1.3125 0.29688h1.9688v2.7344h-3.2812c-1.5117 0-2.5859-0.3125-3.2188-0.9375-0.625-0.63281-0.9375-1.707-0.9375-3.2188v-5.0781h-1.9062v-2.7344h1.9062v-3.3906z"/>
  </symbol>
  <symbol id="k" overflow="visible">
   <path d="m9.9688-10.219v-6.4062h3.8594v16.625h-3.8594v-1.7344c-0.52344 0.71094-1.1016 1.2305-1.7344 1.5625-0.63672 0.32031-1.3711 0.48438-2.2031 0.48438-1.4688 0-2.6797-0.58203-3.625-1.75-0.94922-1.1758-1.4219-2.6875-1.4219-4.5312s0.47266-3.3477 1.4219-4.5156c0.94531-1.1758 2.1562-1.7656 3.625-1.7656 0.83203 0 1.5664 0.16797 2.2031 0.5 0.63281 0.32422 1.2109 0.83594 1.7344 1.5312zm-2.5156 7.75c0.82031 0 1.4453-0.29688 1.875-0.89062 0.42578-0.60156 0.64062-1.4727 0.64062-2.6094 0-1.1445-0.21484-2.0156-0.64062-2.6094-0.42969-0.59375-1.0547-0.89062-1.875-0.89062-0.8125 0-1.4336 0.29688-1.8594 0.89062-0.42969 0.59375-0.64062 1.4648-0.64062 2.6094 0 1.1367 0.21094 2.0078 0.64062 2.6094 0.42578 0.59375 1.0469 0.89062 1.8594 0.89062z"/>
  </symbol>
  <symbol id="j" overflow="visible">
   <path d="m8.2031-2.4688c0.82031 0 1.4453-0.29688 1.875-0.89062 0.42578-0.60156 0.64062-1.4727 0.64062-2.6094 0-1.1445-0.21484-2.0156-0.64062-2.6094-0.42969-0.59375-1.0547-0.89062-1.875-0.89062-0.82422 0-1.4531 0.30469-1.8906 0.90625-0.4375 0.59375-0.65625 1.4609-0.65625 2.5938 0 1.1367 0.21875 2.0078 0.65625 2.6094 0.4375 0.59375 1.0664 0.89062 1.8906 0.89062zm-2.5469-7.75c0.53125-0.69531 1.1133-1.207 1.75-1.5312 0.64453-0.33203 1.3828-0.5 2.2188-0.5 1.4688 0 2.6758 0.58984 3.625 1.7656 0.94531 1.168 1.4219 2.6719 1.4219 4.5156s-0.47656 3.3555-1.4219 4.5312c-0.94922 1.168-2.1562 1.75-3.625 1.75-0.83594 0-1.5742-0.16797-2.2188-0.5-0.63672-0.33203-1.2188-0.84766-1.75-1.5469v1.7344h-3.8125v-16.625h3.8125z"/>
  </symbol>
  <symbol id="i" overflow="visible">
   <path d="m0.26562-11.969h3.8281l3.2188 8.125 2.7344-8.125h3.8125l-5.0312 13.094c-0.5 1.332-1.0898 2.2656-1.7656 2.7969-0.66797 0.53125-1.5547 0.79688-2.6562 0.79688h-2.2188v-2.5h1.2031c0.64453 0 1.1133-0.10547 1.4062-0.3125 0.30078-0.21094 0.53125-0.57812 0.6875-1.1094l0.10938-0.34375z"/>
  </symbol>
  <symbol id="h" overflow="visible">
   <path d="m2.0156-15.953h4.1094v15.953h-4.1094z"/>
  </symbol>
  <symbol id="v" overflow="visible">
   <path d="m5.6562-1.7344v6.2812h-3.8125v-16.516h3.8125v1.75c0.53125-0.69531 1.1133-1.207 1.75-1.5312 0.64453-0.33203 1.3828-0.5 2.2188-0.5 1.4688 0 2.6758 0.58984 3.625 1.7656 0.94531 1.168 1.4219 2.6719 1.4219 4.5156s-0.47656 3.3555-1.4219 4.5312c-0.94922 1.168-2.1562 1.75-3.625 1.75-0.83594 0-1.5742-0.16797-2.2188-0.5-0.63672-0.33203-1.2188-0.84766-1.75-1.5469zm2.5469-7.7344c-0.82422 0-1.4531 0.30469-1.8906 0.90625-0.4375 0.59375-0.65625 1.4609-0.65625 2.5938 0 1.1367 0.21875 2.0078 0.65625 2.6094 0.4375 0.59375 1.0664 0.89062 1.8906 0.89062 0.82031 0 1.4453-0.29688 1.875-0.89062 0.42578-0.60156 0.64062-1.4727 0.64062-2.6094 0-1.1445-0.21484-2.0156-0.64062-2.6094-0.42969-0.59375-1.0547-0.89062-1.875-0.89062z"/>
  </symbol>
  <symbol id="g" overflow="visible">
   <path d="m13.859-7.2812v7.2812h-3.8438v-5.5781c0-1.0312-0.027344-1.7383-0.078125-2.125-0.042969-0.39453-0.12109-0.6875-0.23438-0.875-0.14844-0.25-0.35156-0.44141-0.60938-0.57812-0.25-0.14453-0.54297-0.21875-0.875-0.21875-0.79297 0-1.418 0.3125-1.875 0.9375-0.46094 0.61719-0.6875 1.4648-0.6875 2.5469v5.8906h-3.8125v-11.969h3.8125v1.75c0.58203-0.69531 1.1953-1.207 1.8438-1.5312 0.64453-0.33203 1.3594-0.5 2.1406-0.5 1.3828 0 2.4297 0.42969 3.1406 1.2812 0.71875 0.84375 1.0781 2.0742 1.0781 3.6875z"/>
  </symbol>
  <symbol id="f" overflow="visible">
   <path d="m1.7031-4.6562v-7.3125h3.8438v1.2031c0 0.64844-0.007813 1.4609-0.015625 2.4375v1.9688c0 0.96094 0.023438 1.6523 0.078125 2.0781 0.050781 0.41797 0.13281 0.72656 0.25 0.92188 0.15625 0.25 0.35938 0.44531 0.60938 0.57812 0.25781 0.13672 0.55078 0.20312 0.875 0.20312 0.80078 0 1.4258-0.30469 1.875-0.92188 0.45703-0.61328 0.6875-1.4688 0.6875-2.5625v-5.9062h3.8281v11.969h-3.8281v-1.7344c-0.57422 0.69922-1.1836 1.2148-1.8281 1.5469-0.64844 0.33203-1.3555 0.5-2.125 0.5-1.3867 0-2.4453-0.42188-3.1719-1.2656-0.71875-0.85156-1.0781-2.0859-1.0781-3.7031z"/>
  </symbol>
  <symbol id="u" overflow="visible">
   <path d="m11.688-2.9062h-6.4375l-1.0156 2.9062h-4.125l5.9062-15.953h4.9062l5.9062 15.953h-4.1406zm-5.4062-2.9531h4.375l-2.1875-6.3438z"/>
  </symbol>
  <symbol id="e" overflow="visible">
   <path d="m1.25-11.969h10.438v2.6719l-6.2969 6.5625h6.2969v2.7344h-10.703v-2.6719l6.2969-6.5625h-6.0312z"/>
  </symbol>
  <symbol id="t" overflow="visible">
   <path d="m1.8438-11.969h3.8125v11.969h-3.8125zm0-4.6562h3.8125v3.125h-3.8125z"/>
  </symbol>
  <symbol id="s" overflow="visible">
   <path d="m9.7031-16.625v2.5156h-2.1094c-0.54297 0-0.92188 0.10156-1.1406 0.29688-0.21094 0.19922-0.3125 0.53906-0.3125 1.0156v0.82812h3.2656v2.7344h-3.2656v9.2344h-3.8281v-9.2344h-1.8906v-2.7344h1.8906v-0.82812c0-1.3008 0.36328-2.2656 1.0938-2.8906 0.72656-0.625 1.8516-0.9375 3.375-0.9375z"/>
  </symbol>
  <symbol id="d" overflow="visible">
   <path d="m7.5312-9.5156c-0.84375 0-1.4922 0.30859-1.9375 0.92188-0.44922 0.60547-0.67188 1.4805-0.67188 2.625 0 1.1484 0.22266 2.0273 0.67188 2.6406 0.44531 0.60547 1.0938 0.90625 1.9375 0.90625 0.83203 0 1.4688-0.30078 1.9062-0.90625 0.44531-0.61328 0.67188-1.4922 0.67188-2.6406 0-1.1445-0.22656-2.0195-0.67188-2.625-0.4375-0.61328-1.0742-0.92188-1.9062-0.92188zm0-2.7344c2.0508 0 3.6562 0.55859 4.8125 1.6719 1.1641 1.1055 1.75 2.6406 1.75 4.6094s-0.58594 3.5117-1.75 4.625c-1.1562 1.1055-2.7617 1.6562-4.8125 1.6562-2.0625 0-3.6797-0.55078-4.8438-1.6562-1.168-1.1133-1.75-2.6562-1.75-4.625s0.58203-3.5039 1.75-4.6094c1.1641-1.1133 2.7812-1.6719 4.8438-1.6719z"/>
  </symbol>
  <symbol id="r" overflow="visible">
   <path d="m12.922-9.9688c0.48828-0.75 1.0625-1.3164 1.7188-1.7031 0.66406-0.38281 1.3984-0.57812 2.2031-0.57812 1.375 0 2.4219 0.42969 3.1406 1.2812 0.71875 0.84375 1.0781 2.0742 1.0781 3.6875v7.2812h-3.8438v-6.2344c0.007812-0.09375 0.015625-0.1875 0.015625-0.28125v-0.4375c0-0.84375-0.125-1.457-0.375-1.8438-0.25-0.38281-0.65234-0.57812-1.2031-0.57812-0.73047 0-1.293 0.30469-1.6875 0.90625-0.38672 0.59375-0.58984 1.4609-0.60938 2.5938v5.875h-3.8438v-6.2344c0-1.3203-0.11719-2.1758-0.34375-2.5625-0.23047-0.38281-0.63672-0.57812-1.2188-0.57812-0.73047 0-1.2969 0.30469-1.7031 0.90625-0.39844 0.60547-0.59375 1.4648-0.59375 2.5781v5.8906h-3.8438v-11.969h3.8438v1.75c0.46875-0.66406 1.0039-1.1719 1.6094-1.5156 0.61328-0.34375 1.2891-0.51562 2.0312-0.51562 0.82031 0 1.5508 0.19922 2.1875 0.59375 0.63281 0.39844 1.1133 0.96094 1.4375 1.6875z"/>
  </symbol>
  <symbol id="q" overflow="visible">
   <path d="m13.859-7.2812v7.2812h-3.8438v-5.5469c0-1.0508-0.027344-1.7695-0.078125-2.1562-0.042969-0.39453-0.12109-0.6875-0.23438-0.875-0.14844-0.25-0.35156-0.44141-0.60938-0.57812-0.25-0.14453-0.54297-0.21875-0.875-0.21875-0.79297 0-1.418 0.3125-1.875 0.9375-0.46094 0.61719-0.6875 1.4648-0.6875 2.5469v5.8906h-3.8125v-16.625h3.8125v6.4062c0.58203-0.69531 1.1953-1.207 1.8438-1.5312 0.64453-0.33203 1.3594-0.5 2.1406-0.5 1.3828 0 2.4297 0.42969 3.1406 1.2812 0.71875 0.84375 1.0781 2.0742 1.0781 3.6875z"/>
  </symbol>
  <symbol id="p" overflow="visible">
   <path d="m2.0156-15.953h4.5781l5.8125 10.938v-10.938h3.8906v15.953h-4.5938l-5.7969-10.938v10.938h-3.8906z"/>
  </symbol>
  <symbol id="o" overflow="visible">
   <path d="m2.0156-15.953h6.8125c2.0312 0 3.5859 0.45312 4.6719 1.3594 1.0938 0.89844 1.6406 2.1797 1.6406 3.8438 0 1.6797-0.54688 2.9688-1.6406 3.875-1.0859 0.89844-2.6406 1.3438-4.6719 1.3438h-2.7031v5.5312h-4.1094zm4.1094 2.9844v4.4531h2.2656c0.80078 0 1.4141-0.19141 1.8438-0.57812 0.4375-0.38281 0.65625-0.9375 0.65625-1.6562 0-0.70703-0.21875-1.2539-0.65625-1.6406-0.42969-0.38281-1.043-0.57812-1.8438-0.57812z"/>
  </symbol>
  <symbol id="n" overflow="visible">
   <path d="m1.8438-11.969h3.8125v11.75c0 1.6016-0.38672 2.8281-1.1562 3.6719-0.76172 0.84375-1.8711 1.2656-3.3281 1.2656h-1.8906v-2.5h0.65625c0.72656 0 1.2266-0.16797 1.5-0.5 0.26953-0.32422 0.40625-0.96875 0.40625-1.9375zm0-4.6562h3.8125v3.125h-3.8125z"/>
  </symbol>
  <symbol id="m" overflow="visible">
   <path d="m11.5-11.594v3.125c-0.52344-0.35156-1.043-0.61328-1.5625-0.78125-0.52344-0.17578-1.0625-0.26562-1.625-0.26562-1.0742 0-1.9062 0.3125-2.5 0.9375s-0.89062 1.4961-0.89062 2.6094c0 1.1172 0.29688 1.9844 0.89062 2.6094s1.4258 0.9375 2.5 0.9375c0.59375 0 1.1562-0.085937 1.6875-0.26562 0.53906-0.17578 1.0391-0.44141 1.5-0.79688v3.125c-0.59375 0.23047-1.1992 0.39453-1.8125 0.5-0.61719 0.11328-1.2344 0.17188-1.8594 0.17188-2.1562 0-3.8438-0.55078-5.0625-1.6562-1.2188-1.1133-1.8281-2.6562-1.8281-4.625s0.60938-3.5039 1.8281-4.6094c1.2188-1.1133 2.9062-1.6719 5.0625-1.6719 0.625 0 1.2383 0.058594 1.8438 0.17188 0.61328 0.10547 1.2227 0.26562 1.8281 0.48438z"/>
  </symbol>
 </defs>
 <g>
  <path d="m556.46 468.52h-90.457v-53.285c5.375-0.86328 10.648-2.2695 15.738-4.1953 15.488 7.4609 33.59 7.1992 48.855-0.71484 15.262-7.9102 25.914-22.547 28.746-39.504 2.832-16.961-2.4844-34.262-14.348-46.707 4.5625-9.7773 4.5039-21.082-0.16016-30.809-4.6602-9.7305-13.434-16.859-23.91-19.43 1.1055-3.9336 1.6641-8.0039 1.6602-12.09-0.050782-9.375-3.0117-18.5-8.4727-26.117-5.4609-7.6211-13.152-13.355-22.012-16.418 0.87891-2.9688 1.3242-6.0547 1.3164-9.1523 0.046875-8.6602-3.2695-17.004-9.2461-23.277-5.9766-6.2695-14.148-9.9805-22.805-10.352s-17.117 2.625-23.609 8.3633c-9.332-22.168-20.871-43.344-34.441-63.199l-0.019531-0.039062h0.003907c-0.35938-0.75781-0.83984-1.4492-1.4297-2.043-0.40234-0.35547-0.83203-0.67188-1.293-0.94531-0.046875-0.019531-0.10156-0.054688-0.14062-0.074219h0.003906c-0.92969-0.49219-1.9609-0.74609-3.0078-0.74219h-0.019531c-1.0508-0.003906-2.0859 0.25781-3.0078 0.76172-0.054687 0-0.09375 0.054688-0.14062 0.054688-0.46484 0.27344-0.90234 0.59766-1.3008 0.96484-0.59375 0.58203-1.0742 1.2656-1.418 2.0234 0 0.019531-0.015625 0.035156-0.035156 0.039062-1.9883 2.6367-4.8086 6.8125-8.0859 12.16-5.0273-5.6406-11.406-9.9023-18.539-12.383 0.87109-2.9688 1.3086-6.043 1.3086-9.1367 0.007812-8.9336-3.5312-17.504-9.8477-23.824-6.3125-6.3242-14.879-9.875-23.812-9.875-8.9336 0-17.504 3.5508-23.816 9.875-6.3125 6.3203-9.8555 14.891-9.8438 23.824-0.003906 1.7734 0.14453 3.543 0.44531 5.293-8.9961 1.0352-17.301 5.3398-23.332 12.098-6.0273 6.7539-9.3633 15.492-9.375 24.551 0.003906 1.8398 0.15234 3.6797 0.44922 5.4961-4.1172 1.625-7.832 4.125-10.883 7.332l-12.773-22.168c-1.2422-1.8789-3.3438-3.0078-5.5977-3.0078-2.25 0-4.3516 1.1289-5.5977 3.0078l-65.52 113.7c-1.1484 1.9961-1.1484 4.457 0.007813 6.4531 1.1523 1.9961 3.2852 3.2227 5.5898 3.2188h14.574l-34.227 59.359c-1.1562 2-1.1523 4.4648 0.003906 6.4648s3.293 3.2305 5.6016 3.2227h19.262l-38.906 67.488h0.003907c-1.1523 2-1.1484 4.4609 0.007812 6.457 1.1562 1.9961 3.293 3.2227 5.6016 3.2188h87.145v54.066l-87.844-0.003907c-3.5586 0-6.4414 2.8867-6.4414 6.4453 0 3.5547 2.8828 6.4414 6.4414 6.4414h412.95c3.5547 0 6.4414-2.8867 6.4414-6.4414 0-3.5586-2.8867-6.4453-6.4414-6.4453zm-300.55-91.809c-20.516-58.355 49.18-158.95 69.621-184.64 19.895 25.746 37.113 53.453 51.379 82.695-1.5117 3.625-2.3047 7.5078-2.3281 11.434 0.003907 3.8438 0.73438 7.6484 2.1523 11.215-8.6289 7.4609-13.59 18.301-13.59 29.707-0.007812 5.8516 1.3203 11.633 3.8789 16.895-10.391 7.3633-16.629 19.258-16.777 31.992-0.15234 12.738 5.8086 24.773 16.027 32.379-10.781 5.5352-22.363 9.3398-34.328 11.27v-161.56c0-3.5664-2.8906-6.457-6.457-6.457-3.5664 0-6.457 2.8906-6.457 6.457v161.54c-33.848-6.0156-55.18-20.367-63.125-42.926zm76.039 56.125h-0.003907c17.289-2.2969 33.871-8.3203 48.605-17.656 12.117 3.125 25 0.28906 34.691-7.6328 11.75 5.8594 24.727 8.8359 37.855 8.6914v52.281h-121.15zm127.82-243.5c5.5 0.011718 10.773 2.2031 14.664 6.0938 3.8867 3.8906 6.0742 9.1641 6.082 14.664-0.023437 3.6484-1.0195 7.2266-2.8867 10.359-1.0703 1.8516-1.1562 4.1094-0.23047 6.0352 0.92578 1.9258 2.75 3.2695 4.8633 3.5859 7.5977 1.1484 14.535 4.9727 19.562 10.789 5.0273 5.8125 7.8125 13.234 7.8477 20.918 0.003907 5.0859-1.2188 10.098-3.5547 14.613-1.0312 2-0.94531 4.3906 0.22656 6.3125 1.1719 1.918 3.2617 3.0859 5.5117 3.082 0.28125 0.003906 0.55859-0.015625 0.83594-0.054688 5.5742 0.078125 10.93 2.168 15.082 5.8867s6.8203 8.8086 7.5156 14.34c0.69531 5.5312-0.62891 11.125-3.7344 15.754-1.8242 2.707-1.3398 6.3516 1.1328 8.4844 10.492 9.082 15.781 22.789 14.117 36.566-1.6641 13.773-10.066 25.824-22.422 32.148-12.352 6.3203-27.039 6.0938-39.188-0.61328-0.96094-0.51953-2.0312-0.79297-3.1211-0.80078-0.86719 0-1.7227 0.17578-2.5156 0.52344-4.3672 1.8086-8.9062 3.1562-13.555 4.0273v-16.117l59.996-34.07h0.003906c1.4922-0.83984 2.5898-2.2422 3.0508-3.8945 0.45703-1.6523 0.23828-3.4219-0.60547-4.9141-0.84766-1.4883-2.25-2.582-3.9062-3.0391-1.6523-0.45312-3.418-0.23047-4.9102 0.61719l-53.629 30.465v-30.352l45.145-25.625c3.0938-1.7617 4.1758-5.6992 2.418-8.7969-1.7617-3.0977-5.6914-4.1836-8.793-2.4336l-38.766 22.039-0.003907-30.355 25.918-14.703h0.003907c3.0898-1.7695 4.168-5.7031 2.4102-8.7969-1.7578-3.0977-5.6875-4.1875-8.7891-2.4375l-19.543 11.102v-43.445c0-3.5625-2.8906-6.4531-6.4531-6.4531-3.5664 0-6.457 2.8906-6.457 6.4531v17.637l-19.262-10.938v0.003906c-1.4844-0.85547-3.25-1.082-4.9023-0.63281-1.6562 0.44922-3.0625 1.5391-3.9102 3.0273-0.84766 1.4883-1.0664 3.2539-0.61328 4.9062 0.45703 1.6523 1.5547 3.0547 3.0469 3.8945l25.641 14.574v30.336l-34.219-19.438c-3.0977-1.7617-7.0352-0.67578-8.7969 2.418-1.7578 3.0977-0.67578 7.0352 2.4219 8.7969l40.594 23.078v30.316l-48.172-27.367c-3.0938-1.7656-7.0391-0.6875-8.8047 2.4102-1.7656 3.0977-0.6875 7.0391 2.4102 8.8047l54.566 31.008v43.184c-12.473 0.14062-24.758-3.0469-35.59-9.2266-2.5703-1.4727-5.8047-1.0195-7.875 1.0938-5.0586 5.3281-12.09 8.3359-19.438 8.3164-7.1719-0.007812-14.047-2.8594-19.121-7.9297-5.0703-5.0703-7.9219-11.945-7.9297-19.117-0.011719-5.1172 1.4375-10.129 4.1836-14.445 2.7422-4.3164 6.6641-7.7578 11.301-9.918 1.7266-0.82422 3-2.375 3.4727-4.2305 0.48047-1.8516 0.10547-3.8203-1.0234-5.3633-4.2227-5.8008-5.8906-13.074-4.6094-20.129 1.2812-7.0586 5.3945-13.285 11.387-17.23 0.92188-0.58203 1.6641-1.4023 2.1562-2.375 0.074219-0.12891 0.35938-0.63281 0.43359-0.78125 1.0508-2.0195 0.96484-4.4453-0.23047-6.3828-1.7812-2.8125-2.7266-6.0703-2.7305-9.3984 0.027344-4.3203 1.6133-8.4844 4.4648-11.73 2.8516-3.2461 6.7773-5.3594 11.059-5.9414 1.9297-0.26953 3.6328-1.3945 4.6406-3.0625 1.0039-1.668 1.2031-3.7031 0.53516-5.5352-0.92969-2.5195-1.4141-5.1836-1.4375-7.8711 0.003906-6.3633 2.5312-12.465 7.0312-16.965 4.4961-4.5 10.594-7.0312 16.957-7.043 1.2461 0.03125 2.4844 0.16797 3.7031 0.41016 2.3828 0.36719 4.7734-0.61719 6.2031-2.5625 1.4297-1.9414 1.6562-4.5195 0.59375-6.6836-1.4414-2.8242-2.1992-5.9453-2.2188-9.1172 0.007813-5.5 2.1953-10.777 6.0859-14.668 3.8906-3.8906 9.168-6.082 14.672-6.0898zm-62.348-53.672c12.09 19.496 22.617 39.922 31.48 61.082-1.8438 4.207-2.8008 8.7539-2.8047 13.348-0.003906 1.7734 0.14453 3.543 0.44531 5.293-8.9961 1.0391-17.301 5.3516-23.332 12.109-6.0312 6.7617-9.3672 15.5-9.3828 24.559 0 1.8398 0.15625 3.6797 0.45703 5.4961-3.1445 1.2383-6.0664 2.9883-8.6406 5.1797-8.125-16.039-17.18-31.59-27.129-46.566 10.074-28.141 23.113-55.125 38.906-80.5zm-121.64 35.031c1.9336-0.26953 3.6406-1.3984 4.6484-3.0703 1.0039-1.6719 1.2031-3.707 0.53906-5.543-0.94141-2.5195-1.4297-5.1836-1.4453-7.8711 0.003906-6.3594 2.5312-12.457 7.0273-16.957 4.4961-4.4961 10.59-7.0273 16.949-7.0312 1.2578 0.035157 2.5078 0.16406 3.7422 0.39063 2.3828 0.37109 4.7773-0.61328 6.2031-2.5625 1.4258-1.9453 1.6484-4.5234 0.57422-6.6836-1.4453-2.8164-2.207-5.9336-2.2305-9.0977 0-7.4102 3.957-14.262 10.375-17.969 6.418-3.7031 14.328-3.7031 20.746 0 6.4219 3.707 10.375 10.559 10.375 17.969-0.015625 3.6445-1.0117 7.2148-2.875 10.34-1.0781 1.8477-1.168 4.1094-0.24219 6.0352 0.94141 1.9258 2.7656 3.2695 4.8828 3.6016 8.6875 1.3047 16.453 6.1328 21.461 13.352-10.367 18.508-19.34 37.766-26.848 57.609-8-11.344-14.715-19.793-18.379-23.949-0.007812-0.035157-0.019531-0.035157-0.035156-0.074219-0.26953-0.53125-0.61328-1.0195-1.0234-1.4492-0.49609-0.52734-1.0742-0.96875-1.7188-1.3008-0.035156-0.019531-0.070312-0.042969-0.10156-0.074219-0.89062-0.4375-1.8672-0.66797-2.8555-0.66797h-0.039062c-1 0.003907-1.9805 0.23047-2.8789 0.66797-0.027343 0.035157-0.0625 0.058594-0.10156 0.074219-0.63281 0.33984-1.207 0.77734-1.6992 1.3008-0.41016 0.43359-0.76172 0.91797-1.0391 1.4492 0 0.039062-0.019531 0.039062-0.019531 0.074219-11.477 13.75-22.008 28.266-31.516 43.445l-25.164-43.668c2.7695-4.5391 7.4258-7.5977 12.688-8.3398zm-92.32 84.645 54.363-94.316 42.738 74.152c-3.8438 6.4258-7.6758 13.184-11.363 20.164zm-14.055 69.027 32.344-56.125h60.926-0.003906c-8.8672 17.867-15.629 36.699-20.152 56.125zm-14.035 77.18 37.02-64.258h47.922c-1.4375 10.164-1.3984 20.484 0.12109 30.637 1.832 12.336 6.957 23.953 14.832 33.621zm88.895 12.906h25.062c14.984 9.7656 31.969 16.043 49.703 18.359v35.703h-74.766z"/>
  <use x="70" y="625.625" xlink:href="#w"/>
  <use x="86.054688" y="625.625" xlink:href="#c"/>
  <use x="96.839844" y="625.625" xlink:href="#a"/>
  <use x="111.679687" y="625.625" xlink:href="#l"/>
  <use x="126.4375" y="625.625" xlink:href="#b"/>
  <use x="136.894531" y="625.625" xlink:href="#a"/>
  <use x="151.730469" y="625.625" xlink:href="#k"/>
  <use x="175.007812" y="625.625" xlink:href="#j"/>
  <use x="190.664062" y="625.625" xlink:href="#i"/>
  <use x="212.539062" y="625.625" xlink:href="#h"/>
  <use x="220.679688" y="625.625" xlink:href="#v"/>
  <use x="236.335938" y="625.625" xlink:href="#g"/>
  <use x="251.910156" y="625.625" xlink:href="#f"/>
  <use x="275.097656" y="625.625" xlink:href="#u"/>
  <use x="292.027344" y="625.625" xlink:href="#e"/>
  <use x="304.761719" y="625.625" xlink:href="#t"/>
  <use x="312.257812" y="625.625" xlink:href="#e"/>
  <use x="70" y="647.5" xlink:href="#s"/>
  <use x="79.515625" y="647.5" xlink:href="#c"/>
  <use x="90.304688" y="647.5" xlink:href="#d"/>
  <use x="105.332031" y="647.5" xlink:href="#r"/>
  <use x="135.742188" y="647.5" xlink:href="#b"/>
  <use x="146.199219" y="647.5" xlink:href="#q"/>
  <use x="161.773438" y="647.5" xlink:href="#a"/>
  <use x="184.222656" y="647.5" xlink:href="#p"/>
  <use x="202.53125" y="647.5" xlink:href="#d"/>
  <use x="217.558594" y="647.5" xlink:href="#f"/>
  <use x="233.132812" y="647.5" xlink:href="#g"/>
  <use x="256.320312" y="647.5" xlink:href="#o"/>
  <use x="272.355469" y="647.5" xlink:href="#c"/>
  <use x="283.140625" y="647.5" xlink:href="#d"/>
  <use x="298.171875" y="647.5" xlink:href="#n"/>
  <use x="305.667969" y="647.5" xlink:href="#a"/>
  <use x="320.503906" y="647.5" xlink:href="#m"/>
  <use x="333.472656" y="647.5" xlink:href="#b"/>
 </g>
</svg>
