<?xml version="1.0" encoding="UTF-8"?>
<svg width="700pt" height="700pt" version="1.1" viewBox="0 0 700 700" xmlns="http://www.w3.org/2000/svg" xmlns:xlink="http://www.w3.org/1999/xlink">
 <defs>
  <symbol id="s" overflow="visible">
   <path d="m6.1094-0.35938c-0.3125 0.15625-0.64062 0.27734-0.98438 0.35938s-0.69922 0.125-1.0625 0.125c-1.1172 0-1.9961-0.30469-2.6406-0.92188-0.64844-0.625-0.96875-1.4609-0.96875-2.5156 0-1.0703 0.32031-1.9141 0.96875-2.5312 0.64453-0.61328 1.5234-0.92188 2.6406-0.92188 0.36328 0 0.71875 0.042969 1.0625 0.125 0.34375 0.085937 0.67188 0.20312 0.98438 0.35938v1.375c-0.3125-0.20703-0.625-0.36328-0.9375-0.46875-0.3125-0.10156-0.63672-0.15625-0.96875-0.15625-0.61719 0-1.1016 0.19922-1.4531 0.59375-0.34375 0.38672-0.51562 0.92969-0.51562 1.625 0 0.67969 0.17188 1.2148 0.51562 1.6094 0.35156 0.39844 0.83594 0.59375 1.4531 0.59375 0.33203 0 0.65625-0.050781 0.96875-0.15625 0.3125-0.10156 0.625-0.25781 0.9375-0.46875z"/>
  </symbol>
  <symbol id="c" overflow="visible">
   <path d="m4.4688-3.625c-0.13672-0.070312-0.27734-0.125-0.42188-0.15625-0.13672-0.03125-0.27344-0.046875-0.40625-0.046875-0.40625 0-0.72656 0.13672-0.95312 0.40625-0.21875 0.26172-0.32812 0.63672-0.32812 1.125v2.2969h-1.5938v-4.9844h1.5938v0.8125c0.20703-0.32031 0.44141-0.55469 0.70312-0.70312 0.26953-0.15625 0.58594-0.23438 0.95312-0.23438 0.0625 0 0.125 0.007813 0.1875 0.015625 0.0625 0 0.14844 0.007812 0.26562 0.015625z"/>
  </symbol>
  <symbol id="a" overflow="visible">
   <path d="m5.75-2.5156v0.46875h-3.7344c0.039063 0.36719 0.17578 0.64062 0.40625 0.82812 0.22656 0.1875 0.55078 0.28125 0.96875 0.28125 0.34375 0 0.6875-0.046875 1.0312-0.14062 0.35156-0.10156 0.71875-0.25391 1.0938-0.45312v1.2344c-0.375 0.13672-0.75781 0.24219-1.1406 0.3125-0.375 0.070312-0.75 0.10938-1.125 0.10938-0.90625 0-1.6094-0.22656-2.1094-0.6875-0.5-0.45703-0.75-1.0977-0.75-1.9219 0-0.82031 0.24219-1.4609 0.73438-1.9219 0.48828-0.46875 1.1641-0.70312 2.0312-0.70312 0.78125 0 1.4062 0.24219 1.875 0.71875 0.47656 0.46875 0.71875 1.0938 0.71875 1.875zm-1.6406-0.51562c0-0.3125-0.089844-0.55469-0.26562-0.73438-0.17969-0.1875-0.40625-0.28125-0.6875-0.28125-0.3125 0-0.57031 0.089844-0.76562 0.26562-0.1875 0.16797-0.30859 0.41797-0.35938 0.75z"/>
  </symbol>
  <symbol id="e" overflow="visible">
   <path d="m3-2.25c-0.33594 0-0.58594 0.058594-0.75 0.17188-0.16797 0.11719-0.25 0.28125-0.25 0.5 0 0.19922 0.066406 0.35547 0.20312 0.46875 0.13281 0.11719 0.32031 0.17188 0.5625 0.17188 0.30078 0 0.55078-0.10156 0.75-0.3125 0.20703-0.21875 0.3125-0.48828 0.3125-0.8125v-0.1875zm2.4375-0.59375v2.8438h-1.6094v-0.73438c-0.21094 0.30469-0.44922 0.52344-0.71875 0.65625-0.27344 0.13281-0.59375 0.20312-0.96875 0.20312-0.52344 0-0.94531-0.14844-1.2656-0.45312-0.32422-0.30078-0.48438-0.69141-0.48438-1.1719 0-0.58203 0.19531-1.0078 0.59375-1.2812 0.40625-0.26953 1.0391-0.40625 1.9062-0.40625h0.9375v-0.125c0-0.25781-0.10156-0.44531-0.29688-0.5625-0.19922-0.11328-0.50781-0.17188-0.92188-0.17188-0.34375 0-0.66797 0.039063-0.96875 0.10938-0.29297 0.0625-0.5625 0.16406-0.8125 0.29688v-1.2188c0.34375-0.082031 0.6875-0.14453 1.0312-0.1875 0.34375-0.039063 0.6875-0.0625 1.0312-0.0625 0.89453 0 1.5391 0.17969 1.9375 0.53125 0.40625 0.35547 0.60938 0.93359 0.60938 1.7344z"/>
  </symbol>
  <symbol id="b" overflow="visible">
   <path d="m2.5156-6.4062v1.4219h1.6406v1.1406h-1.6406v2.1094c0 0.23047 0.039063 0.38672 0.125 0.46875 0.09375 0.085937 0.27344 0.125 0.54688 0.125h0.82812v1.1406h-1.375c-0.625 0-1.0742-0.12891-1.3438-0.39062-0.26172-0.25781-0.39062-0.70703-0.39062-1.3438v-2.1094h-0.78125v-1.1406h0.78125v-1.4219z"/>
  </symbol>
  <symbol id="n" overflow="visible">
   <path d="m4.1562-4.2656v-2.6719h1.6094v6.9375h-1.6094v-0.71875c-0.21875 0.29297-0.46484 0.50781-0.73438 0.64062-0.26172 0.13281-0.5625 0.20312-0.90625 0.20312-0.61719 0-1.1211-0.24219-1.5156-0.73438-0.39844-0.48828-0.59375-1.1133-0.59375-1.875 0-0.76953 0.19531-1.3984 0.59375-1.8906 0.39453-0.48828 0.89844-0.73438 1.5156-0.73438 0.34375 0 0.64453 0.070313 0.90625 0.20312 0.26953 0.13672 0.51562 0.35156 0.73438 0.64062zm-1.0469 3.2344c0.34375 0 0.60156-0.125 0.78125-0.375 0.17578-0.25 0.26562-0.60938 0.26562-1.0781 0-0.47656-0.089844-0.84375-0.26562-1.0938-0.17969-0.25-0.4375-0.375-0.78125-0.375-0.33594 0-0.59375 0.125-0.78125 0.375-0.17969 0.25-0.26562 0.61719-0.26562 1.0938 0 0.46875 0.085938 0.82812 0.26562 1.0781 0.1875 0.25 0.44531 0.375 0.78125 0.375z"/>
  </symbol>
  <symbol id="m" overflow="visible">
   <path d="m3.4219-1.0312c0.34375 0 0.60156-0.125 0.78125-0.375 0.17578-0.25 0.26562-0.60938 0.26562-1.0781 0-0.47656-0.089844-0.84375-0.26562-1.0938-0.17969-0.25-0.4375-0.375-0.78125-0.375s-0.60938 0.125-0.79688 0.375c-0.17969 0.25-0.26562 0.61719-0.26562 1.0938 0 0.46875 0.085937 0.82812 0.26562 1.0781 0.1875 0.25 0.45312 0.375 0.79688 0.375zm-1.0625-3.2344c0.21875-0.28906 0.46094-0.50391 0.73438-0.64062 0.26953-0.13281 0.57812-0.20312 0.92188-0.20312 0.61328 0 1.1172 0.24609 1.5156 0.73438 0.39453 0.49219 0.59375 1.1211 0.59375 1.8906 0 0.76172-0.19922 1.3867-0.59375 1.875-0.39844 0.49219-0.90234 0.73438-1.5156 0.73438-0.34375 0-0.65234-0.070312-0.92188-0.20312-0.27344-0.13281-0.51562-0.34766-0.73438-0.64062v0.71875h-1.5938v-6.9375h1.5938z"/>
  </symbol>
  <symbol id="l" overflow="visible">
   <path d="m0.10938-4.9844h1.5938l1.3438 3.375 1.1406-3.375h1.5938l-2.0938 5.4531c-0.21094 0.5625-0.45312 0.95312-0.73438 1.1719s-0.65625 0.32812-1.125 0.32812h-0.92188v-1.0469h0.5c0.26953 0 0.46875-0.046875 0.59375-0.14062 0.125-0.085938 0.22266-0.23438 0.29688-0.45312l0.03125-0.14062z"/>
  </symbol>
  <symbol id="k" overflow="visible">
   <path d="m0.84375-6.6562h1.7031v2.5469h2.5312v-2.5469h1.7188v6.6562h-1.7188v-2.8281h-2.5312v2.8281h-1.7031z"/>
  </symbol>
  <symbol id="j" overflow="visible">
   <path d="m0.71875-1.9375v-3.0469h1.5938v0.5 1.0156 0.8125c0 0.40625 0.007812 0.69922 0.03125 0.875 0.019531 0.16797 0.054688 0.29297 0.10938 0.375 0.0625 0.10547 0.14453 0.1875 0.25 0.25 0.10156 0.054688 0.22266 0.078125 0.35938 0.078125 0.33203 0 0.59375-0.125 0.78125-0.375 0.19531-0.25781 0.29688-0.61719 0.29688-1.0781v-2.4531h1.5938v4.9844h-1.5938v-0.71875c-0.24219 0.29297-0.49609 0.50781-0.76562 0.64062-0.27344 0.13281-0.57031 0.20312-0.89062 0.20312-0.57422 0-1.0117-0.17578-1.3125-0.53125-0.30469-0.35156-0.45312-0.86328-0.45312-1.5312z"/>
  </symbol>
  <symbol id="i" overflow="visible">
   <path d="m5.3906-4.1562c0.19531-0.3125 0.4375-0.54688 0.71875-0.70312 0.28125-0.16406 0.58594-0.25 0.92188-0.25 0.57031 0 1.0039 0.17969 1.2969 0.53125 0.30078 0.35547 0.45312 0.87109 0.45312 1.5469v3.0312h-1.5938v-2.6094-0.10938-0.1875c0-0.35156-0.054688-0.60938-0.15625-0.76562-0.10547-0.15625-0.27344-0.23438-0.5-0.23438-0.30469 0-0.53906 0.125-0.70312 0.375-0.16797 0.25-0.25 0.60938-0.25 1.0781v2.4531h-1.6094v-2.6094c0-0.55078-0.046875-0.90625-0.14062-1.0625s-0.26562-0.23438-0.51562-0.23438c-0.30469 0-0.53906 0.125-0.70312 0.375-0.16797 0.25-0.25 0.60938-0.25 1.0781v2.4531h-1.6094v-4.9844h1.6094v0.71875c0.19531-0.28125 0.42188-0.48828 0.67188-0.625 0.25781-0.14453 0.53906-0.21875 0.84375-0.21875 0.34375 0 0.64453 0.085937 0.90625 0.25 0.26953 0.16797 0.47266 0.40234 0.60938 0.70312z"/>
  </symbol>
  <symbol id="h" overflow="visible">
   <path d="m5.7812-3.0312v3.0312h-1.6094v-2.3281c0-0.42578-0.011719-0.72266-0.03125-0.89062-0.011719-0.16406-0.042969-0.28516-0.09375-0.35938-0.0625-0.10156-0.14844-0.17969-0.25-0.23438-0.10547-0.0625-0.22656-0.09375-0.35938-0.09375-0.33594 0-0.60156 0.13281-0.79688 0.39062-0.1875 0.25-0.28125 0.60547-0.28125 1.0625v2.4531h-1.5938v-4.9844h1.5938v0.71875c0.23828-0.28906 0.49219-0.50391 0.76562-0.64062 0.26953-0.13281 0.56641-0.20312 0.89062-0.20312 0.58203 0 1.0195 0.17969 1.3125 0.53125 0.30078 0.35547 0.45312 0.87109 0.45312 1.5469z"/>
  </symbol>
  <symbol id="g" overflow="visible">
   <path d="m4.7969-4.8281v1.2969c-0.21875-0.14453-0.4375-0.25391-0.65625-0.32812-0.21875-0.070313-0.44531-0.10938-0.67188-0.10938-0.44922 0-0.79688 0.13281-1.0469 0.39062-0.25 0.26172-0.375 0.625-0.375 1.0938 0 0.46094 0.125 0.82031 0.375 1.0781 0.25 0.26172 0.59766 0.39062 1.0469 0.39062 0.25 0 0.48438-0.035156 0.70312-0.10938 0.22656-0.070312 0.4375-0.17969 0.625-0.32812v1.3125c-0.25 0.085938-0.50781 0.14453-0.76562 0.1875-0.25 0.050781-0.50781 0.078125-0.76562 0.078125-0.89844 0-1.6016-0.22656-2.1094-0.6875-0.51172-0.45703-0.76562-1.0977-0.76562-1.9219 0-0.82031 0.25391-1.4609 0.76562-1.9219 0.50781-0.46875 1.2109-0.70312 2.1094-0.70312 0.25781 0 0.51562 0.027344 0.76562 0.078125 0.25781 0.042969 0.51562 0.10938 0.76562 0.20312z"/>
  </symbol>
  <symbol id="f" overflow="visible">
   <path d="m5.7812-3.0312v3.0312h-1.6094v-2.3125c0-0.4375-0.011719-0.73828-0.03125-0.90625-0.011719-0.16406-0.042969-0.28516-0.09375-0.35938-0.0625-0.10156-0.14844-0.17969-0.25-0.23438-0.10547-0.0625-0.22656-0.09375-0.35938-0.09375-0.33594 0-0.60156 0.13281-0.79688 0.39062-0.1875 0.25-0.28125 0.60547-0.28125 1.0625v2.4531h-1.5938v-6.9375h1.5938v2.6719c0.23828-0.28906 0.49219-0.50391 0.76562-0.64062 0.26953-0.13281 0.56641-0.20312 0.89062-0.20312 0.58203 0 1.0195 0.17969 1.3125 0.53125 0.30078 0.35547 0.45312 0.87109 0.45312 1.5469z"/>
  </symbol>
  <symbol id="r" overflow="visible">
   <path d="m4.0469-6.9375v1.0469h-0.875c-0.23047 0-0.39062 0.042969-0.48438 0.125-0.085938 0.085937-0.125 0.22656-0.125 0.42188v0.35938h1.3594v1.1406h-1.3594v3.8438h-1.5938v-3.8438h-0.79688v-1.1406h0.79688v-0.35938c0-0.53906 0.14844-0.94141 0.45312-1.2031 0.30078-0.25781 0.76953-0.39062 1.4062-0.39062z"/>
  </symbol>
  <symbol id="d" overflow="visible">
   <path d="m3.1406-3.9688c-0.35547 0-0.625 0.13281-0.8125 0.39062-0.1875 0.25-0.28125 0.61719-0.28125 1.0938 0 0.48047 0.09375 0.84375 0.28125 1.0938s0.45703 0.375 0.8125 0.375c0.34375 0 0.60938-0.125 0.79688-0.375s0.28125-0.61328 0.28125-1.0938c0-0.47656-0.09375-0.84375-0.28125-1.0938-0.1875-0.25781-0.45312-0.39062-0.79688-0.39062zm0-1.1406c0.85156 0 1.5195 0.23438 2 0.70312 0.48828 0.46094 0.73438 1.1016 0.73438 1.9219 0 0.8125-0.24609 1.4531-0.73438 1.9219-0.48047 0.46094-1.1484 0.6875-2 0.6875-0.86719 0-1.543-0.22656-2.0312-0.6875-0.48047-0.46875-0.71875-1.1094-0.71875-1.9219 0-0.82031 0.23828-1.4609 0.71875-1.9219 0.48828-0.46875 1.1641-0.70312 2.0312-0.70312z"/>
  </symbol>
  <symbol id="q" overflow="visible">
   <path d="m0.84375-6.6562h1.9062l2.4219 4.5625v-4.5625h1.625v6.6562h-1.9062l-2.4219-4.5625v4.5625h-1.625z"/>
  </symbol>
  <symbol id="p" overflow="visible">
   <path d="m0.84375-6.6562h2.8438c0.84375 0 1.4883 0.1875 1.9375 0.5625 0.45703 0.375 0.6875 0.91406 0.6875 1.6094 0 0.69922-0.23047 1.2344-0.6875 1.6094-0.44922 0.375-1.0938 0.5625-1.9375 0.5625h-1.1406v2.3125h-1.7031zm1.7031 1.25v1.8594h0.95312c0.33203 0 0.58594-0.078125 0.76562-0.23438 0.1875-0.16406 0.28125-0.39844 0.28125-0.70312 0-0.28906-0.09375-0.51562-0.28125-0.67188-0.17969-0.16406-0.43359-0.25-0.76562-0.25z"/>
  </symbol>
  <symbol id="o" overflow="visible">
   <path d="m0.76562-4.9844h1.5938v4.8906c0 0.66406-0.16406 1.1758-0.48438 1.5312-0.3125 0.35156-0.77734 0.53125-1.3906 0.53125h-0.78125v-1.0469h0.26562c0.30078 0 0.50781-0.070313 0.625-0.20312 0.11328-0.13672 0.17188-0.40625 0.17188-0.8125zm0-1.9531h1.5938v1.3125h-1.5938z"/>
  </symbol>
 </defs>
 <g>
  <path d="m350 68.859c147.3-118.88 336.23-79.52 336.23 85.266 0 86.582-63.895 140.42-123.34 198.35l-212.89 207.53-212.89-207.53c-59.441-57.926-123.34-111.77-123.34-198.35 0-164.79 188.93-204.15 336.23-85.266zm0 424.82 179.73-175.21c45.316-44.148 109.01-95.195 109.01-164.35 0-148.34-174.8-116.22-258.9-48.309l-29.84 24.09-29.84-24.09c-84.098-67.91-258.9-100.03-258.9 48.309 0 69.152 63.695 120.2 109.01 164.35z" fill-rule="evenodd"/>
  <use x="13.769531" y="587.375" xlink:href="#s"/>
  <use x="20.46875" y="587.375" xlink:href="#c"/>
  <use x="24.96875" y="587.375" xlink:href="#a"/>
  <use x="31.15625" y="587.375" xlink:href="#e"/>
  <use x="37.3125" y="587.375" xlink:href="#b"/>
  <use x="41.675781" y="587.375" xlink:href="#a"/>
  <use x="47.863281" y="587.375" xlink:href="#n"/>
  <use x="57.574219" y="587.375" xlink:href="#m"/>
  <use x="64.105469" y="587.375" xlink:href="#l"/>
  <use x="73.230469" y="587.375" xlink:href="#k"/>
  <use x="80.867188" y="587.375" xlink:href="#j"/>
  <use x="87.363281" y="587.375" xlink:href="#i"/>
  <use x="96.875" y="587.375" xlink:href="#e"/>
  <use x="103.03125" y="587.375" xlink:href="#h"/>
  <use x="109.527344" y="587.375" xlink:href="#b"/>
  <use x="113.890625" y="587.375" xlink:href="#a"/>
  <use x="120.078125" y="587.375" xlink:href="#g"/>
  <use x="125.488281" y="587.375" xlink:href="#f"/>
  <use x="13.769531" y="596.5" xlink:href="#r"/>
  <use x="17.738281" y="596.5" xlink:href="#c"/>
  <use x="22.242188" y="596.5" xlink:href="#d"/>
  <use x="28.507813" y="596.5" xlink:href="#i"/>
  <use x="41.195313" y="596.5" xlink:href="#b"/>
  <use x="45.558594" y="596.5" xlink:href="#f"/>
  <use x="52.054688" y="596.5" xlink:href="#a"/>
  <use x="61.417969" y="596.5" xlink:href="#q"/>
  <use x="69.054688" y="596.5" xlink:href="#d"/>
  <use x="75.324219" y="596.5" xlink:href="#j"/>
  <use x="81.820312" y="596.5" xlink:href="#h"/>
  <use x="91.496094" y="596.5" xlink:href="#p"/>
  <use x="98.183594" y="596.5" xlink:href="#c"/>
  <use x="102.683594" y="596.5" xlink:href="#d"/>
  <use x="108.953125" y="596.5" xlink:href="#o"/>
  <use x="112.082031" y="596.5" xlink:href="#a"/>
  <use x="118.269531" y="596.5" xlink:href="#g"/>
  <use x="123.679688" y="596.5" xlink:href="#b"/>
 </g>
</svg>
