<?xml version="1.0" encoding="UTF-8"?>
<svg width="700pt" height="700pt" version="1.1" viewBox="0 0 700 700" xmlns="http://www.w3.org/2000/svg" xmlns:xlink="http://www.w3.org/1999/xlink">
 <defs>
  <symbol id="v" overflow="visible">
   <path d="m3.7188-0.21875c-0.1875 0.09375-0.38672 0.16797-0.59375 0.21875-0.21094 0.050781-0.42969 0.078125-0.65625 0.078125-0.66797 0-1.1992-0.1875-1.5938-0.5625-0.39844-0.375-0.59375-0.89062-0.59375-1.5469 0-0.64453 0.19531-1.1562 0.59375-1.5312 0.39453-0.375 0.92578-0.5625 1.5938-0.5625 0.22656 0 0.44531 0.027344 0.65625 0.078125 0.20703 0.054687 0.40625 0.125 0.59375 0.21875v0.84375c-0.1875-0.13281-0.375-0.23438-0.5625-0.29688s-0.38672-0.09375-0.59375-0.09375c-0.375 0-0.67188 0.12109-0.89062 0.35938-0.21094 0.24219-0.3125 0.57031-0.3125 0.98438 0 0.42969 0.10156 0.76172 0.3125 1 0.21875 0.24219 0.51562 0.35938 0.89062 0.35938 0.20703 0 0.40625-0.03125 0.59375-0.09375s0.375-0.16016 0.5625-0.29688z"/>
  </symbol>
  <symbol id="d" overflow="visible">
   <path d="m2.7344-2.2188c-0.09375-0.03125-0.18359-0.054688-0.26562-0.078125-0.085938-0.019531-0.16797-0.03125-0.25-0.03125-0.25 0-0.44531 0.085937-0.57812 0.25-0.13672 0.15625-0.20312 0.38281-0.20312 0.67188v1.4062h-0.96875v-3.0469h0.96875v0.5c0.125-0.19531 0.26562-0.33594 0.42188-0.42188 0.16406-0.09375 0.36328-0.14062 0.59375-0.14062h0.09375c0.039063 0 0.097656 0.007813 0.17188 0.015625z"/>
  </symbol>
  <symbol id="b" overflow="visible">
   <path d="m3.5-1.5312v0.28125h-2.2656c0.019531 0.23047 0.097656 0.40234 0.23438 0.51562 0.14453 0.11719 0.34375 0.17188 0.59375 0.17188 0.20703 0 0.41406-0.03125 0.625-0.09375 0.21875-0.0625 0.44141-0.15625 0.67188-0.28125v0.75c-0.23047 0.09375-0.46094 0.16406-0.6875 0.20312-0.23047 0.039062-0.46094 0.0625-0.6875 0.0625-0.55469 0-0.98438-0.14062-1.2969-0.42188-0.30469-0.28125-0.45312-0.67188-0.45312-1.1719s0.14844-0.89062 0.45312-1.1719c0.30078-0.28125 0.71094-0.42188 1.2344-0.42188 0.47656 0 0.85938 0.14844 1.1406 0.4375 0.28906 0.28125 0.4375 0.66406 0.4375 1.1406zm-1-0.32812c0-0.17578-0.054688-0.32031-0.15625-0.4375-0.10547-0.11328-0.24609-0.17188-0.42188-0.17188-0.1875 0-0.34375 0.054688-0.46875 0.15625-0.11719 0.10547-0.1875 0.25781-0.21875 0.45312z"/>
  </symbol>
  <symbol id="l" overflow="visible">
   <path d="m1.8281-1.375c-0.19922 0-0.35156 0.039062-0.45312 0.10938-0.10547 0.074219-0.15625 0.17188-0.15625 0.29688s0.039062 0.22656 0.125 0.29688c0.082031 0.074219 0.19531 0.10938 0.34375 0.10938 0.1875 0 0.33594-0.066406 0.45312-0.20312 0.125-0.13281 0.1875-0.29688 0.1875-0.48438v-0.125zm1.4844-0.35938v1.7344h-0.98438v-0.45312c-0.125 0.1875-0.27344 0.32422-0.4375 0.40625-0.15625 0.082031-0.35547 0.125-0.59375 0.125-0.3125 0-0.57031-0.085938-0.76562-0.26562-0.19922-0.1875-0.29688-0.42578-0.29688-0.71875 0-0.36328 0.11719-0.62891 0.35938-0.79688 0.25-0.16406 0.64062-0.25 1.1719-0.25h0.5625v-0.078125c0-0.14453-0.0625-0.25391-0.1875-0.32812-0.11719-0.070313-0.29688-0.10938-0.54688-0.10938-0.21094 0-0.40625 0.023438-0.59375 0.0625-0.17969 0.042969-0.34375 0.10547-0.5 0.1875v-0.73438c0.20703-0.050781 0.41406-0.085937 0.625-0.10938 0.21875-0.03125 0.42969-0.046875 0.64062-0.046875 0.53906 0 0.92969 0.10938 1.1719 0.32812 0.25 0.21094 0.375 0.55859 0.375 1.0469z"/>
  </symbol>
  <symbol id="a" overflow="visible">
   <path d="m1.5312-3.9062v0.85938h1v0.70312h-1v1.2812c0 0.14844 0.023438 0.24609 0.078125 0.29688 0.0625 0.042969 0.17578 0.0625 0.34375 0.0625h0.5v0.70312h-0.84375c-0.38672 0-0.65625-0.078125-0.8125-0.23438-0.15625-0.16406-0.23438-0.44141-0.23438-0.82812v-1.2812h-0.48438v-0.70312h0.48438v-0.85938z"/>
  </symbol>
  <symbol id="f" overflow="visible">
   <path d="m2.5312-2.5938v-1.625h0.98438v4.2188h-0.98438v-0.4375c-0.13672 0.17969-0.28125 0.30859-0.4375 0.39062-0.15625 0.082031-0.34375 0.125-0.5625 0.125-0.375 0-0.68359-0.14453-0.92188-0.4375-0.24219-0.30078-0.35938-0.6875-0.35938-1.1562s0.11719-0.84766 0.35938-1.1406c0.23828-0.30078 0.54688-0.45312 0.92188-0.45312 0.20703 0 0.39062 0.042969 0.54688 0.125 0.16406 0.085937 0.31641 0.21484 0.45312 0.39062zm-0.64062 1.9688c0.20703 0 0.36328-0.070312 0.46875-0.21875 0.11328-0.15625 0.17188-0.37891 0.17188-0.67188 0-0.28906-0.058594-0.50781-0.17188-0.65625-0.10547-0.15625-0.26172-0.23438-0.46875-0.23438-0.19922 0-0.35547 0.078125-0.46875 0.23438-0.11719 0.14844-0.17188 0.36719-0.17188 0.65625 0 0.29297 0.054688 0.51562 0.17188 0.67188 0.11328 0.14844 0.26953 0.21875 0.46875 0.21875z"/>
  </symbol>
  <symbol id="k" overflow="visible">
   <path d="m2.0938-0.625c0.19531 0 0.35156-0.070312 0.46875-0.21875 0.11328-0.15625 0.17188-0.37891 0.17188-0.67188 0-0.28906-0.058594-0.50781-0.17188-0.65625-0.11719-0.15625-0.27344-0.23438-0.46875-0.23438-0.21094 0-0.37109 0.078125-0.48438 0.23438-0.11719 0.14844-0.17188 0.36719-0.17188 0.65625 0 0.28125 0.054688 0.5 0.17188 0.65625 0.11328 0.15625 0.27344 0.23438 0.48438 0.23438zm-0.65625-1.9688c0.13281-0.17578 0.28125-0.30469 0.4375-0.39062 0.16406-0.082031 0.35938-0.125 0.57812-0.125 0.375 0 0.67969 0.15234 0.92188 0.45312 0.23828 0.29297 0.35938 0.67188 0.35938 1.1406s-0.12109 0.85547-0.35938 1.1562c-0.24219 0.29297-0.54688 0.4375-0.92188 0.4375-0.21875 0-0.41406-0.042969-0.57812-0.125-0.15625-0.082031-0.30469-0.21094-0.4375-0.39062v0.4375h-0.96875v-4.2188h0.96875z"/>
  </symbol>
  <symbol id="e" overflow="visible">
   <path d="m0.0625-3.0469h0.98438l0.8125 2.0625 0.6875-2.0625h0.98438l-1.2812 3.3281c-0.13672 0.34375-0.28906 0.58203-0.45312 0.71875-0.16797 0.13281-0.39062 0.20312-0.67188 0.20312h-0.5625v-0.64062h0.29688c0.16406 0 0.28516-0.027344 0.35938-0.078125 0.070312-0.054687 0.12891-0.14844 0.17188-0.28125l0.03125-0.09375z"/>
  </symbol>
  <symbol id="j" overflow="visible">
   <path d="m2.9688-0.73438h-1.625l-0.26562 0.73438h-1.0469l1.5-4.0625h1.25l1.5 4.0625h-1.0469zm-1.375-0.75h1.1094l-0.54688-1.625z"/>
  </symbol>
  <symbol id="i" overflow="visible">
   <path d="m3.2812-2.5312c0.125-0.1875 0.26953-0.32812 0.4375-0.42188 0.17578-0.10156 0.36328-0.15625 0.5625-0.15625 0.35156 0 0.61719 0.10938 0.79688 0.32812 0.1875 0.21094 0.28125 0.51562 0.28125 0.92188v1.8594h-0.98438v-1.5938-0.0625c0.007812-0.03125 0.015625-0.066406 0.015625-0.10938 0-0.21875-0.039063-0.375-0.10938-0.46875-0.0625-0.09375-0.16406-0.14062-0.29688-0.14062-0.1875 0-0.33594 0.078125-0.4375 0.23438-0.09375 0.14844-0.14844 0.35938-0.15625 0.64062v1.5h-0.96875v-1.5938c0-0.33203-0.03125-0.54688-0.09375-0.64062-0.054687-0.09375-0.15234-0.14062-0.29688-0.14062-0.1875 0-0.33594 0.078125-0.4375 0.23438-0.10547 0.14844-0.15625 0.35938-0.15625 0.64062v1.5h-0.96875v-3.0469h0.96875v0.45312c0.125-0.17578 0.25781-0.30469 0.40625-0.39062 0.15625-0.082031 0.32812-0.125 0.51562-0.125 0.20703 0 0.39062 0.054687 0.54688 0.15625 0.16406 0.09375 0.28906 0.23438 0.375 0.42188z"/>
  </symbol>
  <symbol id="h" overflow="visible">
   <path d="m3.5312-1.8594v1.8594h-0.98438v-1.4062c0-0.26953-0.007813-0.45312-0.015625-0.54688-0.011719-0.10156-0.03125-0.17969-0.0625-0.23438-0.042969-0.0625-0.09375-0.10938-0.15625-0.14062s-0.13672-0.046875-0.21875-0.046875c-0.21094 0-0.37109 0.078125-0.48438 0.23438-0.11719 0.15625-0.17188 0.37109-0.17188 0.64062v1.5h-0.96875v-4.2188h0.96875v1.625c0.14453-0.17578 0.30078-0.30469 0.46875-0.39062 0.16406-0.082031 0.34766-0.125 0.54688-0.125 0.35156 0 0.61719 0.10938 0.79688 0.32812 0.1875 0.21094 0.28125 0.51562 0.28125 0.92188z"/>
  </symbol>
  <symbol id="u" overflow="visible">
   <path d="m2.8438-2.9531v0.75c-0.21094-0.09375-0.41406-0.16016-0.60938-0.20312-0.1875-0.039062-0.37109-0.0625-0.54688-0.0625-0.17969 0-0.3125 0.027344-0.40625 0.078125-0.09375 0.042969-0.14062 0.10938-0.14062 0.20312 0 0.085938 0.03125 0.14844 0.09375 0.1875 0.070313 0.042969 0.19531 0.070312 0.375 0.078125l0.17188 0.03125c0.5 0.0625 0.83203 0.16797 1 0.3125 0.17578 0.14844 0.26562 0.375 0.26562 0.6875 0 0.32422-0.12109 0.57031-0.35938 0.73438-0.24219 0.15625-0.59375 0.23438-1.0625 0.23438-0.21094 0-0.42188-0.015625-0.64062-0.046875-0.21094-0.03125-0.42969-0.078125-0.65625-0.14062v-0.73438c0.19531 0.09375 0.39453 0.16797 0.59375 0.21875 0.20703 0.042969 0.41406 0.0625 0.625 0.0625 0.19531 0 0.34375-0.023438 0.4375-0.078125 0.09375-0.050781 0.14062-0.12891 0.14062-0.23438 0-0.09375-0.039062-0.16016-0.10938-0.20312-0.0625-0.039063-0.19531-0.070313-0.39062-0.09375l-0.17188-0.015625c-0.42969-0.0625-0.73047-0.16406-0.90625-0.3125-0.17969-0.14453-0.26562-0.36719-0.26562-0.67188 0-0.3125 0.10938-0.54688 0.32812-0.70312 0.22656-0.15625 0.57031-0.23438 1.0312-0.23438 0.17578 0 0.36328 0.015625 0.5625 0.046875 0.19531 0.023438 0.41016 0.058594 0.64062 0.10938z"/>
  </symbol>
  <symbol id="t" overflow="visible">
   <path d="m3.3281-3.9219v0.85938c-0.21875-0.10156-0.4375-0.17969-0.65625-0.23438-0.21094-0.050781-0.40625-0.078125-0.59375-0.078125-0.25 0-0.4375 0.039062-0.5625 0.10938-0.11719 0.0625-0.17188 0.16797-0.17188 0.3125 0 0.11719 0.039062 0.20312 0.125 0.26562 0.082031 0.054688 0.22656 0.10547 0.4375 0.15625l0.45312 0.078125c0.44531 0.09375 0.76562 0.23438 0.95312 0.42188s0.28125 0.44922 0.28125 0.78125c0 0.44922-0.13672 0.78125-0.40625 1-0.26172 0.21875-0.66406 0.32812-1.2031 0.32812-0.26172 0-0.52344-0.027344-0.78125-0.078125-0.25-0.039062-0.50781-0.11328-0.76562-0.21875v-0.875c0.25781 0.13672 0.50781 0.24219 0.75 0.3125 0.23828 0.074219 0.47266 0.10938 0.70312 0.10938 0.22656 0 0.39844-0.035156 0.51562-0.10938 0.125-0.082031 0.1875-0.19531 0.1875-0.34375 0-0.125-0.042969-0.21875-0.125-0.28125-0.085938-0.070312-0.25-0.13281-0.5-0.1875l-0.40625-0.09375c-0.39844-0.082031-0.6875-0.21875-0.875-0.40625-0.1875-0.19531-0.28125-0.45703-0.28125-0.78125 0-0.40625 0.12891-0.71094 0.39062-0.92188 0.25781-0.21875 0.63281-0.32812 1.125-0.32812 0.21875 0 0.44141 0.015625 0.67188 0.046875 0.23828 0.03125 0.48438 0.085937 0.73438 0.15625z"/>
  </symbol>
  <symbol id="g" overflow="visible">
   <path d="m0.4375-1.1875v-1.8594h0.96875v0.3125 0.625 0.48438c0 0.25 0.003906 0.43359 0.015625 0.54688 0.007813 0.10547 0.03125 0.17969 0.0625 0.21875 0.039063 0.0625 0.09375 0.11719 0.15625 0.15625 0.070313 0.03125 0.14844 0.046875 0.23438 0.046875 0.19531 0 0.35156-0.078125 0.46875-0.23438 0.11328-0.15625 0.17188-0.375 0.17188-0.65625v-1.5h0.98438v3.0469h-0.98438v-0.4375c-0.14844 0.17969-0.30469 0.30859-0.46875 0.39062-0.15625 0.082031-0.33594 0.125-0.53125 0.125-0.35547 0-0.625-0.10156-0.8125-0.3125-0.17969-0.21875-0.26562-0.53516-0.26562-0.95312z"/>
  </symbol>
  <symbol id="s" overflow="visible">
   <path d="m0.46875-3.0469h0.96875v3.0469h-0.96875zm0-1.1719h0.96875v0.78125h-0.96875z"/>
  </symbol>
  <symbol id="c" overflow="visible">
   <path d="m1.9219-2.4219c-0.21875 0-0.38672 0.078125-0.5 0.23438-0.11719 0.15625-0.17188 0.38281-0.17188 0.67188 0 0.29297 0.054688 0.51562 0.17188 0.67188 0.11328 0.15625 0.28125 0.23438 0.5 0.23438 0.20703 0 0.36328-0.078125 0.46875-0.23438 0.11328-0.15625 0.17188-0.37891 0.17188-0.67188 0-0.28906-0.058594-0.51562-0.17188-0.67188-0.10547-0.15625-0.26172-0.23438-0.46875-0.23438zm0-0.6875c0.51953 0 0.92578 0.14062 1.2188 0.42188 0.28906 0.28125 0.4375 0.67188 0.4375 1.1719s-0.14844 0.89062-0.4375 1.1719c-0.29297 0.28125-0.69922 0.42188-1.2188 0.42188-0.53125 0-0.94922-0.14062-1.25-0.42188-0.29297-0.28125-0.4375-0.67188-0.4375-1.1719s0.14453-0.89062 0.4375-1.1719c0.30078-0.28125 0.71875-0.42188 1.25-0.42188z"/>
  </symbol>
  <symbol id="r" overflow="visible">
   <path d="m2.4688-4.2188v0.625h-0.53125c-0.14844 0-0.24609 0.027344-0.29688 0.078125-0.054687 0.054687-0.078125 0.14062-0.078125 0.26562v0.20312h0.82812v0.70312h-0.82812v2.3438h-0.96875v-2.3438h-0.48438v-0.70312h0.48438v-0.20312c0-0.33203 0.085938-0.57812 0.26562-0.73438 0.1875-0.15625 0.47266-0.23438 0.85938-0.23438z"/>
  </symbol>
  <symbol id="q" overflow="visible">
   <path d="m0.51562-4.0625h1.1562l1.4844 2.7812v-2.7812h0.98438v4.0625h-1.1562l-1.4844-2.7812v2.7812h-0.98438z"/>
  </symbol>
  <symbol id="p" overflow="visible">
   <path d="m3.5312-1.8594v1.8594h-0.98438v-1.4219c0-0.25781-0.007813-0.4375-0.015625-0.53125-0.011719-0.10156-0.03125-0.17969-0.0625-0.23438-0.042969-0.0625-0.09375-0.10938-0.15625-0.14062s-0.13672-0.046875-0.21875-0.046875c-0.21094 0-0.37109 0.078125-0.48438 0.23438-0.11719 0.15625-0.17188 0.37109-0.17188 0.64062v1.5h-0.96875v-3.0469h0.96875v0.45312c0.14453-0.17578 0.30078-0.30469 0.46875-0.39062 0.16406-0.082031 0.34766-0.125 0.54688-0.125 0.35156 0 0.61719 0.10938 0.79688 0.32812 0.1875 0.21094 0.28125 0.51562 0.28125 0.92188z"/>
  </symbol>
  <symbol id="o" overflow="visible">
   <path d="m0.51562-4.0625h1.7344c0.50781 0 0.89844 0.11719 1.1719 0.34375 0.28125 0.23047 0.42188 0.55859 0.42188 0.98438 0 0.42969-0.14062 0.75781-0.42188 0.98438-0.27344 0.23047-0.66406 0.34375-1.1719 0.34375h-0.6875v1.4062h-1.0469zm1.0469 0.76562v1.125h0.57812c0.19531 0 0.34766-0.046875 0.45312-0.14062 0.11328-0.09375 0.17188-0.23438 0.17188-0.42188 0-0.17578-0.058594-0.3125-0.17188-0.40625-0.10547-0.10156-0.25781-0.15625-0.45312-0.15625z"/>
  </symbol>
  <symbol id="n" overflow="visible">
   <path d="m0.46875-3.0469h0.96875v3c0 0.40625-0.10156 0.71094-0.29688 0.92188-0.1875 0.21875-0.46875 0.32812-0.84375 0.32812h-0.48438v-0.64062h0.17188c0.1875 0 0.3125-0.042969 0.375-0.125 0.070313-0.085938 0.10938-0.24609 0.10938-0.48438zm0-1.1719h0.96875v0.78125h-0.96875z"/>
  </symbol>
  <symbol id="m" overflow="visible">
   <path d="m2.9219-2.9531v0.79688c-0.125-0.09375-0.25781-0.16016-0.39062-0.20312-0.13672-0.039063-0.27734-0.0625-0.42188-0.0625-0.27344 0-0.48438 0.085937-0.64062 0.25-0.14844 0.15625-0.21875 0.375-0.21875 0.65625s0.070312 0.50781 0.21875 0.67188c0.15625 0.15625 0.36719 0.23438 0.64062 0.23438 0.15625 0 0.30078-0.019531 0.4375-0.0625 0.13281-0.050781 0.25781-0.125 0.375-0.21875v0.79688c-0.14844 0.0625-0.29688 0.10156-0.45312 0.125-0.15625 0.03125-0.32031 0.046875-0.48438 0.046875-0.54297 0-0.96875-0.14062-1.2812-0.42188s-0.46875-0.67188-0.46875-1.1719 0.15625-0.89062 0.46875-1.1719 0.73828-0.42188 1.2812-0.42188c0.16406 0 0.32031 0.015625 0.46875 0.046875 0.15625 0.023438 0.3125 0.058594 0.46875 0.10938z"/>
  </symbol>
 </defs>
 <g>
  <path d="m620.69 491.19-41.719-52.309c4.5742-3.8555 7.0312-9.8711 6.2305-16.105-1.043-8.1484-7.4023-14.539-15.461-15.539-9.4766-1.1758-23.977-4.5234-39.215-13.789-15.18-9.2305-39.547-42.262-59.125-68.809-14.137-19.164-26.348-35.719-33.949-42.211-9.0703-7.7461-17.855-11.035-26.352-14.219-9.2461-3.4609-17.98-6.7344-27.535-15.625-9.4844-8.8242-12.613-19.895-15.641-30.598-0.81641-2.8867-1.625-5.7266-2.5352-8.4766l9.8398-8.5469c9.625-8.3594 10.91-22.719 2.9297-32.688-6.8945-8.6055-18.586-11.219-28.434-6.3477l-36.699 18.148c-4.0234-12.398-17.113-44.965-53.105-84.934-44.641-49.57-115.44-87.539-184.77-99.082-1.9922-0.33594-3.9492 0.71875-4.7812 2.5508-0.82813 1.8359-0.32031 4.0039 1.2383 5.2734 18.73 15.281 35.812 51.141 55.594 92.66 10.707 22.473 21.777 45.711 34.461 68.656 2.8125 5.082 7.8945 8.5586 13.59 9.3008 14.625 1.9062 25.062 5.8555 27.918 10.566 1.8906 3.1172 0.41406 7.2812-4.3789 12.387-6.0664 6.4609-6.5156 16.656-1.043 23.715 15.371 19.832 31.055 35.16 47.887 46.816 2.3789 13.535 12.309 30.938 27.68 39.691 3.1328 1.7852 6.3711 2.793 9.8008 3.5 23.629 36.219 60.004 70.008 111.11 103.21 3.1016 6.3359 6.9609 12.809 12.379 19.469 18.078 22.219 107.3 81.828 158.87 115.38 6.9844 4.543 14.848 6.7539 22.648 6.7539 11.367 0 22.605-4.6914 30.793-13.695 14.125-15.52 14.867-38.695 1.7773-55.113zm-14.227-3.5781-2.0586 1.6172c-6.082 4.7812-8.5078 12.938-6.0469 20.301 0.98438 2.9414-0.14062 6.1445-2.7305 7.7852-1.457 0.92578-3.1836 1.2227-4.8633 0.83984-1.6953-0.38672-3.1445-1.4258-4.0781-2.9219l-20.746-33.309c0.58594-0.69922 1.1367-1.4648 1.6523-2.3047 3.1953-5.2266 3.0391-12.781-0.46875-22.449-1.8398-5.0703-0.027344-10.672 4.0742-13.77zm-252.8-313.71c6.0781-3.0039 13.297-1.3828 17.559 3.9375 4.9883 6.2305 4.1914 15.199-1.8203 20.422l-7.5703 6.5742c-1.7617-3.4102-3.9648-6.5547-6.9258-9.3086-5.3359-4.9648-14.574-8.2461-25.875-9.4453zm-38.402 20.629c1.3125-0.054687 2.6094-0.082031 3.8906-0.082031 0.71875 0 1.4336 0.011719 2.1406 0.027344 2.8672 2.3711 11.02 9.9219 9.2344 17.883-1.6484 7.3516-10.457 10.125-14.383 11.008-9.1211-8.2344-17.719-16.453-25.273-24.367 7.1289-2.5156 15.508-4.0977 24.391-4.4688zm-46.625 21.328c1.543-2.2656 3.2188-4.4336 5.0508-6.4492 2.2148-2.4336 5.1367-4.6328 8.582-6.5586 30.668 32.754 79.871 70.965 109.57 94.031 9.0977 7.0625 16.281 12.645 20.594 16.242 15.52 12.953 33.57 37.531 34.5 51.039 0.16797 2.4414-0.27344 4.2578-1.3086 5.3945-1.1758 1.2891-3.1953 1.9453-6.0078 1.9492h-0.023438c-13.652 0-38.461-15.117-49.914-27.645-3.0625-3.3516-8.0234-9.1445-14.301-16.48-24.258-28.336-68.848-80.43-106.75-111.52zm21.547 39.535c0.097656 2.3047-0.74609 4.457-2.3711 6.0625-1.582 1.5625-3.6641 2.3516-5.8711 2.2383-3.6172-0.19922-6.6094-2.8672-7.2773-6.4961l-5.3438-29.133c6.7148 5.8008 13.598 12.176 20.508 18.895zm-202.48-243.88c62.832 13.695 125.25 48.754 165.61 93.574 34.48 38.289 47.289 69.91 51.156 81.527-2.8828 0.41406-5.6836 0.94531-8.3867 1.5898-16.629-34.164-38.914-64.32-66.312-89.652-36.605-33.848-80.59-57.848-130.74-71.391-3.7344-5.8242-7.5-11.082-11.332-15.648zm18.086 26.816c44.992 13.531 84.633 35.941 117.95 66.746 26.23 24.254 47.641 53.074 63.715 85.699-6.75 2.4414-12.566 5.668-17.086 9.5352l-153.54-142.89c-3.5391-6.9297-7.5273-12.977-11.035-19.094zm139.36 222.32c-14.004-10.59-27.277-24.047-40.363-40.93-2.8203-3.6406-2.6094-8.8789 0.49609-12.184 10.309-10.977 7.8711-19.172 5.5-23.082-5.6055-9.2383-21.785-13.133-34.371-14.773-2.9102-0.37891-5.5117-2.168-6.9609-4.7891-12.555-22.711-23.566-45.828-34.215-68.18-2.9336-6.1602-5.8125-12.195-8.6484-18.07l137.7 128.14c-13.047 16.488-18.328 39.137-19.133 53.867zm49.902 56.273c13.578 1.8398 30.492 5.5234 55.496 28.793 23.398 21.777 30.039 38.945 36.461 55.555 0.28516 0.73047 0.56641 1.4648 0.85156 2.1992-41.172-28.051-71.695-56.52-92.809-86.547zm118.46 115.32c-9.5039-11.684-13.73-22.613-18.207-34.184-6.4688-16.727-13.801-35.684-38.699-58.852-29.176-27.152-49.156-29.684-63.75-31.535-6.168-0.78125-11.039-1.3984-15.129-3.7266-13.457-7.6602-22.191-23.793-23.578-35.078-0.91406-7.457 0.70312-23.062 6.6523-38.031l5.1289 27.957c1.4102 7.6836 7.7969 13.344 15.531 13.77 0.30078 0.015625 0.60156 0.023437 0.89844 0.023437 4.3555 0 8.5781-1.7266 11.703-4.8125 3.1211-3.082 4.8945-7.2852 4.9961-11.664 26.848 27.137 53 57.684 69.578 77.055 6.3281 7.3945 11.328 13.238 14.492 16.695 13.188 14.422 40.129 30.535 56.477 30.535h0.03125c5.418-0.007812 9.6484-1.6406 12.57-4.8594 2.7305-3 3.9414-7.0352 3.6016-11.988-1.2305-17.867-22.668-44.73-37.672-57.254-4.4336-3.6992-11.676-9.3203-20.84-16.438-19.629-15.242-47.832-37.148-73.406-59.598 6.0078-2.3555 13.297-7.0039 15.305-15.961 1.6016-7.1367-1.0664-13.516-4.4648-18.367 6.2227 1.2969 11.219 3.3867 14.125 6.0898 5.6797 5.2891 7.9219 13.211 10.516 22.383 3.2031 11.324 6.832 24.164 18.137 34.684 10.844 10.09 20.824 13.828 30.473 17.441 8.1328 3.0469 15.816 5.9258 23.699 12.652 6.8281 5.832 19.332 22.781 32.57 40.727 21.086 28.586 44.984 60.988 61.66 71.125 16.586 10.086 32.395 13.73 42.738 15.016 4.0273 0.5 7.2109 3.7266 7.7383 7.8477 0.53516 4.1758-1.7891 8.1523-5.6562 9.668-10.434 4.0938-15.797 16.035-11.957 26.625 2.4688 6.8047 2.9102 12.055 1.2422 14.781-2.8711 4.6914-8.5938 5.0977-12.402 4.7656 0.11719-5.4141-2.043-10.84-6.3789-14.672l-36.797-32.48c-3.7734-3.332-8.6133-4.9766-13.605-4.6406-5.0117 0.33984-9.5859 2.6328-12.887 6.457-6.7695 7.8477-5.9648 19.801 1.7969 26.652l13.406 11.832-19.785 7.4102c-27.777-19.734-51.812-38.164-59.852-48.051zm122.8 53.672c-1.7344 2.0117-4.1328 3.2148-6.7578 3.3945-2.6055 0.17188-5.1445-0.68359-7.1211-2.4336l-36.797-32.48c-4.1289-3.6406-4.5547-10.004-0.94922-14.184 1.7344-2.0117 4.1328-3.2148 6.7578-3.3945 0.22266-0.015625 0.44922-0.023437 0.67187-0.023437 2.375 0 4.6445 0.85937 6.4531 2.457l36.797 32.48c4.125 3.6445 4.5469 10.004 0.94531 14.184zm76.043 54.398c-10.863 11.941-28.535 14.242-42.02 5.4727-20.816-13.543-56.078-36.773-88.18-59.285l18.551-6.9492 15.844 13.984c3.4492 3.043 7.7812 4.6797 12.32 4.6797 0.42969 0 0.85938-0.015624 1.2891-0.042968 5.0117-0.33984 9.5859-2.6328 12.883-6.4531 0.89062-1.0312 1.6406-2.1406 2.2734-3.293 3.4258 0.45703 8.5742 0.60938 13.414-1.3125l20.434 32.809c2.1953 3.5234 5.6211 5.9688 9.6445 6.8867 1.1406 0.26172 2.2891 0.39063 3.4336 0.39063 2.8633 0 5.6797-0.8125 8.1641-2.3867 6.0508-3.832 8.6836-11.281 6.4023-18.113-1.2734-3.8125-0.023438-8.0312 3.1094-10.496l2.1094-1.6562 1.7344 2.1758c10.18 12.777 9.582 31.516-1.4062 43.59zm-116.55-126-27.637 6.8828c-0.35938 0.089844-0.72266 0.13281-1.0781 0.13281-1.9922 0-3.8047-1.3516-4.3086-3.3711-0.59375-2.3828 0.85547-4.793 3.2383-5.3867l27.637-6.8828c2.3828-0.58984 4.793 0.85938 5.3867 3.2383 0.58984 2.3828-0.85938 4.793-3.2383 5.3867zm-19.656-18.293-27.637 6.8828c-0.35938 0.089844-0.72266 0.13281-1.0781 0.13281-1.9922 0-3.8047-1.3516-4.3086-3.3711-0.59375-2.3828 0.85547-4.793 3.2383-5.3867l27.637-6.8828c2.3828-0.58594 4.793 0.85547 5.3867 3.2383 0.59375 2.3828-0.85938 4.7969-3.2383 5.3867z"/>
  <use x="69.972656" y="576.664062" xlink:href="#v"/>
  <use x="74.050781" y="576.664062" xlink:href="#d"/>
  <use x="76.789062" y="576.664062" xlink:href="#b"/>
  <use x="80.558594" y="576.664062" xlink:href="#l"/>
  <use x="84.304688" y="576.664062" xlink:href="#a"/>
  <use x="86.960938" y="576.664062" xlink:href="#b"/>
  <use x="90.730469" y="576.664062" xlink:href="#f"/>
  <use x="96.640625" y="576.664062" xlink:href="#k"/>
  <use x="100.617188" y="576.664062" xlink:href="#e"/>
  <use x="106.171875" y="576.664062" xlink:href="#j"/>
  <use x="110.472656" y="576.664062" xlink:href="#i"/>
  <use x="116.257813" y="576.664062" xlink:href="#b"/>
  <use x="120.027344" y="576.664062" xlink:href="#a"/>
  <use x="122.683594" y="576.664062" xlink:href="#h"/>
  <use x="126.636719" y="576.664062" xlink:href="#e"/>
  <use x="130.257812" y="576.664062" xlink:href="#u"/>
  <use x="133.566406" y="576.664062" xlink:href="#a"/>
  <use x="138.15625" y="576.664062" xlink:href="#t"/>
  <use x="142.15625" y="576.664062" xlink:href="#a"/>
  <use x="144.8125" y="576.664062" xlink:href="#g"/>
  <use x="148.765625" y="576.664062" xlink:href="#f"/>
  <use x="152.742188" y="576.664062" xlink:href="#s"/>
  <use x="154.648438" y="576.664062" xlink:href="#c"/>
  <use x="69.972656" y="582.222656" xlink:href="#r"/>
  <use x="72.390625" y="582.222656" xlink:href="#d"/>
  <use x="75.128906" y="582.222656" xlink:href="#c"/>
  <use x="78.945313" y="582.222656" xlink:href="#i"/>
  <use x="86.667969" y="582.222656" xlink:href="#a"/>
  <use x="89.324219" y="582.222656" xlink:href="#h"/>
  <use x="93.277344" y="582.222656" xlink:href="#b"/>
  <use x="98.980469" y="582.222656" xlink:href="#q"/>
  <use x="103.628906" y="582.222656" xlink:href="#c"/>
  <use x="107.445312" y="582.222656" xlink:href="#g"/>
  <use x="111.402344" y="582.222656" xlink:href="#p"/>
  <use x="117.289063" y="582.222656" xlink:href="#o"/>
  <use x="121.363281" y="582.222656" xlink:href="#d"/>
  <use x="124.101562" y="582.222656" xlink:href="#c"/>
  <use x="127.917969" y="582.222656" xlink:href="#n"/>
  <use x="129.824219" y="582.222656" xlink:href="#b"/>
  <use x="133.589844" y="582.222656" xlink:href="#m"/>
  <use x="136.882812" y="582.222656" xlink:href="#a"/>
 </g>
</svg>
