<?xml version="1.0" encoding="UTF-8"?>
<svg width="700pt" height="700pt" version="1.1" viewBox="0 0 700 700" xmlns="http://www.w3.org/2000/svg" xmlns:xlink="http://www.w3.org/1999/xlink">
 <defs>
  <symbol id="v" overflow="visible">
   <path d="m14.891-0.89062c-0.77344 0.39844-1.5742 0.69531-2.4062 0.89062-0.83594 0.20703-1.6992 0.3125-2.5938 0.3125-2.6992 0-4.8398-0.75-6.4219-2.25-1.5742-1.5078-2.3594-3.5547-2.3594-6.1406 0-2.5938 0.78516-4.6406 2.3594-6.1406 1.582-1.5078 3.7227-2.2656 6.4219-2.2656 0.89453 0 1.7578 0.10156 2.5938 0.29688 0.83203 0.19922 1.6328 0.5 2.4062 0.90625v3.3438c-0.78125-0.51953-1.5469-0.90625-2.2969-1.1562s-1.543-0.375-2.375-0.375c-1.4922 0-2.6641 0.48047-3.5156 1.4375-0.85547 0.96094-1.2812 2.2773-1.2812 3.9531 0 1.668 0.42578 2.9805 1.2812 3.9375 0.85156 0.94922 2.0234 1.4219 3.5156 1.4219 0.83203 0 1.625-0.11719 2.375-0.35938 0.75-0.25 1.5156-0.63281 2.2969-1.1562z"/>
  </symbol>
  <symbol id="d" overflow="visible">
   <path d="m10.891-8.8438c-0.34375-0.15625-0.68359-0.26953-1.0156-0.34375-0.33594-0.082031-0.67188-0.125-1.0156-0.125-1 0-1.7734 0.32422-2.3125 0.96875-0.53125 0.63672-0.79688 1.5547-0.79688 2.75v5.5938h-3.8906v-12.156h3.8906v2c0.5-0.78906 1.0703-1.3672 1.7188-1.7344 0.64453-0.36328 1.4219-0.54688 2.3281-0.54688 0.125 0 0.26562 0.007812 0.42188 0.015625 0.15625 0.011719 0.375 0.03125 0.65625 0.0625z"/>
  </symbol>
  <symbol id="b" overflow="visible">
   <path d="m14-6.1094v1.1094h-9.0781c0.09375 0.90625 0.42188 1.5898 0.98438 2.0469 0.5625 0.46094 1.3477 0.6875 2.3594 0.6875 0.82031 0 1.6602-0.11719 2.5156-0.35938 0.85156-0.25 1.7344-0.61719 2.6406-1.1094v3c-0.91797 0.34375-1.8398 0.60547-2.7656 0.78125-0.91797 0.17578-1.8359 0.26562-2.75 0.26562-2.1992 0-3.9062-0.55469-5.125-1.6719-1.2188-1.1133-1.8281-2.6797-1.8281-4.7031 0-1.9766 0.59766-3.5352 1.7969-4.6719 1.1953-1.1328 2.8438-1.7031 4.9375-1.7031 1.9141 0 3.4453 0.57422 4.5938 1.7188 1.1445 1.1484 1.7188 2.6836 1.7188 4.6094zm-4-1.2969c0-0.72656-0.21484-1.3164-0.64062-1.7656-0.42969-0.45703-0.99219-0.6875-1.6875-0.6875-0.75 0-1.3672 0.21484-1.8438 0.64062-0.46875 0.41797-0.76172 1.0234-0.875 1.8125z"/>
  </symbol>
  <symbol id="l" overflow="visible">
   <path d="m7.3125-5.4688c-0.8125 0-1.4219 0.14062-1.8281 0.42188-0.40625 0.27344-0.60938 0.67188-0.60938 1.2031 0 0.49219 0.16016 0.875 0.48438 1.1562 0.33203 0.28125 0.78906 0.42188 1.375 0.42188 0.72656 0 1.3438-0.25781 1.8438-0.78125 0.5-0.53125 0.75-1.1875 0.75-1.9688v-0.45312zm5.9375-1.4688v6.9375h-3.9219v-1.7969c-0.52344 0.74219-1.1094 1.2773-1.7656 1.6094-0.64844 0.33203-1.4336 0.5-2.3594 0.5-1.2617 0-2.2891-0.36328-3.0781-1.0938-0.78125-0.73828-1.1719-1.6914-1.1719-2.8594 0-1.4258 0.48828-2.4727 1.4688-3.1406 0.97656-0.66406 2.5195-1 4.625-1h2.2812v-0.29688c0-0.61328-0.24609-1.0625-0.73438-1.3438-0.48047-0.28906-1.2344-0.4375-2.2656-0.4375-0.82422 0-1.5938 0.085937-2.3125 0.25-0.71875 0.16797-1.3867 0.41797-2 0.75v-2.9688c0.83203-0.19531 1.6641-0.34766 2.5-0.45312 0.84375-0.10156 1.6875-0.15625 2.5312-0.15625 2.1875 0 3.7656 0.43359 4.7344 1.2969 0.97656 0.86719 1.4688 2.2656 1.4688 4.2031z"/>
  </symbol>
  <symbol id="a" overflow="visible">
   <path d="m6.1094-15.594v3.4375h4v2.7812h-4v5.1562c0 0.5625 0.10938 0.94531 0.32812 1.1406 0.22656 0.19922 0.67578 0.29688 1.3438 0.29688h2v2.7812h-3.3438c-1.5312 0-2.6211-0.31641-3.2656-0.95312-0.63672-0.64453-0.95312-1.7344-0.95312-3.2656v-5.1562h-1.9219v-2.7812h1.9219v-3.4375z"/>
  </symbol>
  <symbol id="f" overflow="visible">
   <path d="m10.141-10.375v-6.5h3.8906v16.875h-3.8906v-1.75c-0.54297 0.71094-1.1367 1.2305-1.7812 1.5625-0.63672 0.33203-1.3828 0.5-2.2344 0.5-1.4922 0-2.7188-0.59375-3.6875-1.7812-0.96094-1.1875-1.4375-2.7188-1.4375-4.5938s0.47656-3.4062 1.4375-4.5938c0.96875-1.1875 2.1953-1.7812 3.6875-1.7812 0.84375 0 1.5859 0.16797 2.2344 0.5 0.64453 0.33594 1.2383 0.85547 1.7812 1.5625zm-2.5625 7.875c0.82031 0 1.4531-0.30078 1.8906-0.90625 0.44531-0.61328 0.67188-1.5 0.67188-2.6562s-0.22656-2.0352-0.67188-2.6406c-0.4375-0.61328-1.0703-0.92188-1.8906-0.92188-0.83594 0-1.4688 0.30859-1.9062 0.92188-0.4375 0.60547-0.65625 1.4844-0.65625 2.6406s0.21875 2.043 0.65625 2.6562c0.4375 0.60547 1.0703 0.90625 1.9062 0.90625z"/>
  </symbol>
  <symbol id="k" overflow="visible">
   <path d="m8.3281-2.5c0.83203 0 1.4688-0.30078 1.9062-0.90625 0.4375-0.61328 0.65625-1.5 0.65625-2.6562s-0.21875-2.0352-0.65625-2.6406c-0.4375-0.61328-1.0742-0.92188-1.9062-0.92188-0.83594 0-1.4766 0.30859-1.9219 0.92188-0.4375 0.60547-0.65625 1.4844-0.65625 2.6406 0 1.1484 0.21875 2.0273 0.65625 2.6406 0.44531 0.61719 1.0859 0.92188 1.9219 0.92188zm-2.5781-7.875c0.53125-0.70703 1.1172-1.2266 1.7656-1.5625 0.65625-0.33203 1.4102-0.5 2.2656-0.5 1.4883 0 2.7109 0.59375 3.6719 1.7812 0.96875 1.1875 1.4531 2.7188 1.4531 4.5938s-0.48438 3.4062-1.4531 4.5938c-0.96094 1.1875-2.1836 1.7812-3.6719 1.7812-0.85547 0-1.6094-0.16797-2.2656-0.5-0.64844-0.33203-1.2344-0.85156-1.7656-1.5625v1.75h-3.8906v-16.875h3.8906z"/>
  </symbol>
  <symbol id="e" overflow="visible">
   <path d="m0.26562-12.156h3.8906l3.2656 8.25 2.7812-8.25h3.875l-5.1094 13.312c-0.51172 1.3438-1.1094 2.2852-1.7969 2.8281-0.67969 0.53906-1.5781 0.8125-2.7031 0.8125h-2.25v-2.5469h1.2188c0.65625 0 1.1328-0.10938 1.4375-0.32812 0.30078-0.21094 0.53516-0.58594 0.70312-1.125l0.10938-0.32812z"/>
  </symbol>
  <symbol id="j" overflow="visible">
   <path d="m11.875-2.9531h-6.5312l-1.0312 2.9531h-4.2031l6-16.203h4.9844l6 16.203h-4.2031zm-5.5-3h4.4375l-2.2031-6.4531z"/>
  </symbol>
  <symbol id="i" overflow="visible">
   <path d="m13.125-10.141c0.48828-0.75 1.0703-1.3164 1.75-1.7031 0.67578-0.39453 1.4219-0.59375 2.2344-0.59375 1.3945 0 2.457 0.43359 3.1875 1.2969 0.72656 0.85547 1.0938 2.1016 1.0938 3.7344v7.4062h-3.9062v-6.3281c0.007813-0.10156 0.015625-0.20312 0.015625-0.29688 0.007812-0.10156 0.015625-0.25 0.015625-0.4375 0-0.86328-0.13281-1.4883-0.39062-1.875-0.25-0.38281-0.65625-0.57812-1.2188-0.57812-0.74219 0-1.3125 0.30859-1.7188 0.92188-0.39844 0.60547-0.60156 1.4805-0.60938 2.625v5.9688h-3.9062v-6.3281c0-1.3516-0.12109-2.2227-0.35938-2.6094-0.23047-0.38281-0.64062-0.57812-1.2344-0.57812-0.74219 0-1.3125 0.30859-1.7188 0.92188-0.40625 0.60547-0.60938 1.4766-0.60938 2.6094v5.9844h-3.9062v-12.156h3.9062v1.7812c0.47656-0.6875 1.0234-1.2031 1.6406-1.5469 0.625-0.34375 1.3047-0.51562 2.0469-0.51562 0.84375 0 1.582 0.20312 2.2188 0.60938 0.64453 0.39844 1.1328 0.96094 1.4688 1.6875z"/>
  </symbol>
  <symbol id="h" overflow="visible">
   <path d="m14.078-7.4062v7.4062h-3.9062v-5.6406c0-1.0625-0.027344-1.7891-0.078125-2.1875-0.042969-0.39453-0.12109-0.69141-0.23438-0.89062-0.14844-0.25-0.35156-0.44141-0.60938-0.57812-0.26172-0.14453-0.55859-0.21875-0.89062-0.21875-0.8125 0-1.4531 0.3125-1.9219 0.9375-0.46094 0.625-0.6875 1.4922-0.6875 2.5938v5.9844h-3.8906v-16.875h3.8906v6.5c0.58203-0.70703 1.2031-1.2266 1.8594-1.5625 0.66406-0.33203 1.3945-0.5 2.1875-0.5 1.4062 0 2.4688 0.43359 3.1875 1.2969 0.72656 0.85547 1.0938 2.1016 1.0938 3.7344z"/>
  </symbol>
  <symbol id="u" overflow="visible">
   <path d="m11.359-11.766v2.9531c-0.83594-0.35156-1.6367-0.61328-2.4062-0.78125-0.77344-0.17578-1.5-0.26562-2.1875-0.26562-0.74219 0-1.293 0.09375-1.6562 0.28125-0.35547 0.17969-0.53125 0.46094-0.53125 0.84375 0 0.3125 0.13281 0.55469 0.40625 0.71875 0.26953 0.16797 0.75391 0.28906 1.4531 0.35938l0.6875 0.10938c1.9883 0.25 3.3281 0.66797 4.0156 1.25 0.6875 0.57422 1.0312 1.4805 1.0312 2.7188 0 1.293-0.48047 2.2656-1.4375 2.9219-0.94922 0.64844-2.3711 0.96875-4.2656 0.96875-0.80469 0-1.6367-0.0625-2.5-0.1875-0.85547-0.125-1.7344-0.3125-2.6406-0.5625v-2.9531c0.78125 0.375 1.5781 0.65625 2.3906 0.84375s1.6328 0.28125 2.4688 0.28125c0.75781 0 1.332-0.10156 1.7188-0.3125 0.38281-0.20703 0.57812-0.51953 0.57812-0.9375 0-0.34375-0.13672-0.59766-0.40625-0.76562-0.26172-0.17578-0.78125-0.3125-1.5625-0.40625l-0.6875-0.09375c-1.7305-0.20703-2.9453-0.60156-3.6406-1.1875-0.6875-0.59375-1.0312-1.4844-1.0312-2.6719 0-1.2891 0.4375-2.2422 1.3125-2.8594 0.88281-0.625 2.2383-0.9375 4.0625-0.9375 0.71875 0 1.4688 0.054688 2.25 0.15625 0.78906 0.10547 1.6484 0.27734 2.5781 0.51562z"/>
  </symbol>
  <symbol id="t" overflow="visible">
   <path d="m13.312-15.688v3.4219c-0.88672-0.39453-1.7578-0.69141-2.6094-0.89062-0.84375-0.20703-1.6406-0.3125-2.3906-0.3125-1 0-1.7422 0.14062-2.2188 0.42188-0.48047 0.27344-0.71875 0.69922-0.71875 1.2812 0 0.42969 0.16016 0.76562 0.48438 1.0156 0.32031 0.24219 0.90625 0.44531 1.75 0.60938l1.7812 0.35938c1.8008 0.36719 3.082 0.91797 3.8438 1.6562 0.75781 0.74219 1.1406 1.7891 1.1406 3.1406 0 1.793-0.53125 3.125-1.5938 4-1.0547 0.86719-2.668 1.2969-4.8438 1.2969-1.0312 0-2.0703-0.10156-3.1094-0.29688-1.0312-0.1875-2.0625-0.47266-3.0938-0.85938v-3.5312c1.0312 0.55469 2.0312 0.96875 3 1.25 0.96875 0.27344 1.8984 0.40625 2.7969 0.40625 0.90625 0 1.5977-0.14844 2.0781-0.45312 0.48828-0.30078 0.73438-0.73438 0.73438-1.2969 0-0.50781-0.16797-0.89844-0.5-1.1719-0.32422-0.26953-0.97656-0.51562-1.9531-0.73438l-1.625-0.35938c-1.6172-0.35156-2.7969-0.90625-3.5469-1.6562-0.75-0.75781-1.125-1.7852-1.125-3.0781 0-1.6133 0.51953-2.8516 1.5625-3.7188 1.0391-0.86328 2.5391-1.2969 4.5-1.2969 0.88281 0 1.7969 0.070313 2.7344 0.20312 0.9375 0.125 1.9102 0.32422 2.9219 0.59375z"/>
  </symbol>
  <symbol id="g" overflow="visible">
   <path d="m1.7344-4.7344v-7.4219h3.9062v1.2188c0 0.65625-0.007813 1.4844-0.015625 2.4844v1.9844c0 0.98047 0.019531 1.6875 0.0625 2.125 0.050781 0.42969 0.14062 0.73438 0.26562 0.92188 0.15625 0.26172 0.36328 0.46094 0.625 0.59375 0.25781 0.13672 0.55469 0.20312 0.89062 0.20312 0.80078 0 1.4297-0.30469 1.8906-0.92188 0.46875-0.625 0.70312-1.4922 0.70312-2.6094v-6h3.8906v12.156h-3.8906v-1.75c-0.58594 0.71094-1.2031 1.2305-1.8594 1.5625s-1.375 0.5-2.1562 0.5c-1.4062 0-2.4805-0.42578-3.2188-1.2812-0.73047-0.86328-1.0938-2.1172-1.0938-3.7656z"/>
  </symbol>
  <symbol id="s" overflow="visible">
   <path d="m1.8594-12.156h3.8906v12.156h-3.8906zm0-4.7188h3.8906v3.1562h-3.8906z"/>
  </symbol>
  <symbol id="c" overflow="visible">
   <path d="m7.6562-9.6719c-0.86719 0-1.5273 0.3125-1.9844 0.9375-0.44922 0.61719-0.67188 1.5078-0.67188 2.6719 0 1.168 0.22266 2.0586 0.67188 2.6719 0.45703 0.61719 1.1172 0.92188 1.9844 0.92188 0.84375 0 1.4883-0.30469 1.9375-0.92188 0.44531-0.61328 0.67188-1.5039 0.67188-2.6719 0-1.1641-0.22656-2.0547-0.67188-2.6719-0.44922-0.625-1.0938-0.9375-1.9375-0.9375zm0-2.7656c2.082 0 3.7109 0.5625 4.8906 1.6875 1.1758 1.125 1.7656 2.6875 1.7656 4.6875s-0.58984 3.5625-1.7656 4.6875c-1.1797 1.125-2.8086 1.6875-4.8906 1.6875-2.1055 0-3.75-0.5625-4.9375-1.6875-1.1797-1.125-1.7656-2.6875-1.7656-4.6875s0.58594-3.5625 1.7656-4.6875c1.1875-1.125 2.832-1.6875 4.9375-1.6875z"/>
  </symbol>
  <symbol id="r" overflow="visible">
   <path d="m9.8594-16.875v2.5469h-2.1406c-0.55469 0-0.9375 0.10156-1.1562 0.29688-0.21875 0.19922-0.32812 0.54297-0.32812 1.0312v0.84375h3.3281v2.7812h-3.3281v9.375h-3.875v-9.375h-1.9375v-2.7812h1.9375v-0.84375c0-1.3203 0.36328-2.2969 1.0938-2.9219 0.73828-0.63281 1.8828-0.95312 3.4375-0.95312z"/>
  </symbol>
  <symbol id="q" overflow="visible">
   <path d="m2.0469-16.203h4.6562l5.8906 11.109v-11.109h3.9688v16.203h-4.6719l-5.8906-11.109v11.109h-3.9531z"/>
  </symbol>
  <symbol id="p" overflow="visible">
   <path d="m14.078-7.4062v7.4062h-3.9062v-5.6562c0-1.0508-0.027344-1.7734-0.078125-2.1719-0.042969-0.39453-0.12109-0.69141-0.23438-0.89062-0.14844-0.25-0.35156-0.44141-0.60938-0.57812-0.26172-0.14453-0.55859-0.21875-0.89062-0.21875-0.8125 0-1.4531 0.3125-1.9219 0.9375-0.46094 0.625-0.6875 1.4922-0.6875 2.5938v5.9844h-3.8906v-12.156h3.8906v1.7812c0.58203-0.70703 1.2031-1.2266 1.8594-1.5625 0.66406-0.33203 1.3945-0.5 2.1875-0.5 1.4062 0 2.4688 0.43359 3.1875 1.2969 0.72656 0.85547 1.0938 2.1016 1.0938 3.7344z"/>
  </symbol>
  <symbol id="o" overflow="visible">
   <path d="m2.0469-16.203h6.9219c2.0625 0 3.6445 0.46094 4.75 1.375 1.1016 0.91797 1.6562 2.2188 1.6562 3.9062 0 1.7109-0.55469 3.0234-1.6562 3.9375-1.1055 0.90625-2.6875 1.3594-4.75 1.3594h-2.75v5.625h-4.1719zm4.1719 3.0312v4.5312h2.3125c0.8125 0 1.4375-0.19531 1.875-0.59375 0.4375-0.39453 0.65625-0.95703 0.65625-1.6875 0-0.71875-0.21875-1.2695-0.65625-1.6562-0.4375-0.39453-1.0625-0.59375-1.875-0.59375z"/>
  </symbol>
  <symbol id="n" overflow="visible">
   <path d="m1.8594-12.156h3.8906v11.938c0 1.625-0.39062 2.8633-1.1719 3.7188-0.78125 0.86328-1.9141 1.2969-3.3906 1.2969h-1.9219v-2.5469h0.67188c0.73828 0 1.2422-0.16797 1.5156-0.5 0.26953-0.33594 0.40625-0.99219 0.40625-1.9688zm0-4.7188h3.8906v3.1562h-3.8906z"/>
  </symbol>
  <symbol id="m" overflow="visible">
   <path d="m11.688-11.766v3.1562c-0.53125-0.35156-1.0625-0.61719-1.5938-0.79688-0.53125-0.17578-1.0859-0.26562-1.6562-0.26562-1.0859 0-1.9297 0.32031-2.5312 0.95312-0.60547 0.63672-0.90625 1.5234-0.90625 2.6562 0 1.1367 0.30078 2.0234 0.90625 2.6562 0.60156 0.625 1.4453 0.9375 2.5312 0.9375 0.61328 0 1.1914-0.085938 1.7344-0.26562 0.53906-0.17578 1.0469-0.44141 1.5156-0.79688v3.1719c-0.61719 0.23047-1.2344 0.39453-1.8594 0.5-0.625 0.11328-1.25 0.17188-1.875 0.17188-2.1875 0-3.9023-0.5625-5.1406-1.6875-1.2422-1.125-1.8594-2.6875-1.8594-4.6875s0.61719-3.5625 1.8594-4.6875c1.2383-1.125 2.9531-1.6875 5.1406-1.6875 0.63281 0 1.2578 0.058594 1.875 0.17188 0.625 0.10547 1.2422 0.27344 1.8594 0.5z"/>
  </symbol>
 </defs>
 <g>
  <path d="m576.6 328.45-22.801-66.445c-0.48828-1.3789-1.6016-2.4453-3.0234-2.8438-1.3789-0.39844-2.8906-0.089844-4.043 0.84375l-54.18 44.711c-0.66797 0.57812-1.1992 1.332-1.4219 2.2227l-41.645 147.38c-5.1094-25.645-17.602-57.066-47.645-73.332-15.867-8.5781-26.488-5.1094-33.066 0.39844-8.2656-5.5117-16.844-10.223-25.465-14.09-0.089844-0.042968-0.17969-0.13281-0.3125-0.13281-5.1992-2.3555-10.223-4.3984-15.066-6v-29.109c29.066-10.578 51.957-33.688 61.602-49.777 3.6016-6 7.2891-13.734 10.535-22.801 2.4453 0.93359 5.0664 1.4219 7.7773 1.4219 7.4219 0 14-3.6445 18-9.2891 2.3555 3.2891 5.7344 5.6875 10.355 5.6875 5.5547 0 8.9336-3.6445 10.891-8.2656-4.043-4.2227-6-10.133-6.3125-11.156-0.13281-0.35547-0.17969-0.71094-0.22266-1.0664v-0.26562l-3.3789-61.156c-0.17969-2.4453 1.7344-4.5352 4.1797-4.668 2.4883-0.17969 4.5352 1.7344 4.668 4.1797l3.3789 60.801h-0.042969c0.042969 0.26562 0.089844 0.53516 0.089844 0.84375 0 3.6445-0.62109 8.4453-2.3555 12.488 2.3477 2.4414 5.4141 4.3086 9.2344 4.3086 11.066 0 13.957-11.82 13.957-18.223-0.35547-9.5977-10.754-235.11-129.02-235.11-50.844 0-69.555 23.199-74 30.09-65.422 16.18-79.91 86.934-83.109 135.78-11.465 0.80078-20.488 10.355-20.488 22.043v50.844c0 12.223 9.9102 22.133 22.133 22.133 2.7109 0 5.332-0.48828 7.7773-1.4219 3.2461 9.0664 6.9336 16.801 10.535 22.801 9.6445 16.09 32.535 39.199 61.602 49.777v29.109c-5.1562 1.7773-10.266 3.7773-15.156 6-0.089844 0.042968-0.13281 0.089844-0.22266 0.13281-8.7539 3.957-17.289 8.668-25.465 14.133-6.6211-5.6016-17.246-9.0234-33.066-0.44531-52.184 28.273-51.34 101.65-51.027 110.76-3.7773 9.7773-7.332 20.535-10.398 31.867-0.042968 0.042969-0.042968 0.089844-0.042968 0.17969-0.042969 0.089844-0.042969 0.17969-0.089844 0.26562-2.6211 9.5547-4.8906 19.734-6.8438 30.18v0.042969c-0.089844 0.22266-0.089844 0.39844-0.13281 0.62109-0.089843 0.21875-0.089843 0.44141-0.089843 0.66406 0 1.2461 0.53516 2.3555 1.332 3.1562 0.80078 0.80078 1.9102 1.2891 3.1094 1.2891h338.27c-0.35547 0-0.75391-0.042969-1.1094-0.17969-0.71094-0.22266-1.3789-0.57812-1.8672-1.0664-0.13281-0.13281-0.26562-0.26562-0.39844-0.44531-0.17969-0.22266-0.35547-0.48828-0.48828-0.75391-0.089844-0.17969-0.17969-0.35547-0.22266-0.57813-0.089843-0.22266-0.17969-0.44531-0.17969-0.66797-0.042969-0.32422-0.0625-0.65234-0.050782-0.97656 0.011719-0.35156 0.035157-0.69141 0.18359-1.0234l0.13281-0.53516 0.80078-2.668 69.332-241.87c0.66797-2.3984 3.1562-3.7773 5.5117-3.0664 2.3555 0.66797 3.7344 3.1562 3.0234 5.5117l-68.621 239.43-1.5547 5.332-0.089844 0.35547c-0.042968 0.089844-0.042968 0.17969-0.089843 0.26562-0.22266 0.62109-0.57812 1.1562-1.0234 1.6016-0.13281 0.13281-0.35547 0.3125-0.53516 0.44531-0.13281 0.089844-0.26562 0.17969-0.39844 0.26562-0.39844 0.26562-0.84375 0.44531-1.332 0.53516-0.13281 0.042969-0.3125 0.042969-0.44531 0.042969-0.13281 0.046875-0.26562 0.046875-0.39844 0.046875h42.535c0.3125 0 0.62109-0.042969 0.89063-0.089844 0.71094-0.13281 1.332-0.44531 1.8672-0.89062 0.13281-0.089843 0.3125-0.22266 0.44531-0.39844 0.57812-0.62109 0.97656-1.332 1.1562-2.1797l63.688-225.38c0.26172-0.83984 0.21875-1.7734-0.046876-2.6172zm-149.07 203.51c-16.133 2.668-31.289-0.39844-46.266-9.4648v-50.711c19.91 13.91 38.488 21.91 56.445 24.223zm-91.336-158.09c-1.1562 4.9336-4.3984 14.578-12.711 21.777v-26.621c4.0898 1.332 8.3125 2.9336 12.711 4.8438zm-34.934 30.578v-13.422h13.332v10.18c-3.7773 1.6406-8.1758 2.7969-13.332 3.2422zm-22.223-3.2461v-10.18h13.332l0.003906 13.426c-5.1562-0.44531-9.6016-1.6016-13.336-3.2461zm0-29.82c4.4453 0.97656 8.8906 1.5547 13.332 1.7773v8.9766h-13.332zm22.223 1.7773c4.4453-0.22266 8.8906-0.80078 13.332-1.7773v10.754h-13.332zm17.777-12.09c-0.26562 0.13281-0.57812 0.22266-0.89062 0.3125-0.089844 0.042969-0.22266 0.042969-0.3125 0.089844-7.1523 1.9961-14.086 2.9766-21.02 2.9766h-0.13281c-6.7109 0-13.422-0.93359-20.355-2.8008-0.26562-0.13281-0.53516-0.22266-0.84375-0.26562-0.3125-0.089844-0.57812-0.17969-0.89062-0.26562v-8.3984c7.3789 1.957 14.801 2.9336 22.223 2.9336 7.4219 0 14.844-0.97656 22.223-2.9336zm56.934-328.89c1.6445 1.8203 1.4648 4.6211-0.35547 6.2656-0.84375 0.75391-1.9102 1.1094-2.9766 1.1094-1.1992 0-2.4453-0.48828-3.2891-1.4648-5.4219-6.0898-17.602-9.5117-28.977-8.1797-2.9336 0.35547-5.5547 1.0234-7.6445 1.957-2.5781 1.0664-4.4453 2.4883-5.332 4.1328-0.97656 1.8672-3.0664 2.7539-4.9766 2.2656-0.35547-0.089844-0.71094-0.22266-1.0234-0.39844-2.1797-1.1562-2.9766-3.8672-1.8203-6.043 0.53516-0.97656 1.1562-1.9102 1.957-2.8008 3.6445-4.1797 9.8203-6.9766 17.82-7.9102 11.684-1.4258 28.086 1.4648 36.617 11.066zm-154.84 152.18c50.266-26.312 101.11-26.312 151.38 0v31.289c-50.266 26.312-101.11 26.312-151.38 0zm160.13-5.3789c-0.62109-0.35547-1.1992-0.66797-1.8203-0.97656-0.26562-0.17969-0.48828-0.3125-0.75391-0.39844-27.199-14.668-54.535-21.957-81.867-21.957s-54.668 7.2891-81.867 21.957c-0.26562 0.089844-0.48828 0.22266-0.75391 0.39844-0.62109 0.3125-1.1992 0.62109-1.8203 0.97656l-0.003906-47.777c56.801-39.023 112.09-39.023 168.89 0zm-3.1562 43.777-18.355 58.754c-56.043 33.512-69.82 33.512-125.87 0l-18.355-58.754c54.004 28.801 108.58 28.801 162.58 0zm29.734 29.246c-1.7773 0-3.4219-0.3125-4.9766-0.97656 4.4453-14.668 7.5117-32 7.5117-50.578 0-6.668 0-15.512-0.44531-25.602 6.3125 1.0234 11.156 6.4883 11.156 13.066v50.844c0 7.2891-5.957 13.246-13.246 13.246zm-222.04 0c-7.2891 0-13.246-5.957-13.246-13.246v-50.844c0-6.5781 4.8438-12.043 11.156-13.066-0.44531 10.09-0.44531 18.934-0.44531 25.602 0 18.578 3.0664 35.91 7.5117 50.578-1.5547 0.66406-3.1992 0.97656-4.9766 0.97656zm111.02 85.777c7.6445 0 15.109-1.0664 22.223-2.9336v8.6211c-14.754 4.3555-29.688 4.3555-44.445 0v-8.6211c7.1133 1.8672 14.582 2.9336 22.223 2.9336zm-26.664 31.246v26.621c-8.3125-7.1992-11.555-16.844-12.711-21.777 4.1328-1.7773 8.3984-3.4219 12.711-4.8438zm-20.844 8.5781c2.2227 8 8.1797 22.18 22.754 30.09 0.26562 0.17969 0.53516 0.3125 0.80078 0.44531 6.3125 3.2891 14.18 5.3789 23.957 5.3789 9.7773 0 17.645-2.0898 23.91-5.3789 0.3125-0.089844 0.62109-0.26562 0.89062-0.48828 14.535-7.9102 20.445-22.043 22.711-30.043 6.2656 3.0234 12.445 6.5781 18.488 10.535-10.488 15.379-12.312 41.422-12.621 51.867l-106.76-0.007812c-0.3125-10.488-2.1328-36.535-12.621-51.867 5.9961-3.9531 12.176-7.4648 18.488-10.531zm-100.89 119.07c20.223-0.84375 41.289-9.0234 63.957-24.891v50.711c-22.891 13.82-46.668 13.867-72.578 0.22266 2.6211-9.2461 5.5117-17.957 8.6211-26.043zm191.55 22.043c0.80078-0.84375 1.2891-1.957 1.2891-3.1562 0-1.1992-0.48828-2.3125-1.2891-3.1562l-40-40c-1.7344-1.7344-4.5781-1.7344-6.3125 0l-40 40c-0.80078 0.84375-1.2891 1.957-1.2891 3.1562 0 1.1992 0.48828 2.3125 1.2891 3.1562l32.398 32.398h-64.797v-102.22h151.11v102.22l-64.797-0.003906z"/>
  <path d="m363.31 164.45c2.4453 0 4.4453-2 4.4453-4.4453v-30.934c0-2.4453-2-4.4453-4.4453-4.4453-2.4883 0-4.4453 2-4.4453 4.4453v30.934c0 2.4453 1.9531 4.4453 4.4453 4.4453z"/>
  <path d="m350.16 200c0 4.9102-3.9805 8.8906-8.8906 8.8906-4.9062 0-8.8867-3.9805-8.8867-8.8906s3.9805-8.8906 8.8867-8.8906c4.9102 0 8.8906 3.9805 8.8906 8.8906"/>
  <path d="m341.27 284.36c2.4453 0 4.4453-2 4.4453-4.4453v-31.02c0-2.4453-2-4.4453-4.4453-4.4453-2.4883 0-4.4453 2-4.4453 4.4453v31.023c0 2.4414 1.957 4.4414 4.4453 4.4414z"/>
  <path d="m341.27 155.55c2.4453 0 4.4453-2 4.4453-4.4453v-30.934c0-2.4453-2-4.4453-4.4453-4.4453-2.4883 0-4.4453 2-4.4453 4.4453v30.934c0 2.4453 1.957 4.4453 4.4453 4.4453z"/>
  <path d="m319.04 293.25c2.4453 0 4.4453-2 4.4453-4.4453v-35.555c0-2.4453-2-4.4453-4.4453-4.4453-2.4453 0-4.4453 2-4.4453 4.4453v35.555c0.003906 2.4453 2.0039 4.4453 4.4453 4.4453z"/>
  <path d="m319.04 151.11c2.4453 0 4.4453-2 4.4453-4.4453v-30.934c0-2.4453-2-4.4453-4.4453-4.4453-2.4453 0-4.4453 2-4.4453 4.4453l0.003906 30.938c0 2.4414 2 4.4414 4.4414 4.4414z"/>
  <path d="m296.82 297.78c2.4453 0 4.4453-2 4.4453-4.4453v-35.555c0-2.4453-2-4.4453-4.4453-4.4453-2.4453 0-4.4453 2-4.4453 4.4453v35.555c0.003906 2.4453 2.0039 4.4453 4.4453 4.4453z"/>
  <path d="m292.38 111.29v30.934c0 2.4453 2 4.4453 4.4453 4.4453 2.4453 0 4.4453-2 4.4453-4.4453v-30.934c0-2.4453-2-4.4453-4.4453-4.4453-2.4453 0-4.4453 2-4.4453 4.4453z"/>
  <path d="m311.36 221.91c2.3555-0.66797 3.7344-3.1094 3.0664-5.4648-0.66797-2.3555-3.1562-3.7344-5.4648-3.0664-8.043 2.2656-16.223 2.2656-24.266 0-2.3555-0.66797-4.8008 0.71094-5.4648 3.0664-0.66797 2.3555 0.71094 4.8008 3.0664 5.4648 4.8008 1.3789 9.6875 2.0898 14.535 2.0898 4.8398 0 9.7266-0.71094 14.527-2.0898z"/>
  <path d="m274.6 293.25c2.4453 0 4.4453-2 4.4453-4.4453v-35.555c0-2.4453-2-4.4453-4.4453-4.4453-2.4453 0-4.4453 2-4.4453 4.4453v35.555c0 2.4453 2 4.4453 4.4453 4.4453z"/>
  <path d="m274.6 111.29c-2.4453 0-4.4453 2-4.4453 4.4453v30.934c0 2.4453 2 4.4453 4.4453 4.4453 2.4453 0 4.4453-2 4.4453-4.4453v-30.934c-0.003906-2.4453-2.0039-4.4453-4.4453-4.4453z"/>
  <path d="m261.27 200c0 4.9102-3.9805 8.8906-8.8867 8.8906-4.9102 0-8.8906-3.9805-8.8906-8.8906s3.9805-8.8906 8.8906-8.8906c4.9062 0 8.8867 3.9805 8.8867 8.8906"/>
  <path d="m252.38 284.36c2.4883 0 4.4453-2 4.4453-4.4453l-0.003907-31.02c0-2.4453-1.957-4.4453-4.4453-4.4453-2.4453 0-4.4453 2-4.4453 4.4453v31.023c0.003906 2.4414 2.0039 4.4414 4.4492 4.4414z"/>
  <path d="m252.38 115.73c-2.4453 0-4.4453 2-4.4453 4.4453v30.93c0 2.4453 2 4.4453 4.4453 4.4453 2.4883 0 4.4453-2 4.4453-4.4453v-30.934c-0.003907-2.4414-1.957-4.4414-4.4453-4.4414z"/>
  <path d="m230.33 124.62c-2.4453 0-4.4453 2-4.4453 4.4453l0.003906 30.934c0 2.4453 2 4.4453 4.4453 4.4453 2.4883 0 4.4453-2 4.4453-4.4453v-30.934c-0.003906-2.4453-1.9609-4.4453-4.4492-4.4453z"/>
  <use x="123.179687" y="626.667969" xlink:href="#v"/>
  <use x="139.488281" y="626.667969" xlink:href="#d"/>
  <use x="150.445312" y="626.667969" xlink:href="#b"/>
  <use x="165.515625" y="626.667969" xlink:href="#l"/>
  <use x="180.511719" y="626.667969" xlink:href="#a"/>
  <use x="191.136719" y="626.667969" xlink:href="#b"/>
  <use x="206.207031" y="626.667969" xlink:href="#f"/>
  <use x="229.851562" y="626.667969" xlink:href="#k"/>
  <use x="245.757812" y="626.667969" xlink:href="#e"/>
  <use x="267.980469" y="626.667969" xlink:href="#j"/>
  <use x="285.179688" y="626.667969" xlink:href="#i"/>
  <use x="308.335937" y="626.667969" xlink:href="#b"/>
  <use x="323.40625" y="626.667969" xlink:href="#a"/>
  <use x="334.027344" y="626.667969" xlink:href="#h"/>
  <use x="349.847656" y="626.667969" xlink:href="#e"/>
  <use x="364.335937" y="626.667969" xlink:href="#u"/>
  <use x="377.5625" y="626.667969" xlink:href="#a"/>
  <use x="395.921875" y="626.667969" xlink:href="#t"/>
  <use x="411.925781" y="626.667969" xlink:href="#a"/>
  <use x="422.546875" y="626.667969" xlink:href="#g"/>
  <use x="438.367188" y="626.667969" xlink:href="#f"/>
  <use x="454.277344" y="626.667969" xlink:href="#s"/>
  <use x="461.894531" y="626.667969" xlink:href="#c"/>
  <use x="123.179687" y="648.890625" xlink:href="#r"/>
  <use x="132.847656" y="648.890625" xlink:href="#d"/>
  <use x="143.804688" y="648.890625" xlink:href="#c"/>
  <use x="159.070312" y="648.890625" xlink:href="#i"/>
  <use x="189.964844" y="648.890625" xlink:href="#a"/>
  <use x="200.585937" y="648.890625" xlink:href="#h"/>
  <use x="216.40625" y="648.890625" xlink:href="#b"/>
  <use x="239.214844" y="648.890625" xlink:href="#q"/>
  <use x="257.8125" y="648.890625" xlink:href="#c"/>
  <use x="273.082031" y="648.890625" xlink:href="#g"/>
  <use x="288.902344" y="648.890625" xlink:href="#p"/>
  <use x="312.457031" y="648.890625" xlink:href="#o"/>
  <use x="328.746094" y="648.890625" xlink:href="#d"/>
  <use x="339.703125" y="648.890625" xlink:href="#c"/>
  <use x="354.96875" y="648.890625" xlink:href="#n"/>
  <use x="362.585937" y="648.890625" xlink:href="#b"/>
  <use x="377.660156" y="648.890625" xlink:href="#m"/>
  <use x="390.832031" y="648.890625" xlink:href="#a"/>
 </g>
</svg>
