<?xml version="1.0" encoding="UTF-8"?>
<svg width="700pt" height="700pt" version="1.1" viewBox="0 0 700 700" xmlns="http://www.w3.org/2000/svg" xmlns:xlink="http://www.w3.org/1999/xlink">
 <defs>
  <symbol id="u" overflow="visible">
   <path d="m18.766-1.125c-0.96875 0.5-1.9805 0.875-3.0312 1.125-1.043 0.25781-2.1367 0.39062-3.2812 0.39062-3.3984 0-6.0898-0.94531-8.0781-2.8438-1.9922-1.9062-2.9844-4.4844-2.9844-7.7344 0-3.2578 0.99219-5.8359 2.9844-7.7344 1.9883-1.9062 4.6797-2.8594 8.0781-2.8594 1.1445 0 2.2383 0.13281 3.2812 0.39062 1.0508 0.25 2.0625 0.625 3.0312 1.125v4.2188c-0.98047-0.65625-1.9453-1.1406-2.8906-1.4531-0.94922-0.3125-1.9492-0.46875-3-0.46875-1.875 0-3.3516 0.60547-4.4219 1.8125-1.0742 1.1992-1.6094 2.8555-1.6094 4.9688 0 2.1055 0.53516 3.7617 1.6094 4.9688 1.0703 1.1992 2.5469 1.7969 4.4219 1.7969 1.0508 0 2.0508-0.14844 3-0.45312 0.94531-0.3125 1.9102-0.80078 2.8906-1.4688z"/>
  </symbol>
  <symbol id="d" overflow="visible">
   <path d="m13.734-11.141c-0.4375-0.19531-0.87109-0.34375-1.2969-0.4375-0.41797-0.10156-0.83984-0.15625-1.2656-0.15625-1.2617 0-2.2305 0.40625-2.9062 1.2188-0.67969 0.80469-1.0156 1.9531-1.0156 3.4531v7.0625h-4.8906v-15.312h4.8906v2.5156c0.625-1 1.3438-1.7266 2.1562-2.1875 0.82031-0.46875 1.8008-0.70312 2.9375-0.70312 0.16406 0 0.34375 0.011719 0.53125 0.03125 0.19531 0.011719 0.47656 0.039062 0.84375 0.078125z"/>
  </symbol>
  <symbol id="a" overflow="visible">
   <path d="m17.641-7.7031v1.4062h-11.453c0.125 1.1484 0.53906 2.0078 1.25 2.5781 0.70703 0.57422 1.7031 0.85938 2.9844 0.85938 1.0312 0 2.082-0.14844 3.1562-0.45312 1.082-0.3125 2.1914-0.77344 3.3281-1.3906v3.7656c-1.1562 0.4375-2.3125 0.76562-3.4688 0.98438-1.1562 0.22656-2.3125 0.34375-3.4688 0.34375-2.7734 0-4.9297-0.70312-6.4688-2.1094-1.5312-1.4062-2.2969-3.3789-2.2969-5.9219 0-2.5 0.75391-4.4609 2.2656-5.8906 1.5078-1.4375 3.582-2.1562 6.2188-2.1562 2.4062 0 4.332 0.73047 5.7812 2.1875 1.4453 1.4492 2.1719 3.3828 2.1719 5.7969zm-5.0312-1.625c0-0.92578-0.27344-1.6719-0.8125-2.2344-0.54297-0.57031-1.25-0.85938-2.125-0.85938-0.94922 0-1.7188 0.26562-2.3125 0.79688s-0.96484 1.2969-1.1094 2.2969z"/>
  </symbol>
  <symbol id="e" overflow="visible">
   <path d="m9.2188-6.8906c-1.0234 0-1.793 0.17188-2.3125 0.51562-0.51172 0.34375-0.76562 0.85547-0.76562 1.5312 0 0.625 0.20703 1.1172 0.625 1.4688 0.41406 0.34375 0.98828 0.51562 1.7188 0.51562 0.92578 0 1.7031-0.32812 2.3281-0.98438 0.63281-0.66406 0.95312-1.4922 0.95312-2.4844v-0.5625zm7.4688-1.8438v8.7344h-4.9219v-2.2656c-0.65625 0.92969-1.3984 1.6055-2.2188 2.0312-0.82422 0.41406-1.8242 0.625-3 0.625-1.5859 0-2.8711-0.45703-3.8594-1.375-0.99219-0.92578-1.4844-2.1289-1.4844-3.6094 0-1.7891 0.61328-3.1016 1.8438-3.9375 1.2383-0.84375 3.1797-1.2656 5.8281-1.2656h2.8906v-0.39062c0-0.76953-0.30859-1.332-0.92188-1.6875-0.61719-0.36328-1.5703-0.54688-2.8594-0.54688-1.0547 0-2.0312 0.10547-2.9375 0.3125-0.89844 0.21094-1.7305 0.52344-2.5 0.9375v-3.7344c1.0391-0.25 2.0859-0.44141 3.1406-0.57812 1.0625-0.13281 2.125-0.20312 3.1875-0.20312 2.7578 0 4.75 0.54688 5.9688 1.6406 1.2266 1.0859 1.8438 2.8555 1.8438 5.3125z"/>
  </symbol>
  <symbol id="b" overflow="visible">
   <path d="m7.7031-19.656v4.3438h5.0469v3.5h-5.0469v6.5c0 0.71094 0.14062 1.1875 0.42188 1.4375s0.83594 0.375 1.6719 0.375h2.5156v3.5h-4.1875c-1.9375 0-3.3125-0.39844-4.125-1.2031-0.80469-0.8125-1.2031-2.1797-1.2031-4.1094v-6.5h-2.4219v-3.5h2.4219v-4.3438z"/>
  </symbol>
  <symbol id="k" overflow="visible">
   <path d="m12.766-13.078v-8.2031h4.9219v21.281h-4.9219v-2.2188c-0.66797 0.90625-1.4062 1.5703-2.2188 1.9844s-1.7578 0.625-2.8281 0.625c-1.8867 0-3.4336-0.75-4.6406-2.25-1.2109-1.5-1.8125-3.4258-1.8125-5.7812 0-2.3633 0.60156-4.2969 1.8125-5.7969 1.207-1.5 2.7539-2.25 4.6406-2.25 1.0625 0 2 0.21484 2.8125 0.64062 0.82031 0.42969 1.5664 1.0859 2.2344 1.9688zm-3.2188 9.9219c1.0391 0 1.8359-0.37891 2.3906-1.1406 0.55078-0.76953 0.82812-1.8828 0.82812-3.3438 0-1.457-0.27734-2.5664-0.82812-3.3281-0.55469-0.76953-1.3516-1.1562-2.3906-1.1562-1.043 0-1.8398 0.38672-2.3906 1.1562-0.55469 0.76172-0.82812 1.8711-0.82812 3.3281 0 1.4609 0.27344 2.5742 0.82812 3.3438 0.55078 0.76172 1.3477 1.1406 2.3906 1.1406z"/>
  </symbol>
  <symbol id="j" overflow="visible">
   <path d="m10.5-3.1562c1.0508 0 1.8516-0.37891 2.4062-1.1406 0.55078-0.76953 0.82812-1.8828 0.82812-3.3438 0-1.457-0.27734-2.5664-0.82812-3.3281-0.55469-0.76953-1.3555-1.1562-2.4062-1.1562-1.0547 0-1.8594 0.38672-2.4219 1.1562-0.55469 0.77344-0.82812 1.8828-0.82812 3.3281 0 1.4492 0.27344 2.5586 0.82812 3.3281 0.5625 0.77344 1.3672 1.1562 2.4219 1.1562zm-3.25-9.9219c0.67578-0.88281 1.4219-1.5391 2.2344-1.9688 0.82031-0.42578 1.7656-0.64062 2.8281-0.64062 1.8945 0 3.4453 0.75 4.6562 2.25 1.207 1.5 1.8125 3.4336 1.8125 5.7969 0 2.3555-0.60547 4.2812-1.8125 5.7812-1.2109 1.5-2.7617 2.25-4.6562 2.25-1.0625 0-2.0078-0.21094-2.8281-0.625-0.8125-0.42578-1.5586-1.0859-2.2344-1.9844v2.2188h-4.8906v-21.281h4.8906z"/>
  </symbol>
  <symbol id="i" overflow="visible">
   <path d="m0.34375-15.312h4.8906l4.125 10.391 3.5-10.391h4.8906l-6.4375 16.766c-0.64844 1.6953-1.4023 2.8828-2.2656 3.5625-0.86719 0.6875-2 1.0312-3.4062 1.0312h-2.8438v-3.2188h1.5312c0.83203 0 1.4375-0.13672 1.8125-0.40625 0.38281-0.26172 0.67969-0.73047 0.89062-1.4062l0.14062-0.42188z"/>
  </symbol>
  <symbol id="h" overflow="visible">
   <path d="m16.781-19.766v4.3125c-1.125-0.5-2.2266-0.875-3.2969-1.125-1.0625-0.25781-2.0703-0.39062-3.0156-0.39062-1.25 0-2.1797 0.17969-2.7812 0.53125-0.60547 0.34375-0.90625 0.88281-0.90625 1.6094 0 0.54297 0.20312 0.96875 0.60938 1.2812 0.40625 0.30469 1.1406 0.5625 2.2031 0.78125l2.25 0.45312c2.2695 0.44922 3.8789 1.1406 4.8281 2.0781 0.95703 0.92969 1.4375 2.2461 1.4375 3.9531 0 2.25-0.66797 3.9297-2 5.0312-1.3359 1.0938-3.3711 1.6406-6.1094 1.6406-1.3047 0-2.6055-0.125-3.9062-0.375-1.3047-0.23828-2.6055-0.59766-3.9062-1.0781v-4.4531c1.3008 0.69922 2.5625 1.2266 3.7812 1.5781 1.2188 0.34375 2.3906 0.51562 3.5156 0.51562 1.1562 0 2.0352-0.1875 2.6406-0.5625 0.61328-0.38281 0.92188-0.9375 0.92188-1.6562 0-0.63281-0.21094-1.125-0.625-1.4688-0.41797-0.34375-1.2461-0.65625-2.4844-0.9375l-2.0312-0.4375c-2.043-0.4375-3.5391-1.1328-4.4844-2.0938-0.9375-0.95703-1.4062-2.25-1.4062-3.875 0-2.0312 0.65625-3.5938 1.9688-4.6875s3.1953-1.6406 5.6562-1.6406c1.125 0 2.2734 0.085938 3.4531 0.25 1.1875 0.16797 2.4141 0.42188 3.6875 0.76562z"/>
  </symbol>
  <symbol id="c" overflow="visible">
   <path d="m9.6406-12.188c-1.0859 0-1.9141 0.39062-2.4844 1.1719-0.57422 0.78125-0.85938 1.9062-0.85938 3.375s0.28516 2.5938 0.85938 3.375c0.57031 0.77344 1.3984 1.1562 2.4844 1.1562 1.0625 0 1.875-0.38281 2.4375-1.1562 0.57031-0.78125 0.85938-1.9062 0.85938-3.375s-0.28906-2.5938-0.85938-3.375c-0.5625-0.78125-1.375-1.1719-2.4375-1.1719zm0-3.5c2.6328 0 4.6914 0.71484 6.1719 2.1406 1.4766 1.418 2.2188 3.3867 2.2188 5.9062 0 2.5117-0.74219 4.4805-2.2188 5.9062-1.4805 1.418-3.5391 2.125-6.1719 2.125-2.6484 0-4.7148-0.70703-6.2031-2.125-1.4922-1.4258-2.2344-3.3945-2.2344-5.9062 0-2.5195 0.74219-4.4883 2.2344-5.9062 1.4883-1.4258 3.5547-2.1406 6.2031-2.1406z"/>
  </symbol>
  <symbol id="g" overflow="visible">
   <path d="m12.422-21.281v3.2188h-2.7031c-0.6875 0-1.1719 0.125-1.4531 0.375-0.27344 0.25-0.40625 0.6875-0.40625 1.3125v1.0625h4.1875v3.5h-4.1875v11.812h-4.8906v-11.812h-2.4375v-3.5h2.4375v-1.0625c0-1.6641 0.46094-2.8984 1.3906-3.7031 0.92578-0.80078 2.3672-1.2031 4.3281-1.2031z"/>
  </symbol>
  <symbol id="t" overflow="visible">
   <path d="m14.312-14.828v3.7188c-1.043-0.4375-2.0547-0.76562-3.0312-0.98438-0.98047-0.21875-1.9023-0.32812-2.7656-0.32812-0.92969 0-1.6211 0.11719-2.0781 0.34375-0.44922 0.23047-0.67188 0.58984-0.67188 1.0781 0 0.38672 0.17188 0.68359 0.51562 0.89062 0.34375 0.21094 0.95703 0.36719 1.8438 0.46875l0.85938 0.125c2.5078 0.32422 4.1953 0.85156 5.0625 1.5781 0.86328 0.73047 1.2969 1.8711 1.2969 3.4219 0 1.6367-0.60547 2.8672-1.8125 3.6875-1.1992 0.8125-2.9922 1.2188-5.375 1.2188-1.0234 0-2.0742-0.078125-3.1562-0.23438-1.0742-0.15625-2.1797-0.39453-3.3125-0.71875v-3.7188c0.96875 0.48047 1.9609 0.83984 2.9844 1.0781 1.0312 0.23047 2.0781 0.34375 3.1406 0.34375 0.95703 0 1.6758-0.12891 2.1562-0.39062 0.47656-0.26953 0.71875-0.66406 0.71875-1.1875 0-0.4375-0.16797-0.75781-0.5-0.96875-0.33594-0.21875-0.99609-0.38281-1.9844-0.5l-0.85938-0.10938c-2.1797-0.26953-3.7031-0.77344-4.5781-1.5156-0.875-0.73828-1.3125-1.8594-1.3125-3.3594 0-1.625 0.55078-2.8281 1.6562-3.6094 1.1133-0.78906 2.8203-1.1875 5.125-1.1875 0.89453 0 1.8359 0.074219 2.8281 0.21875 1 0.13672 2.082 0.35156 3.25 0.64062z"/>
  </symbol>
  <symbol id="f" overflow="visible">
   <path d="m14.719-14.828v3.9844c-0.65625-0.45703-1.3242-0.79688-2-1.0156-0.66797-0.21875-1.3594-0.32812-2.0781-0.32812-1.3672 0-2.4336 0.40234-3.2031 1.2031-0.76172 0.79297-1.1406 1.9062-1.1406 3.3438 0 1.4297 0.37891 2.543 1.1406 3.3438 0.76953 0.79297 1.8359 1.1875 3.2031 1.1875 0.75781 0 1.4844-0.10938 2.1719-0.32812 0.6875-0.22656 1.3203-0.56641 1.9062-1.0156v4c-0.76172 0.28125-1.5391 0.48828-2.3281 0.625-0.78125 0.14453-1.5742 0.21875-2.375 0.21875-2.7617 0-4.9219-0.70703-6.4844-2.125-1.5547-1.4141-2.3281-3.3828-2.3281-5.9062 0-2.5312 0.77344-4.5039 2.3281-5.9219 1.5625-1.4141 3.7227-2.125 6.4844-2.125 0.80078 0 1.5938 0.074219 2.375 0.21875 0.78125 0.13672 1.5547 0.35156 2.3281 0.64062z"/>
  </symbol>
  <symbol id="s" overflow="visible">
   <path d="m7.25-2.2188v8.0469h-4.8906v-21.141h4.8906v2.2344c0.67578-0.88281 1.4219-1.5391 2.2344-1.9688 0.82031-0.42578 1.7656-0.64062 2.8281-0.64062 1.8945 0 3.4453 0.75 4.6562 2.25 1.207 1.5 1.8125 3.4336 1.8125 5.7969 0 2.3555-0.60547 4.2812-1.8125 5.7812-1.2109 1.5-2.7617 2.25-4.6562 2.25-1.0625 0-2.0078-0.21094-2.8281-0.625-0.8125-0.42578-1.5586-1.0859-2.2344-1.9844zm3.25-9.9062c-1.0547 0-1.8594 0.38672-2.4219 1.1562-0.55469 0.77344-0.82812 1.8828-0.82812 3.3281 0 1.4492 0.27344 2.5586 0.82812 3.3281 0.5625 0.77344 1.3672 1.1562 2.4219 1.1562 1.0508 0 1.8516-0.37891 2.4062-1.1406 0.55078-0.76953 0.82812-1.8828 0.82812-3.3438 0-1.457-0.27734-2.5664-0.82812-3.3281-0.55469-0.76953-1.3555-1.1562-2.4062-1.1562z"/>
  </symbol>
  <symbol id="r" overflow="visible">
   <path d="m16.547-12.766c0.61328-0.94531 1.3477-1.6719 2.2031-2.1719 0.85156-0.5 1.7891-0.75 2.8125-0.75 1.7578 0 3.0977 0.54688 4.0156 1.6406 0.92578 1.0859 1.3906 2.6562 1.3906 4.7188v9.3281h-4.9219v-7.9844-0.35938c0.007813-0.13281 0.015625-0.32031 0.015625-0.5625 0-1.082-0.16406-1.8633-0.48438-2.3438-0.3125-0.48828-0.82422-0.73438-1.5312-0.73438-0.92969 0-1.6484 0.38672-2.1562 1.1562-0.51172 0.76172-0.77344 1.8672-0.78125 3.3125v7.5156h-4.9219v-7.9844c0-1.6953-0.14844-2.7852-0.4375-3.2656-0.29297-0.48828-0.8125-0.73438-1.5625-0.73438-0.9375 0-1.6641 0.38672-2.1719 1.1562-0.51172 0.76172-0.76562 1.8594-0.76562 3.2969v7.5312h-4.9219v-15.312h4.9219v2.2344c0.60156-0.86328 1.2891-1.5156 2.0625-1.9531 0.78125-0.4375 1.6406-0.65625 2.5781-0.65625 1.0625 0 2 0.25781 2.8125 0.76562 0.8125 0.51172 1.4258 1.2305 1.8438 2.1562z"/>
  </symbol>
  <symbol id="q" overflow="visible">
   <path d="m17.75-9.3281v9.3281h-4.9219v-7.1094c0-1.3438-0.03125-2.2656-0.09375-2.7656s-0.16797-0.86719-0.3125-1.1094c-0.1875-0.3125-0.44922-0.55469-0.78125-0.73438-0.32422-0.17578-0.69531-0.26562-1.1094-0.26562-1.0234 0-1.8242 0.39844-2.4062 1.1875-0.58594 0.78125-0.875 1.8711-0.875 3.2656v7.5312h-4.8906v-21.281h4.8906v8.2031c0.73828-0.88281 1.5195-1.5391 2.3438-1.9688 0.83203-0.42578 1.75-0.64062 2.75-0.64062 1.7695 0 3.1133 0.54688 4.0312 1.6406 0.91406 1.0859 1.375 2.6562 1.375 4.7188z"/>
  </symbol>
  <symbol id="p" overflow="visible">
   <path d="m2.5781-20.406h5.875l7.4219 14v-14h4.9844v20.406h-5.875l-7.4219-14v14h-4.9844z"/>
  </symbol>
  <symbol id="o" overflow="visible">
   <path d="m2.1875-5.9688v-9.3438h4.9219v1.5312c0 0.83594-0.007813 1.875-0.015625 3.125-0.011719 1.25-0.015625 2.0859-0.015625 2.5 0 1.2422 0.03125 2.1328 0.09375 2.6719 0.070313 0.54297 0.17969 0.93359 0.32812 1.1719 0.20703 0.32422 0.47266 0.57422 0.79688 0.75 0.32031 0.16797 0.69141 0.25 1.1094 0.25 1.0195 0 1.8203-0.39062 2.4062-1.1719 0.58203-0.78125 0.875-1.8672 0.875-3.2656v-7.5625h4.8906v15.312h-4.8906v-2.2188c-0.74219 0.89844-1.5234 1.5586-2.3438 1.9844-0.82422 0.41406-1.7344 0.625-2.7344 0.625-1.7617 0-3.1055-0.53906-4.0312-1.625-0.92969-1.082-1.3906-2.6602-1.3906-4.7344z"/>
  </symbol>
  <symbol id="n" overflow="visible">
   <path d="m17.75-9.3281v9.3281h-4.9219v-7.1406c0-1.3203-0.03125-2.2344-0.09375-2.7344s-0.16797-0.86719-0.3125-1.1094c-0.1875-0.3125-0.44922-0.55469-0.78125-0.73438-0.32422-0.17578-0.69531-0.26562-1.1094-0.26562-1.0234 0-1.8242 0.39844-2.4062 1.1875-0.58594 0.78125-0.875 1.8711-0.875 3.2656v7.5312h-4.8906v-15.312h4.8906v2.2344c0.73828-0.88281 1.5195-1.5391 2.3438-1.9688 0.83203-0.42578 1.75-0.64062 2.75-0.64062 1.7695 0 3.1133 0.54688 4.0312 1.6406 0.91406 1.0859 1.375 2.6562 1.375 4.7188z"/>
  </symbol>
  <symbol id="m" overflow="visible">
   <path d="m2.5781-20.406h8.7344c2.5938 0 4.582 0.57812 5.9688 1.7344 1.3945 1.1484 2.0938 2.7891 2.0938 4.9219 0 2.1367-0.69922 3.7812-2.0938 4.9375-1.3867 1.1562-3.375 1.7344-5.9688 1.7344h-3.4844v7.0781h-5.25zm5.25 3.8125v5.7031h2.9219c1.0195 0 1.8047-0.25 2.3594-0.75 0.5625-0.5 0.84375-1.2031 0.84375-2.1094 0-0.91406-0.28125-1.6172-0.84375-2.1094-0.55469-0.48828-1.3398-0.73438-2.3594-0.73438z"/>
  </symbol>
  <symbol id="l" overflow="visible">
   <path d="m2.3594-15.312h4.8906v15.031c0 2.0508-0.49609 3.6172-1.4844 4.7031-0.98047 1.082-2.4062 1.625-4.2812 1.625h-2.4219v-3.2188h0.85938c0.92578 0 1.5625-0.21094 1.9062-0.625 0.35156-0.41797 0.53125-1.2461 0.53125-2.4844zm0-5.9688h4.8906v4h-4.8906z"/>
  </symbol>
 </defs>
 <g>
  <path d="m296.11 433.75c10.301-6.0781 17.746-16.023 20.672-27.621 0.13672-0.57812 0.042968-1.1875-0.26953-1.6914-0.3125-0.50781-0.8125-0.86719-1.3906-1.0039-0.57422-0.14844-1.1875-0.054688-1.6953 0.25781s-0.86719 0.81641-1 1.3984c-2.6484 10.441-9.3672 19.391-18.656 24.848-0.55078-3.9414-1-7.8945-1.2617-11.863 0.15234-0.066406 0.32812-0.050781 0.46875-0.15625h-0.003906c7.6836-5.6406 13.289-13.656 15.949-22.809 0.33594-1.1914-0.35156-2.4297-1.543-2.7695-1.1914-0.33594-2.4297 0.35547-2.7656 1.543-2.1602 7.2891-6.4258 13.781-12.258 18.66-0.26562-6.7812-0.11328-13.566 0.46094-20.328-0.019531-2.4102 0.6875-4.7734 2.0273-6.7734 0.39062-0.44922 0.58594-1.0391 0.54297-1.6289-0.042968-0.59375-0.31641-1.1484-0.76953-1.5391-0.44922-0.38672-1.0352-0.58203-1.6289-0.53906-0.59375 0.046875-1.1445 0.32422-1.5352 0.77344-1.9883 2.6992-3.0742 5.9531-3.1016 9.3047-0.59375 7.0039-0.75 14.039-0.46875 21.066-0.023437 0.007813-0.050781 0-0.074218 0.007813h0.003906c-0.12891-0.058594-0.25781-0.125-0.37891-0.19922-5.832-3.6484-10.406-9-13.098-15.332-0.47266-1.1406-1.7812-1.6797-2.9258-1.207-1.1406 0.47266-1.6797 1.7852-1.207 2.9258 3.0469 7.1875 8.2305 13.266 14.848 17.406 0.87109 0.58594 1.8867 0.91406 2.9375 0.95312l0.023437-0.003906c0.29297 4.7656 0.75 9.5195 1.4453 14.25v-0.003906c-4.6719-0.78125-9.1211-2.5664-13.043-5.2266-4.8945-3.5312-9.4219-7.5469-13.512-11.984-0.41797-0.42578-0.98828-0.66797-1.582-0.67578-0.59766-0.003907-1.1719 0.23047-1.5938 0.64844-0.42578 0.41797-0.66406 0.98828-0.66797 1.582-0.003907 0.59766 0.23047 1.1719 0.64844 1.5938 4.3008 4.6562 9.0625 8.8633 14.215 12.555 4.8711 3.3789 10.512 5.4883 16.402 6.1367 0.49609 2.8281 0.94531 5.6641 1.5898 8.4727 0.23047 1.0195 1.1367 1.7422 2.1797 1.7422 0.67969-0.003907 1.3242-0.31641 1.7461-0.84766 0.42187-0.53125 0.58594-1.2266 0.4375-1.8906-0.58984-2.5859-0.99609-5.1953-1.4609-7.7969 0.29688-0.17578 0.55859-0.39844 0.77734-0.66406 0.31641-0.46484 0.49219-1.0078 0.51562-1.5703z"/>
  <path d="m331.3 401.75c0.57031-0.17188 1.043-0.56641 1.3203-1.0898 0.27734-0.52734 0.33594-1.1406 0.15625-1.707-0.76562-2.8047-1.2891-5.6719-1.5625-8.5664-0.20703-1.6992-0.42188-3.3945-0.72266-5.082v0.003906c-0.58984-5.3086-3.0938-10.215-7.043-13.809-0.95703-0.78516-2.3672-0.64844-3.1523 0.30469-0.78516 0.95312-0.64844 2.3633 0.30859 3.1484 3.1016 2.9375 5.0469 6.8906 5.4805 11.141 0.28516 1.6016 0.48828 3.2266 0.68359 4.8438v0.003906c0.30078 3.1562 0.88281 6.2773 1.7305 9.3359 0.28906 0.9375 1.1562 1.5781 2.1406 1.5781 0.22266 0 0.44531-0.035157 0.66016-0.10547z"/>
  <path d="m341.73 385.14c-0.55469 0.21094-1.0039 0.63281-1.2461 1.1758-0.24609 0.53906-0.26562 1.1562-0.054687 1.7109 2.2656 5.9805 3.2344 12.375 2.832 18.758-0.074219 1.2344 0.86328 2.3008 2.0977 2.3789l0.14062 0.003906v0.003907c1.1836 0 2.1602-0.92188 2.2383-2.1016 0.43359-7.0195-0.62891-14.051-3.1172-20.625-0.44141-1.1562-1.7344-1.7383-2.8906-1.3047z"/>
  <path d="m332.24 420.64h-0.039062c-1.2383 0.023437-2.2227 1.043-2.2031 2.2773l0.41016 25.043c0.019531 1.2227 1.0156 2.2031 2.2422 2.2031h0.035156c1.2383-0.023437 2.2227-1.043 2.207-2.2812l-0.41016-25.039c-0.023438-1.2227-1.0195-2.2031-2.2422-2.2031z"/>
  <path d="m315.87 430.74c-1.2344 0.019531-2.2266 1.0312-2.2148 2.2695 0.085937 7.2227-0.76953 14.426-2.5508 21.426-0.30469 1.1992 0.41797 2.418 1.6172 2.7227 0.17969 0.046875 0.36719 0.074219 0.55078 0.070313 1.0273 0 1.918-0.69531 2.1719-1.6875 1.875-7.3789 2.7812-14.973 2.6953-22.586-0.085938-1.207-1.0625-2.1562-2.2695-2.2148z"/>
  <path d="m304.17 379.58c0.21484 1.0391 1.1289 1.7852 2.1914 1.7891 0.15234 0 0.30469-0.019532 0.45312-0.050782 0.58203-0.12109 1.0938-0.46484 1.418-0.96094 0.32812-0.5 0.44141-1.1055 0.32031-1.6875-1.7344-8.3125-4.2773-16.438-7.5938-24.258-0.48438-1.1367-1.7969-1.668-2.9375-1.1875-1.1367 0.48438-1.668 1.8008-1.1875 2.9375 3.2031 7.5508 5.6602 15.391 7.3359 23.418z"/>
  <path d="m269.62 388.62c0.070312 0 0.14062-0.003906 0.21484-0.011719v0.003907c1.2305-0.12109 2.1328-1.2148 2.0156-2.4453-0.87109-8.9844-1.3438-18.125-1.3984-27.164 0.007813-0.59766-0.22656-1.1758-0.65625-1.5938-0.42578-0.42187-1.0039-0.64844-1.6016-0.63281-1.2383 0.011719-2.2344 1.0234-2.2266 2.2578 0.058594 9.1719 0.54297 18.441 1.4219 27.559 0.10938 1.1484 1.0742 2.0273 2.2305 2.0273z"/>
  <path d="m281.62 367.02 0.14844 0.003907-0.003907 0.003906c1.1797-0.003906 2.1602-0.91797 2.2383-2.0977 0.51953-7.918 0.1875-15.871-0.99609-23.723-0.19531-1.2148-1.3281-2.0508-2.5469-1.8789-0.58984 0.085937-1.1172 0.40234-1.4688 0.88281-0.35547 0.47656-0.50391 1.0781-0.41406 1.6641 1.1328 7.5312 1.4531 15.16 0.95312 22.762-0.039062 0.59375 0.15625 1.1758 0.55078 1.625 0.39062 0.44531 0.94531 0.71875 1.5391 0.75781z"/>
  <path d="m249.01 413.52c0.082031-1.2344-0.85156-2.3008-2.0859-2.3828-1.2188-0.03125-2.2578 0.87891-2.3867 2.0898-0.52344 7.8867-0.59766 16.805 5.2461 22.816v-0.003907c0.85938 0.88281 2.2734 0.90234 3.1602 0.046876 0.88672-0.85938 0.91016-2.2734 0.054688-3.1641-4.5625-4.6914-4.4727-12.156-3.9883-19.402z"/>
  <path d="m272.95 438.66c-0.58594 0.097656-1.1094 0.42188-1.457 0.90625-0.34766 0.48438-0.48438 1.0859-0.38672 1.6719l1.6094 9.7617h-0.003907c0.17969 1.082 1.1133 1.875 2.2109 1.8789 0.12109 0 0.24219-0.011718 0.35938-0.03125 0.58984-0.097656 1.1133-0.42188 1.4609-0.90234 0.34375-0.48047 0.48438-1.082 0.39062-1.668l-1.6094-9.7734c-0.09375-0.58594-0.42188-1.1133-0.90234-1.457-0.48438-0.34766-1.0859-0.48438-1.6719-0.38672z"/>
  <path d="m261.05 399.53-10.25-20.121h0.003906c-0.26953-0.53125-0.73828-0.93359-1.3047-1.1172-0.56641-0.1875-1.1836-0.13672-1.7148 0.13281s-0.92969 0.73828-1.1133 1.3086c-0.18359 0.56641-0.13281 1.1797 0.14062 1.7109l10.25 20.121h-0.003906c0.38281 0.75 1.1523 1.2227 1.9961 1.2227 0.35547 0 0.70312-0.085937 1.0195-0.24609 0.52734-0.26953 0.92969-0.73828 1.1133-1.3047 0.18359-0.5625 0.13281-1.1797-0.13672-1.707z"/>
  <path d="m246.1 360.78c0.097656 0.49609 0.15234 1.0039 0.26172 1.5v-0.003906c0.22656 1.0273 1.1367 1.7617 2.1875 1.7617 0.16406 0 0.32422-0.019531 0.48438-0.054687 0.57812-0.12891 1.0859-0.48047 1.4062-0.98047 0.31641-0.5 0.42578-1.1094 0.29688-1.6875-3.168-14.582-1.2109-29.812 5.543-43.121 0.55859-1.1016 0.11719-2.4492-0.98438-3.0078-1.1055-0.55859-2.4492-0.11719-3.0078 0.98438-2.5625 5.0664-4.4883 10.43-5.7422 15.969-0.80859-2.2344-1.7891-4.4062-2.9297-6.4922-2.6367-5.0078-6.7383-9.0898-11.758-11.707-1.1094-0.54297-2.4531-0.085937-2.9961 1.0273-0.54297 1.1094-0.082031 2.4531 1.0273 2.9961 4.1875 2.2344 7.6016 5.6758 9.8125 9.8711 2.2461 4.3555 3.9766 8.9609 5.1523 13.723 0.039063 0.13281 0.16016 0.19922 0.21875 0.31641-0.20703 2.3945-0.28516 4.7969-0.23828 7.2031-4.0586-4.5898-8.6836-8.6484-13.762-12.078-1-0.71875-2.3945-0.49609-3.1211 0.5-0.72656 0.99609-0.50781 2.3906 0.48438 3.1211 8.043 5.8398 15.426 11.742 17.402 19.754 0.039062 0.16797 0.1875 0.25781 0.26172 0.40625z"/>
  <path d="m228.13 394.27c-4.5469 4.7305-8.0273 10.379-10.215 16.562-0.56641-2.8594-1.2734-5.6797-2.1172-8.4609 0.60547-0.37891 0.99219-1.0273 1.0312-1.7422 0.48438-9.1719 3.5586-18.02 8.8594-25.516 0.71094-1.0117 0.47266-2.4023-0.53516-3.1172-1.0039-0.71094-2.3984-0.48047-3.1172 0.52344-4.6484 6.582-7.7227 14.145-8.9883 22.102-1.5977-4.0117-3.4805-7.9023-5.6289-11.645-0.625-1.0703-2-1.4297-3.0664-0.80469-1.0703 0.625-1.4297 2-0.80469 3.0703 5.4531 9.2852 9.0938 19.523 10.723 30.168 0.16797 1.0938 1.1055 1.9023 2.2109 1.9062l0.050781-0.003906v-0.003906c0.26172 0.67578 0.83594 1.1758 1.5391 1.3477 0.16406 0.03125 0.32813 0.050781 0.49219 0.054687 1.0469-0.003906 1.957-0.73047 2.1875-1.75 1.6797-7.375 5.3477-14.148 10.605-19.586 0.84766-0.89062 0.82031-2.3047-0.070313-3.1562-0.88672-0.85547-2.2969-0.83203-3.1562 0.050781z"/>
  <path d="m266.5 341.14 0.13281 0.003906v0.003907c1.1875 0 2.168-0.92578 2.2344-2.1133 0.3125-5.2656 0.87891-10.621 1.6914-15.902 0.1875-1.2227-0.65234-2.3672-1.875-2.5547-1.2188-0.17188-2.3555 0.66406-2.5547 1.8789-0.83203 5.418-1.418 10.91-1.7344 16.32v-0.003906c-0.035156 0.59375 0.16797 1.1758 0.5625 1.6211 0.39453 0.44531 0.94922 0.71094 1.543 0.74609z"/>
  <path d="m209.1 371.23 0.10547 0.003906-0.003906 0.003907c1.1992 0 2.1836-0.94141 2.2383-2.1367 0.30469-7.1406-1.9648-14.148-6.3984-19.75-0.76562-0.96484-2.168-1.1328-3.1406-0.37109-0.96875 0.76172-1.1406 2.1641-0.38281 3.1406 3.7422 4.7695 5.6758 10.711 5.4492 16.77-0.03125 0.59375 0.17969 1.1758 0.57812 1.6133 0.40234 0.44141 0.96094 0.70313 1.5547 0.72656z"/>
  <path d="m186.66 358.21c-1.2188 0.22266-2.0234 1.3906-1.8008 2.6055l5.0195 27.457 0.003907 0.003906c0.19531 1.0625 1.1211 1.8359 2.2031 1.8359 0.13281 0 0.26953-0.015625 0.40234-0.039062 1.2188-0.22266 2.0234-1.3906 1.8008-2.6055l-5.0195-27.457v-0.003907c-0.23438-1.2109-1.3945-2.0117-2.6094-1.7969z"/>
  <path d="m172.43 346.1c-0.57031-1.6328-0.55078-3.4102 0.054687-5.0273 0.65625-1.0508 0.33203-2.4336-0.71875-3.0898s-2.4336-0.33594-3.0898 0.71484c-1.293 2.5859-1.5195 5.5703-0.63281 8.3203 1.1758 5.6211 2.543 11.359 4.0625 17.051 0.26562 0.98047 1.1523 1.6602 2.168 1.6641 0.19531-0.003907 0.38672-0.027344 0.57812-0.078125 1.1953-0.32422 1.9023-1.5508 1.5859-2.7461-1.5039-5.6094-2.8477-11.27-4.0078-16.809z"/>
  <path d="m203.58 337.29 0.17578-0.011718c0.58984-0.042969 1.1406-0.32422 1.5273-0.77344 0.38672-0.45312 0.57422-1.0391 0.52734-1.6328-1.1211-14.059-3.4336-27.996-6.918-41.664-0.14062-0.57812-0.50781-1.0781-1.0195-1.3828-0.51172-0.30469-1.125-0.39062-1.7031-0.23828-1.1992 0.30859-1.9219 1.5273-1.6172 2.7266 3.418 13.418 5.6914 27.105 6.7969 40.91 0.089844 1.1641 1.0625 2.0664 2.2305 2.0664z"/>
  <path d="m220.84 291.84c-3.8164 9.6875-5.7969 20-5.8438 30.41-0.003906 1.2383 0.99609 2.2461 2.2305 2.2539h0.011719c1.2344-0.003906 2.2344-0.99609 2.2422-2.2305 0.035156-9.8594 1.9102-19.621 5.5234-28.793 0.45312-1.1523-0.10938-2.4531-1.2617-2.9062-1.1523-0.45312-2.4492 0.11328-2.9023 1.2656z"/>
  <path d="m187.58 338.99c0.76172-0.003907 1.4688-0.39063 1.8789-1.0273 0.41406-0.64062 0.47266-1.4453 0.16016-2.1406-2.5273-5.582-5.2383-11.266-8.0664-16.898-1.1016-2.7773-3.1016-5.1094-5.6758-6.6328-0.53516-0.25781-1.1523-0.29297-1.7109-0.097657-0.5625 0.19922-1.0234 0.60938-1.2812 1.1445-0.53516 1.1133-0.070313 2.4531 1.0469 2.9883 1.6641 1.1172 2.9297 2.7305 3.6211 4.6133 2.8008 5.5781 5.4844 11.207 7.9883 16.734 0.36328 0.80078 1.1602 1.3164 2.0391 1.3164z"/>
  <path d="m179.3 295.07c0.5625-0.1875 1.0273-0.59375 1.293-1.125 0.26562-0.53516 0.30469-1.1484 0.11719-1.7148-0.19141-0.5625-0.59766-1.0273-1.1328-1.2891-0.53125-0.26562-1.1484-0.30469-1.7109-0.11328-6.8047 2.332-12.797 6.5703-17.258 12.215 0.10547-3.2148 0.33203-6.4258 0.73438-9.625 0.26953-0.1875 0.49219-0.43359 0.65234-0.71875 3.0547-6.082 8.5508-10.574 15.117-12.359 0.57422-0.15625 1.0625-0.53516 1.3555-1.0547 0.29688-0.51562 0.375-1.1289 0.21484-1.7031s-0.53906-1.0625-1.0586-1.3555c-0.51953-0.29297-1.1328-0.36719-1.707-0.20703-4.9414 1.4219-9.418 4.1406-12.957 7.875 0.72656-3.2852 1.6016-6.5352 2.6445-9.7188 0.1875-0.56641 0.14453-1.1836-0.125-1.7148-0.26562-0.53125-0.73438-0.93359-1.3008-1.1211s-1.1797-0.14063-1.7109 0.12891c-0.53125 0.26953-0.93359 0.74219-1.1172 1.3047-4.4961 13.781-6.1797 28.324-4.957 42.766 0.10156 1.1602 1.0703 2.0469 2.2305 2.0469 0.058594 0 0.125-0.003906 0.19141-0.011719 0.59375-0.050781 1.1406-0.33203 1.5234-0.78906 0.38281-0.45312 0.57031-1.0391 0.51953-1.6328-0.11328-1.3047-0.078125-2.625-0.14062-3.9336 3.8281-7.6172 10.504-13.418 18.582-16.148z"/>
  <path d="m170.7 262.81c0.13672 1.125 1.0859 1.9688 2.2188 1.9727 0.09375 0 0.18359-0.003906 0.27344-0.015625 1.2305-0.14844 2.1055-1.2656 1.9609-2.4961-1.6172-12.453-7.6836-23.902-17.082-32.238-0.92578-0.81641-2.3398-0.73047-3.1602 0.19531-0.82031 0.92578-0.73828 2.3438 0.1875 3.1641 8.582 7.6016 14.125 18.051 15.602 29.418z"/>
  <path d="m200.8 273.81c-0.035156 0.59375 0.16797 1.1758 0.5625 1.6211 0.39844 0.44141 0.95312 0.71094 1.5469 0.74219l0.125 0.003906v0.003907c1.1914-0.003907 2.1719-0.92969 2.2383-2.1172 0.84766-15.613-1.3906-31.238-6.5898-45.98-0.19531-0.56641-0.60938-1.0273-1.1484-1.2852-0.53516-0.26172-1.1562-0.29297-1.7188-0.09375s-1.0234 0.61719-1.2773 1.1562-0.28125 1.1602-0.078125 1.7188c5.0039 14.184 7.1562 29.215 6.3398 44.23z"/>
  <path d="m241.36 243.21c-0.44141-0.40234-1.0234-0.60938-1.6172-0.57812s-1.1484 0.29688-1.543 0.74219c-4.7344 5.2617-7.8555 11.77-8.9922 18.754-1.8945-5.7578-4.6016-11.215-8.0391-16.211-0.70703-1.0117-2.0977-1.2617-3.1133-0.55859-1.0117 0.69922-1.2695 2.0898-0.57422 3.1055 4.5625 6.5859 7.7383 14.027 9.332 21.875 0.20703 1.0508 1.1289 1.8047 2.1992 1.8047 0.14062 0 0.28125-0.015625 0.42188-0.039063 0.41406 0.45313 1 0.71875 1.6172 0.72266 0.058593 0 0.12109-0.003907 0.1875-0.011719l-0.003907 0.003906c0.59375-0.050781 1.1406-0.33203 1.5234-0.78516 0.38672-0.45312 0.57422-1.043 0.52344-1.6328-0.67188-8.8008 2.3086-17.492 8.2422-24.031 0.39844-0.44141 0.60547-1.0195 0.57422-1.6133s-0.29687-1.1484-0.73828-1.5469z"/>
  <path d="m174.94 226.54c0.03125 1.2148 1.0234 2.1875 2.2383 2.1875l0.054688-0.003906v-0.003906c0.59375-0.011719 1.1562-0.25781 1.5664-0.69141 0.41016-0.42969 0.63281-1.0039 0.61719-1.5977-0.1875-8.0273-1.7891-15.961-4.7266-23.434-0.44922-1.1523-1.7461-1.7188-2.8984-1.2695-1.1523 0.44922-1.7188 1.7461-1.2695 2.8984 2.7461 6.9883 4.2422 14.406 4.418 21.914z"/>
  <path d="m217.37 197.93c0.41406 0.61328 1.1055 0.98047 1.8477 0.98047l0.13281-0.003906h-0.003906c0.78516-0.046875 1.4883-0.50391 1.8555-1.1992 3.6016-6.8594 7.9336-13.312 12.918-19.246 1.3164-1.5625 2.4453-2.6367 3.6758-2.7734v0.003906c1.2266-0.13672 2.1133-1.2461 1.9766-2.4727-0.054687-0.59375-0.34766-1.1406-0.8125-1.5156-0.46875-0.375-1.0664-0.54297-1.6562-0.46484-2.6914 0.51953-5.0664 2.082-6.6133 4.3438-3.3594 4.0586-6.4336 8.3477-9.1914 12.836-0.83203-9.9883 0.11328-20.047 2.7891-29.707 0.26172-1.8008 0.94141-3.5156 1.9766-5.0117 0.79688-0.94531 0.67969-2.3555-0.26562-3.1562-0.94531-0.79688-2.3594-0.67578-3.1562 0.26953-1.5039 2.0273-2.5039 4.3828-2.9219 6.875-2.9102 10.473-3.8398 21.398-2.7383 32.215-5.2734-7.8086-11.734-14.746-19.145-20.562-0.48047-0.35156-1.0781-0.5-1.668-0.41016-0.58594 0.089843-1.1133 0.41016-1.4688 0.88672-0.73438 0.99609-0.51953 2.3984 0.47656 3.1328 8.6641 7.0547 16.094 15.496 21.992 24.98z"/>
  <path d="m196.27 208.02c0.082031 1.1797 1.0586 2.0938 2.2383 2.0977l0.14844-0.003907v-0.003906c0.59375-0.039063 1.1445-0.3125 1.5391-0.75781 0.39062-0.44922 0.58984-1.0312 0.54688-1.625-1.082-7.9219-3.832-15.52-8.0703-22.297-0.58203-1.0898-1.9375-1.5-3.0312-0.91797-1.0898 0.58203-1.5 1.9375-0.91797 3.0312 3.9102 6.2266 6.4805 13.203 7.5469 20.477z"/>
  <path d="m230.46 204.93c-0.58594-0.11328-1.1914 0.011718-1.6797 0.34766-0.49219 0.33594-0.82812 0.85156-0.9375 1.4375-1.7656 9.3516-2.2461 18.902-1.4258 28.387 0.097656 1.1602 1.0664 2.0508 2.2305 2.0508 0.058594 0 0.125-0.003906 0.19141-0.011719 0.59375-0.046875 1.1406-0.33203 1.5234-0.78516 0.38281-0.45703 0.57031-1.043 0.51562-1.6367-0.78125-9.0781-0.32422-18.219 1.3633-27.172 0.10938-0.58594-0.015625-1.1875-0.34766-1.6797-0.33594-0.48828-0.85156-0.82422-1.4336-0.9375z"/>
  <path d="m260.26 211.5c-0.77344 0.96875-0.61719 2.3789 0.35156 3.1523 4.0742 2.9883 7.7695 6.4609 11.008 10.34 2.1445 2.6953 3.5625 5.8906 4.125 9.2852 0.023437 4.6953-0.21875 9.3867-0.72656 14.055-4.7656-7.9336-11.059-14.84-18.52-20.316-0.48047-0.34766-1.0781-0.49219-1.668-0.40234-0.58594 0.09375-1.1094 0.41406-1.4609 0.89453-0.72656 1-0.50781 2.4023 0.49219 3.1289 8.0078 5.8477 14.574 13.445 19.203 22.211-0.054687 0.11719-0.13281 0.22266-0.1875 0.33984v0.003906c-0.24609 0.54297-0.26562 1.1602-0.054687 1.7188 0.21094 0.55859 0.63672 1.0078 1.1797 1.25 0.54688 0.24219 1.1641 0.25781 1.7227 0.042969 0.55469-0.21484 1.0039-0.64062 1.2422-1.1875 0.35938-0.80469 0.86719-1.543 1.2734-2.3281 0.47656-0.33984 0.79297-0.85938 0.88281-1.4375l0.023438-0.21484h-0.003907c4.1719-7.3359 10.164-13.469 17.398-17.812 1.0547-0.63281 1.4023-2.0039 0.77344-3.0625-0.62891-1.0586-1.9961-1.4102-3.0586-0.78516-5.457 3.293-10.281 7.5273-14.254 12.508 0.089844-1.4922 0.13281-2.9883 0.16797-4.4844 0.019531-0.085938 0.10547-0.13672 0.11719-0.22656v-0.023437c0.25-0.31641 0.40625-0.69141 0.45313-1.0938 1.0078-9.7227 5.918-18.621 13.605-24.656 0.96875-0.76953 1.1328-2.1758 0.36719-3.1445s-2.1758-1.1328-3.1445-0.36719c-5.0859 4.0391-9.1406 9.2227-11.84 15.125-0.13281-1.5352-0.22656-3.0742-0.41406-4.6055v0.003906c-0.47266-9.0234-3.9453-17.625-9.8672-24.445-0.875-0.875-2.293-0.87109-3.1641 0.003906-0.875 0.875-0.87109 2.293 0.003906 3.168 5.1797 6.1328 8.1914 13.801 8.5742 21.82 0.089844 0.72266 0.12109 1.4531 0.19531 2.1758-3.4297-4.1133-7.3398-7.7969-11.645-10.98-0.96875-0.76953-2.375-0.61328-3.1523 0.34766z"/>
  <path d="m255.87 255.55c-0.42188-1.1602-1.7031-1.7656-2.8672-1.3438-1.1602 0.41797-1.7656 1.7031-1.3438 2.8672l8.9688 24.836c0.32031 0.89063 1.1602 1.4844 2.1055 1.4844 0.25781 0 0.51562-0.046876 0.76172-0.13672 0.55859-0.20312 1.0117-0.61719 1.2656-1.1562 0.25391-0.53516 0.28125-1.1523 0.078125-1.7109z"/>
  <path d="m246.78 305.43c0.23047 1.0195 1.1367 1.7422 2.1797 1.7422 0.16797 0 0.33594-0.019531 0.5-0.058594 0.57812-0.12891 1.082-0.48828 1.3984-0.98828 0.31641-0.50391 0.41797-1.1133 0.28516-1.6914l-4.7617-20.824c-0.27734-1.207-1.4766-1.9609-2.6797-1.6836-1.207 0.27344-1.9609 1.4727-1.6875 2.6797z"/>
  <path d="m273.38 310.64c1.2227 0 2.2188-0.98047 2.2422-2.2031 0.15234-8.5312 2.4492-16.891 6.6719-24.309 0.60156-1.0742 0.22266-2.4336-0.84766-3.043-1.0703-0.60547-2.4336-0.23438-3.0469 0.83594-4.5938 8.0664-7.0898 17.156-7.2617 26.441-0.019531 1.2383 0.96484 2.2578 2.2031 2.2773z"/>
  <path d="m285.14 257.78c-0.95312 0.78906-1.0859 2.1992-0.30078 3.1523 5.4023 6.5234 8.7891 14.477 9.75 22.887 0.12109 1.1367 1.0781 2 2.2227 2.0039 0.082032 0 0.16406-0.007812 0.24609-0.015624 0.58984-0.066407 1.1289-0.35938 1.5039-0.82422 0.37109-0.46094 0.54297-1.0547 0.48047-1.6445-1.0586-9.2812-4.793-18.059-10.746-25.258-0.78906-0.95312-2.1992-1.0859-3.1562-0.30078z"/>
  <path d="m289.63 297.64c-1.0781 0.60547-1.4609 1.9727-0.85156 3.0508 2.9805 5.2852 5.2617 10.938 6.7852 16.812 0.25781 0.98828 1.1484 1.6797 2.1719 1.6836 0.1875-0.003906 0.375-0.027344 0.55859-0.070312 1.1953-0.3125 1.918-1.5312 1.6133-2.7305-1.625-6.2539-4.0508-12.266-7.2266-17.895-0.28906-0.51953-0.77344-0.89844-1.3477-1.0586-0.57031-0.16016-1.1836-0.085938-1.7031 0.20703z"/>
  <path d="m295.71 342.35c0.25-0.003906 0.5-0.046874 0.73828-0.125 1.168-0.41016 1.7812-1.6875 1.3789-2.8555-2.6211-7.457-5.8594-14.688-9.6758-21.609-0.59766-1.082-1.9609-1.4766-3.0469-0.87891-1.082 0.59766-1.4766 1.9609-0.87891 3.0469 3.6992 6.6992 6.832 13.695 9.3672 20.918 0.31641 0.89844 1.1641 1.5 2.1172 1.5039z"/>
  <path d="m321.57 336.78c0.51172-0.046875 0.98828-0.26953 1.3516-0.62891 5.082-5.207 10.516-10.062 16.266-14.523 0.97656-0.75781 1.1562-2.168 0.39844-3.1445-0.75781-0.98047-2.168-1.1602-3.1445-0.40234-4.7734 3.7461-9.332 7.7578-13.66 12.012 0.55469-2.957 1.0234-5.9102 1.6562-8.8555 0.61328-0.18359 1.1172-0.62891 1.3672-1.2188 2.4414-5.9766 7.5625-10.449 13.812-12.062 1.1953-0.3125 1.9141-1.5352 1.6016-2.7305-0.30859-1.1953-1.5312-1.9141-2.7266-1.6016-4.2969 1.1445-8.2148 3.3984-11.363 6.5352 0.67578-2.7109 1.2383-5.4531 1.9766-8.1406v0.003906c0.19531-1.4375 0.89453-2.7578 1.9766-3.7266 1.0703-0.61328 1.4414-1.9844 0.82422-3.0547-0.61719-1.0742-1.9844-1.4414-3.0547-0.82812-2.1484 1.5195-3.6094 3.8242-4.0664 6.418-3.6914 13.449-6.582 27.109-8.6602 40.902-0.089844 0.58984 0.058594 1.1875 0.41016 1.668 0.35547 0.47656 0.88281 0.79297 1.4688 0.88281 0.11328 0.015625 0.22656 0.027344 0.33984 0.027344 1.1094-0.003906 2.0469-0.8125 2.2109-1.9102 0.28125-1.875 0.70312-3.7461 1.0156-5.6211z"/>
  <path d="m310.51 299.58c0.24609 0.089844 0.50391 0.13672 0.76172 0.13672 0.94531 0 1.7852-0.59375 2.1055-1.4805 3.5898-9.9219 7.8984-19.574 12.891-28.871 0.58594-1.0898 0.17578-2.4492-0.91406-3.0352-1.0898-0.58594-2.4492-0.17578-3.0352 0.91406-5.0977 9.4922-9.4922 19.34-13.152 29.473-0.20312 0.55859-0.17578 1.1719 0.078126 1.7109 0.25391 0.53906 0.70703 0.95312 1.2656 1.1523z"/>
  <path d="m309.63 261.04c-0.23828 1.2148 0.55078 2.3906 1.7656 2.6289 0.14453 0.03125 0.28906 0.042969 0.43359 0.046876 1.0703-0.003907 1.9883-0.76172 2.1992-1.8125 2.6211-13.516 2.0859-27.457-1.5664-40.734-0.15625-0.57422-0.53516-1.0664-1.0508-1.3594-0.51953-0.29688-1.1328-0.37109-1.707-0.21484-0.57422 0.16016-1.0625 0.53906-1.3555 1.0586-0.29297 0.51953-0.36719 1.1328-0.20703 1.707 3.4688 12.605 3.9805 25.844 1.4883 38.68z"/>
  <path d="m259.56 170.68c-7.332 6.9805-11.91 16.363-12.895 26.438-0.10938 1.2305 0.80078 2.3164 2.0352 2.4258 0.066406 0.003906 0.13281 0.011719 0.19531 0.011719 1.1602 0 2.1289-0.88672 2.2305-2.043 0.88281-8.9883 4.9727-17.359 11.52-23.582 0.87109-0.85547 0.89844-2.2539 0.054687-3.1445-0.83984-0.88672-2.2422-0.93359-3.1406-0.10547z"/>
  <path d="m237.29 159.91c0.26953 0.10938 0.55859 0.16797 0.84766 0.16797 0.91016 0 1.7305-0.55078 2.0742-1.3945 3.1914-7.668 8.918-14.008 16.219-17.965 1.082-0.59375 1.4805-1.957 0.88672-3.0391-0.59766-1.082-1.957-1.4805-3.0391-0.88672-8.2031 4.4492-14.633 11.578-18.215 20.195-0.22266 0.55078-0.22266 1.168 0.007813 1.7148s0.66797 0.98047 1.2188 1.207z"/>
  <path d="m206.93 159.1c0.27734 1.207 1.4766 1.9609 2.6797 1.6875 0.58203-0.13281 1.082-0.48828 1.3984-0.99219 0.31641-0.50391 0.41797-1.1094 0.28906-1.6875-1.6133-7.0742-3.6641-14.043-6.1484-20.859-0.42188-1.1641-1.707-1.7617-2.8711-1.3398-1.1641 0.42188-1.7617 1.707-1.3398 2.8711 2.4219 6.6406 4.4219 13.43 5.9922 20.32z"/>
  <path d="m230.36 138.77c-0.089844 0.58984 0.058594 1.1914 0.41016 1.6719 0.35547 0.48047 0.88672 0.79688 1.4805 0.88281 0.58984 0.089844 1.1914-0.066406 1.668-0.42578 0.47656-0.35938 0.78906-0.89062 0.87109-1.4844 1.2539-8.6602 0.57031-17.492-1.9961-25.855-0.16797-0.57422-0.55859-1.0547-1.0859-1.332-0.53125-0.27734-1.1484-0.33203-1.7148-0.14453-0.56641 0.17188-1.043 0.56641-1.3203 1.0938-0.27734 0.52344-0.33203 1.1406-0.15625 1.707 2.3711 7.7266 3 15.887 1.8438 23.887z"/>
  <path d="m342.28 372.03c0.32812-10.195-1.6719-20.336-5.8477-29.645-0.50781-1.1289-1.832-1.6328-2.9609-1.125-1.1328 0.50781-1.6367 1.832-1.1289 2.9609 3.8984 8.6836 5.7695 18.145 5.4648 27.656-0.023438 0.59375 0.19141 1.1719 0.59766 1.6055 0.40625 0.43359 0.96875 0.69141 1.5625 0.70703l0.078125 0.003906-0.003907 0.003906c1.207 0 2.1992-0.96094 2.2383-2.168z"/>
  <path d="m351.77 295.43c0.10547 0 0.20703-0.007813 0.3125-0.023438 1.2266-0.16797 2.082-1.2969 1.9141-2.5234-1.5195-10.98-3.8828-21.828-7.0625-32.449-0.35156-1.1836-1.5977-1.8555-2.7812-1.5039-1.1836 0.35547-1.8594 1.6016-1.5039 2.7852 3.1094 10.402 5.418 21.023 6.9062 31.777 0.15234 1.1094 1.0977 1.9336 2.2148 1.9375z"/>
  <path d="m337.14 234.36c0.16016 0.89844 0.85156 1.6055 1.7422 1.793 0.15234 0.035156 0.30859 0.050781 0.46484 0.050781 0.74219 0 1.4375-0.37109 1.8516-0.98828 4.6758-6.8984 10.32-13.09 16.762-18.375 0.95312-0.78516 1.0938-2.1953 0.30859-3.1523-0.78906-0.95312-2.1992-1.0898-3.1523-0.30469-5.2812 4.332-10.055 9.2461-14.242 14.645-0.34766-6.4531 0.37891-12.922 2.1445-19.141 0.67969 0.25391 1.4414 0.09375 1.957-0.41016 5.4609-4.5625 11.414-8.5078 17.742-11.762 1.1016-0.56641 1.5352-1.9141 0.96875-3.0156-0.56641-1.0977-1.9141-1.5312-3.0117-0.96875-5.5625 2.9102-10.84 6.332-15.766 10.219 1.2227-3.3359 2.6641-6.5859 4.3086-9.7344 0.57031-1.0977 0.14844-2.4531-0.94922-3.0273-1.0938-0.57031-2.4492-0.14844-3.0234 0.94922-2.6758 5.0898-4.8203 10.441-6.3984 15.973-1.9688-5.957-4.0742-11.871-6.4609-17.613h0.003906c-0.47656-1.1445-1.7852-1.6836-2.9258-1.2109-1.1445 0.47656-1.6836 1.7852-1.2109 2.9258 3.3477 8.0781 6.2656 16.328 8.7422 24.711-0.94531 6.1133-0.89453 12.34 0.14453 18.438z"/>
  <path d="m312.29 195.41c0.30859 0.91406 1.1641 1.5312 2.1289 1.5312l0.16016-0.003906v-0.003906c1.0195-0.074219 1.8594-0.82422 2.043-1.832 0.94531-5.1367 1.9688-10.594 3.0078-16.117l0.69922-3.7344c0.70703-3.707 1.6094-6.3867 3.7578-7.4062v0.003906c1.1172-0.53125 1.5938-1.8711 1.0625-2.9883-0.53125-1.1172-1.8711-1.5898-2.9883-1.0586-3.6484 2.3438-5.9648 6.2891-6.2344 10.617l-0.69922 3.7422c-0.52344 2.7891-1.043 5.5664-1.5547 8.2891h0.003906c-2.5664-5.9492-5.7109-11.633-9.3984-16.961-0.70313-1.0195-2.0977-1.2734-3.1172-0.57031-1.0156 0.70313-1.2695 2.1016-0.56641 3.1172 4.9844 7.1992 8.9219 15.066 11.695 23.375z"/>
  <path d="m287.81 167.3h-0.015625c-1.2305 0.003906-2.2305 0.99609-2.2422 2.2266-0.046876 7.8359 0.90625 15.648 2.832 23.242 0.25391 0.99219 1.1484 1.6875 2.1719 1.6914 0.1875 0 0.37109-0.023438 0.55469-0.070313 0.57422-0.14844 1.0703-0.51562 1.3711-1.0273 0.30469-0.51172 0.39453-1.1211 0.24609-1.6992-1.8359-7.2227-2.7383-14.648-2.6914-22.102 0.007813-1.2383-0.98828-2.25-2.2266-2.2617z"/>
  <path d="m306.55 154.92c0.57812 0.14453 1.1875 0.050781 1.6953-0.25781 0.51172-0.30859 0.875-0.80859 1.0117-1.3867 1.7539-7.1719 4.3516-14.109 7.7383-20.672 0.56641-1.0977 0.13672-2.4492-0.96094-3.0195-1.1016-0.56641-2.4531-0.13672-3.0195 0.96484-3.5508 6.875-6.2734 14.148-8.1094 21.664-0.14062 0.57812-0.046875 1.1875 0.26172 1.6953s0.80469 0.875 1.3828 1.0117z"/>
  <path d="m283.12 145.38c0.058594 1.1719 1.0117 2.0977 2.1836 2.125l0.054687 0.003906c1.1523 0 2.1172-0.875 2.2305-2.0234 0.38672-11.465 2.9844-22.75 7.6523-33.234 0.20312-0.42969 0.47266-0.83203 0.79687-1.1836 0.67969 0.85547 1.875 1.0977 2.8359 0.57422 0.95703-0.52344 1.3984-1.6641 1.043-2.6992-0.34766-0.98438-1.1094-1.7656-2.0859-2.1367-1.1797-0.48047-2.5078-0.42969-3.6484 0.14062-1.2852 0.73828-2.3008 1.8633-2.9023 3.2188-3.543 7.1953-5.8359 14.941-6.7773 22.906-2.1484-5.1836-5.1211-9.9883-8.8086-14.219-0.39453-0.44531-0.94922-0.71875-1.5391-0.75391-0.59375-0.039062-1.1797 0.16016-1.625 0.55469-0.44531 0.39453-0.71484 0.94922-0.75391 1.543-0.035156 0.59375 0.16406 1.1758 0.55859 1.6211 5.875 6.5977 9.6328 14.809 10.785 23.562z"/>
  <path d="m360.01 229.32c-1.2031 0.28906-1.9492 1.5-1.6641 2.7031 1.4102 5.9414 2.3477 11.98 2.8047 18.07 0.085937 1.168 1.0625 2.0703 2.2344 2.0703l0.16797-0.011718c0.59375-0.042969 1.1406-0.32031 1.5273-0.76953 0.39062-0.45312 0.58203-1.0391 0.53516-1.6289-0.47266-6.3242-1.4453-12.598-2.9062-18.77-0.29297-1.1992-1.4961-1.9375-2.6992-1.6641z"/>
  <path d="m364.26 322.88c-2.1172-5.8359-3.6289-11.867-4.5195-18.012-0.18359-1.2109-1.3125-2.0508-2.5273-1.875-1.2188 0.17188-2.0664 1.293-1.9023 2.5117 0.92969 6.4453 2.5156 12.781 4.7383 18.906 0.32031 0.88281 1.1602 1.4727 2.1055 1.4766 0.25781 0 0.51953-0.046875 0.76562-0.13672 1.1602-0.42578 1.7578-1.7109 1.3398-2.8711z"/>
  <path d="m350.89 334.51c0.75781 7.5859 2.375 15.062 4.8242 22.285 0.30469 0.91016 1.1602 1.5234 2.1211 1.5273 0.24219 0 0.48437-0.042968 0.71484-0.12109 0.56641-0.19141 1.0312-0.59375 1.293-1.1289 0.26562-0.53125 0.30469-1.1484 0.11328-1.7109-2.3359-6.8984-3.8828-14.039-4.6055-21.289-0.054687-0.59375-0.34375-1.1406-0.80469-1.5195-0.45703-0.38281-1.0508-0.5625-1.6445-0.50391s-1.1406 0.35156-1.5195 0.8125c-0.375 0.46094-0.55469 1.0547-0.49219 1.6484z"/>
  <path d="m364.98 392.6c0.10156 0.011719 0.20703 0.019532 0.3125 0.019532 1.1133-0.003907 2.0586-0.82813 2.2148-1.9336l3.6484-26.164h-0.003906c0.17188-1.2266-0.67969-2.3594-1.9062-2.5312s-2.3594 0.68359-2.5352 1.9102l-3.6484 26.172h0.003906c-0.17187 1.2266 0.6875 2.3594 1.9141 2.5273z"/>
  <path d="m389.93 410.63c-3.5938 3.8984-6.6562 8.2539-9.1133 12.949 0.98438-7.1445 2.0547-14.305 3.2891-21.402 0.078125-2.5156 1.1445-4.9023 2.9609-6.6406 1.0352-0.67969 1.3203-2.0664 0.64063-3.1016-0.67969-1.0312-2.0664-1.3203-3.1016-0.64062-2.9219 2.3672-4.7109 5.8594-4.9219 9.6172-1.4531 8.3867-2.7031 16.863-3.8164 25.293v-0.003906c-2.1406-4.7852-5.2812-9.0586-9.207-12.531-0.44922-0.39844-1.0352-0.59766-1.6289-0.5625-0.59375 0.039063-1.1523 0.3125-1.543 0.76172-0.39453 0.44531-0.59375 1.0352-0.55078 1.6289 0.039063 0.59375 0.31641 1.1484 0.76953 1.5391 7.0273 6.1523 11.004 15.078 10.875 24.418-0.035157 1.1797 0.85547 2.1836 2.0312 2.293 0.070312 0.003906 0.14062 0.011719 0.20703 0.011719 1.0977 0 2.0352-0.79688 2.207-1.8828 1.832-10.742 6.7617-20.715 14.184-28.695 0.83984-0.90625 0.78906-2.3242-0.11719-3.1641-0.90625-0.84375-2.3242-0.79297-3.1641 0.11328z"/>
  <path d="m399.27 431.2c-0.57422 0.15625-1.0625 0.53516-1.3555 1.0508-0.29688 0.51562-0.37109 1.1289-0.21484 1.6992 1.5312 5.6172 2.2305 11.43 2.0742 17.25-0.019532 0.59375 0.19531 1.1719 0.60547 1.6016 0.40625 0.43359 0.96875 0.68359 1.5625 0.69922l0.066407 0.003906v0.003906c1.2109 0 2.2031-0.96484 2.2383-2.1758 0.17969-6.2656-0.57031-12.52-2.2266-18.562-0.15625-0.57422-0.53125-1.0625-1.0469-1.3594-0.51953-0.29297-1.1328-0.37109-1.7031-0.21094z"/>
  <path d="m354.9 436.27c0.097656-0.16016 0.16797-0.33203 0.21484-0.51172 0.1875-0.98828-0.18359-1.9961-0.96484-2.625-0.84375-0.57031-1.9375-0.60156-2.8164-0.089843-1.0039 0.70312-1.4336 1.9727-1.0664 3.1406l6.3867 26.301 0.003906-0.003906c0.29297 1.2031 1.5039 1.9414 2.707 1.6484 1.1992-0.29297 1.9375-1.5039 1.6445-2.707z"/>
  <path d="m373.78 450.57c-0.53516-1.1133-1.8672-1.582-2.9805-1.0508-1.1133 0.52734-1.5898 1.8594-1.0664 2.9766 1.5508 3.2539 2.7227 6.6758 3.4961 10.199 0.22656 1.0273 1.1367 1.7578 2.1875 1.7578 0.16016 0.003906 0.32422-0.015625 0.48047-0.054688 1.207-0.26562 1.9727-1.457 1.707-2.668-0.84375-3.8516-2.1289-7.5977-3.8242-11.16z"/>
  <path d="m384.78 379.76c0.17578 0.046876 0.35938 0.070313 0.54688 0.070313 1.0273 0 1.9219-0.69922 2.1719-1.6953 2.4102-9.6836 2.6797-19.777 0.78516-29.574-0.10938-0.58594-0.44922-1.1016-0.94141-1.4375-0.49609-0.33594-1.1016-0.45703-1.6836-0.34375-0.58594 0.11328-1.1016 0.45312-1.4336 0.94922-0.33203 0.49219-0.45312 1.1016-0.33594 1.6836 1.7656 9.1523 1.5156 18.582-0.73438 27.629-0.14453 0.57422-0.054688 1.1836 0.25 1.6953 0.30469 0.50781 0.79688 0.87891 1.375 1.0234z"/>
  <path d="m402.97 387.86c-1.0508 0.65234-1.3789 2.0312-0.73047 3.0859 4.9648 8.0078 7.5898 17.242 7.5781 26.664 0 1.2383 1 2.2422 2.2383 2.25h0.003906c1.2344 0 2.2383-1 2.2422-2.2383 0.011719-10.254-2.8438-20.309-8.2461-29.027-0.65234-1.0547-2.0312-1.3789-3.0859-0.73438z"/>
  <path d="m432.34 419.31c0.22266-0.55078 0.21875-1.168-0.015626-1.7188-0.23437-0.54688-0.67578-0.97656-1.2266-1.1992-0.55469-0.21875-1.1719-0.21094-1.7188 0.023438s-0.97656 0.67969-1.1953 1.2305c-3.5938 9.0352-3.2812 19.156 0.86328 27.953 0.53125 1.1133 1.8633 1.5859 2.9766 1.0586 1.1172-0.52734 1.5938-1.8555 1.0703-2.9727-3.6094-7.6719-3.8828-16.496-0.75391-24.375z"/>
  <path d="m467.61 383.89c-1.0156-0.13281-2.9141 0.15234-4.2422 2.9961v0.003906c-2.1172 4.6367-3.8203 9.4531-5.0898 14.391-1.4883-9.7422-1.8906-19.621-1.1953-29.453 0.042969-0.59375-0.15234-1.1797-0.54297-1.6289-0.39062-0.44922-0.94141-0.72266-1.5352-0.76562-0.59766-0.0625-1.1953 0.125-1.6484 0.51953s-0.72266 0.95703-0.74609 1.5586c-0.92578 13.172 0.046875 26.414 2.8867 39.309-4.3516-5.6172-9.1875-10.848-14.449-15.625-0.91797-0.82812-2.3359-0.75781-3.1641 0.16016-0.83203 0.91797-0.76172 2.3359 0.15625 3.1641 5.543 5.0078 10.594 10.531 15.086 16.5 1.0859 1.2773 1.8828 2.7695 2.3398 4.3828-0.027344 0.57031-0.042969 1.1445-0.054688 1.7109-0.03125 1.1523 0.82422 2.1406 1.9688 2.2812 0.089844 0.007812 0.17578 0.015624 0.26562 0.015624 1.0508 0 1.9609-0.73047 2.1875-1.7578 0.17969-0.81641 0.22266-1.6602 0.12891-2.4922 0.53516-10.512 3.0703-20.824 7.4688-30.391 0.066406-0.14844 0.14453-0.29297 0.23437-0.42969 1.1289-0.14453 1.9688-1.1133 1.9531-2.25-0.011719-1.1367-0.875-2.082-2.0078-2.1992z"/>
  <path d="m426.37 380.59c-1.7891-8.5898-5.2266-16.754-10.125-24.039-0.69141-1.0273-2.082-1.2969-3.1094-0.60547-1.0273 0.69141-1.3008 2.082-0.60938 3.1094 4.5742 6.7969 7.7852 14.414 9.457 22.434 0.21094 1.043 1.1289 1.793 2.1914 1.793 0.15234 0 0.30078-0.015625 0.44922-0.046875 0.58203-0.12109 1.0938-0.46484 1.4219-0.96094 0.32812-0.49609 0.44531-1.1016 0.32422-1.6836z"/>
  <path d="m439.92 383.8c0.14062-0.003907 0.27734-0.015626 0.41406-0.039063 1.2188-0.23438 2.0156-1.4023 1.7891-2.6211-1.0977-5.8711-0.90234-11.914 0.5625-17.707 0.30469-1.1992-0.41797-2.418-1.6172-2.7227-1.1992-0.30469-2.418 0.41797-2.7227 1.6172-1.6289 6.4258-1.8438 13.129-0.62891 19.645 0.19922 1.0586 1.125 1.8242 2.2031 1.8281z"/>
  <path d="m400.02 339.5c-0.078125 1.2344 0.85938 2.2969 2.0938 2.3789l0.14062 0.003906h0.003906c1.1797 0 2.1602-0.91797 2.2344-2.0977 0.49219-8.0156-0.62891-16.047-3.2969-23.621-0.41797-1.1602-1.6953-1.7617-2.8555-1.3477-1.1602 0.41016-1.7734 1.6836-1.3672 2.8477 2.4648 7 3.5 14.426 3.0469 21.836z"/>
  <path d="m382.35 308.42c-1.1914-0.33984-2.4336 0.34766-2.7734 1.5352-2.6406 9.1758-3.6055 18.75-2.8438 28.266 0.089843 1.1641 1.0625 2.0664 2.2305 2.0664l0.17578-0.011718c0.58984-0.046875 1.1406-0.32422 1.5273-0.77734 0.38672-0.44922 0.57422-1.0352 0.52734-1.6289-0.71484-8.9805 0.19531-18.02 2.6914-26.676 0.33594-1.1914-0.34766-2.4297-1.5352-2.7734z"/>
  <path d="m437.99 350.61c1.7539-5.3867 4.457-10.414 7.9766-14.852 3.5234-4.3945 8.293-7.6172 13.68-9.25 1.1914-0.32812 1.8906-1.5625 1.5625-2.7539-0.32813-1.1953-1.5625-1.8945-2.7539-1.5664-6.2812 1.8555-11.84 5.5898-15.934 10.703-1.9805 2.4297-3.7031 5.0586-5.1328 7.8516 0.30469-4.2031 1.1484-8.3477 2.5039-12.336 2.5625-7 5.6992-13.777 9.3789-20.262 0.28516-0.52344 0.34766-1.1406 0.17187-1.7148-0.17187-0.57031-0.56641-1.0508-1.0938-1.3281-0.52734-0.28125-1.1445-0.33984-1.7148-0.16016-0.57031 0.17578-1.0469 0.57422-1.3242 1.1016-3.7969 6.7031-7.0312 13.707-9.6719 20.941-0.0625 0.1875-0.09375 0.36719-0.15234 0.55469h-0.003906c-1.7852-7.5195-5.3125-14.516-10.297-20.422-0.80078-0.9375-2.207-1.0508-3.1484-0.25-0.94141 0.79688-1.0586 2.207-0.26172 3.1484 8.6172 10.129 12.258 23.578 9.9297 36.672-0.19531 1.1094 0.46875 2.1914 1.5469 2.5156 0.054688 0.36719 0.054688 0.75391 0.12109 1.1172 0.19531 1.0625 1.125 1.8359 2.2031 1.8359 0.13672 0 0.27344-0.011718 0.40625-0.035156 0.82031-0.26562 1.5273-0.79688 2.0078-1.5117z"/>
  <path d="m391.07 297.03c0.17188 0 0.33984-0.023438 0.50391-0.0625 0.57812-0.13281 1.082-0.48828 1.3945-0.99219 0.31641-0.50391 0.41797-1.1133 0.28516-1.6914-2.7031-11.645-7.5469-22.684-14.285-32.555-0.33203-0.49219-0.84766-0.83594-1.4336-0.94531-0.58203-0.11328-1.1875 0.011719-1.6797 0.34375-0.49609 0.33594-0.83203 0.85156-0.94531 1.4375-0.10937 0.58203 0.015626 1.1875 0.35156 1.6797 6.4258 9.4141 11.047 19.945 13.629 31.051 0.23438 1.0156 1.1367 1.7344 2.1797 1.7344z"/>
  <path d="m399.32 247.73c3.7812-5.5195 7.0469-11.383 9.7461-17.504 0.5-1.1328-0.015625-2.457-1.1484-2.9531-1.1328-0.5-2.4531 0.015625-2.9531 1.1484-2.457 5.5312-5.3906 10.84-8.7695 15.863-0.95312-10.543-2.5078-21.023-4.6484-31.391-0.11719-0.58203-0.46094-1.0977-0.96094-1.4258-0.49609-0.32812-1.1055-0.4375-1.6875-0.3125-0.58203 0.12109-1.0938 0.46875-1.418 0.96484-0.32812 0.49609-0.44141 1.1016-0.32031 1.6836 2.0312 9.875 3.5234 19.855 4.457 29.895-4.5977-3.0938-8.4883-7.1211-11.426-11.82-0.64844-1.0547-2.0312-1.3828-3.082-0.73437-1.0547 0.64844-1.3828 2.0312-0.73438 3.0859 3.7227 5.9531 8.8125 10.93 14.848 14.523-0.58594 0.91797-0.41797 2.125 0.39062 2.8516 0.8125 0.72656 2.0273 0.76562 2.8789 0.085937 0.074218-0.058593 0.097656-0.13672 0.16406-0.19922 1.9688-0.63281 3.6289-1.9727 4.6641-3.7617z"/>
  <path d="m368.3 290.57c1.2148-0.23047 2.0156-1.3984 1.793-2.6133l-3.6797-19.754c-0.22656-1.2188-1.3984-2.0195-2.6172-1.793-1.2148 0.22656-2.0195 1.3945-1.793 2.6133l3.6797 19.754c0.19922 1.0586 1.125 1.8281 2.207 1.832 0.13672-0.003907 0.27344-0.015625 0.41016-0.039063z"/>
  <path d="m414.09 279c-1.5508-6.8281-3.4766-13.562-5.7695-20.176-0.40234-1.168-1.6797-1.7891-2.8477-1.3828s-1.7891 1.6797-1.3828 2.8477c2.2383 6.4609 4.1211 13.039 5.6367 19.707 0.28125 1.1992 1.4766 1.9453 2.6797 1.6719 1.1992-0.27344 1.9531-1.4648 1.6836-2.668z"/>
  <path d="m430.65 260.04c-0.57422 0.15625-1.0625 0.53125-1.3594 1.0469-0.29297 0.51562-0.37109 1.125-0.21484 1.6992 1.8438 6.8672 3.3086 13.828 4.3789 20.859 0.16797 1.0898 1.1055 1.8984 2.2109 1.9023 0.11328 0 0.23047-0.011719 0.34375-0.027344 1.2227-0.1875 2.0625-1.332 1.875-2.5547-1.0977-7.1953-2.5938-14.324-4.4883-21.352-0.15234-0.57422-0.53125-1.0625-1.0469-1.3594-0.51562-0.29297-1.125-0.37109-1.6992-0.21484z"/>
  <path d="m420.12 192.77c5.1953 3.4648 11.191 5.543 17.418 6.0352 0.98047 4.2227 1.6953 8.457 2.3633 12.48 0.36328 2.1953 0.66797 4.3008 0.85547 6.3359-5.6562-1.9102-10.559-5.5742-13.992-10.457-0.69922-1.0156-2.0898-1.2734-3.1094-0.57812-1.0156 0.69531-1.2812 2.0859-0.58594 3.1055 4.3125 6.1328 10.605 10.598 17.816 12.648-0.050781 2.543-0.67578 5.043-1.8203 7.3164-0.28516 0.52734-0.34766 1.1445-0.17578 1.7148s0.56641 1.0508 1.0938 1.332c0.53125 0.27734 1.1484 0.33594 1.7188 0.16016 0.57031-0.17969 1.043-0.57813 1.3203-1.1055 0.78516-1.5156 1.3672-3.1289 1.7344-4.7969 0.55078-0.03125 1.0742-0.27344 1.4609-0.67188 9.2461-9.7383 14.891-22.348 15.988-35.734 0.046874-0.58984-0.14063-1.1758-0.52734-1.6289-0.38672-0.45313-0.93359-0.73047-1.5273-0.77734-0.59766-0.074219-1.1992 0.10547-1.6562 0.49609-0.46094 0.39453-0.73047 0.96094-0.75 1.5625-0.86719 10.496-4.7734 20.512-11.246 28.82-0.070312-0.015625-0.125-0.058594-0.19531-0.066406-0.32812-0.042969-0.63672-0.17969-0.96484-0.23438-0.19141-2.7383-0.53516-5.4688-1.0195-8.1719-0.48047-2.9102-0.99219-5.9375-1.6016-8.9922 0.27344-0.10938 0.52734-0.27344 0.73828-0.48047 6.1133-6.0039 9.0898-14.508 8.0547-23.012-0.19141-1.2109-1.3008-2.0586-2.5195-1.918-1.2266 0.16406-2.0859 1.293-1.9219 2.5195 0.68359 5.6133-0.74219 11.281-4 15.902-0.16406-0.039063-0.33203-0.0625-0.5-0.066406-0.49609 0.027343-0.98828-0.042969-1.4805-0.035157v0.003907c-1.4336-5.7188-3.7461-11.18-6.8555-16.188-0.66797-1.0391-2.0547-1.3359-3.0938-0.66797-1.0391 0.67188-1.3398 2.0586-0.66797 3.0977 2.5938 4.1875 4.5664 8.7305 5.8594 13.484-4.9023-0.63281-9.5859-2.3945-13.695-5.1406-0.49219-0.33594-1.0977-0.46094-1.6797-0.35156-0.58594 0.11328-1.1016 0.45312-1.4375 0.94531-0.33203 0.49219-0.45703 1.0977-0.34375 1.6797 0.10937 0.58594 0.45312 1.1016 0.94531 1.4336z"/>
  <path d="m407.93 171.84c-1.2148-0.019532-2.2461 0.88281-2.3867 2.0898-0.75781 11.656-0.28125 23.359 1.4297 34.918 0.16016 1.0977 1.0977 1.9102 2.207 1.9141 0.11328 0 0.22266-0.011719 0.33594-0.027344 0.58594-0.085937 1.1133-0.40234 1.4688-0.87891 0.35547-0.48047 0.50391-1.0781 0.41797-1.6641-1.6602-11.242-2.125-22.629-1.3867-33.969 0.078125-1.2305-0.85547-2.2969-2.0859-2.3828z"/>
  <path d="m386.5 187.48c0.21094 0 0.42188-0.03125 0.62109-0.09375 0.57031-0.16406 1.0547-0.54688 1.3398-1.0703 0.28516-0.51953 0.35156-1.1328 0.1875-1.7031-1.4062-5.6992-1.0312-11.695 1.0781-17.176 2.2227-5.7773 5.0234-11.316 8.3516-16.539 0.625-1.0625 0.26953-2.4375-0.79297-3.0664-1.0664-0.62891-2.4414-0.27344-3.0703 0.79297-3.4883 5.4727-6.4102 11.289-8.7227 17.352-2.418 6.3555-2.8164 13.297-1.1406 19.887 0.27344 0.95703 1.1484 1.6172 2.1484 1.6172z"/>
  <path d="m349.08 133.15c-0.50391 0.32031-0.85547 0.82812-0.98047 1.4062-0.12891 0.58203-0.019531 1.1875 0.30078 1.6875 6.5781 10.23 10.789 21.801 12.328 33.863 0.13672 1.1211 1.0859 1.9609 2.2148 1.9648 0.09375 0 0.1875-0.007812 0.28125-0.023437 0.58984-0.074219 1.125-0.37891 1.4883-0.84766 0.36719-0.46875 0.52734-1.0625 0.45312-1.6523-1.6172-12.723-6.0547-24.93-12.992-35.719-0.66797-1.0391-2.0547-1.3438-3.0938-0.67969z"/>
  <path d="m367.33 119.12c-0.55469 0.21094-1.0039 0.63672-1.2422 1.1797-0.24219 0.54297-0.25781 1.1602-0.042969 1.7148 2.75 7.1172 4.5703 14.562 5.4102 22.148 0.125 1.1328 1.0781 1.9922 2.2188 1.9961 0.085937 0 0.16797-0.007812 0.25391-0.019531 0.58984-0.0625 1.1289-0.35938 1.5-0.82422 0.37109-0.46484 0.54297-1.0547 0.48047-1.6445-0.88281-7.9688-2.793-15.789-5.6836-23.266-0.21094-0.55469-0.63672-1.0039-1.1797-1.2422-0.54297-0.24219-1.1602-0.25781-1.7148-0.042968z"/>
  <path d="m341.46 167.52c0.26562 0 0.52734-0.046876 0.77734-0.14063 0.55469-0.20312 1.0078-0.625 1.2578-1.1641s0.26953-1.1562 0.066406-1.7109c-1.4688-3.9609-2.2617-8.1367-2.3438-12.359-0.027344-1.2344-1.0508-2.2148-2.2852-2.1914-1.2344 0.027344-2.2148 1.043-2.1992 2.2773 0.097656 4.7227 0.98438 9.3984 2.625 13.824 0.32812 0.87891 1.1641 1.4648 2.1016 1.4648z"/>
  <path d="m432.09 153.99c-0.21094 1.2227 0.60547 2.3789 1.8242 2.5938 0.12891 0.023438 0.25391 0.03125 0.38281 0.03125 1.0898 0 2.0234-0.78516 2.2109-1.8555 1.6953-10.004 0.089844-20.285-4.5703-29.293-0.57031-1.0977-1.9219-1.5312-3.0195-0.96094-1.1016 0.56641-1.5312 1.918-0.96484 3.0195 4.2188 8.1367 5.668 17.43 4.1367 26.465z"/>
  <path d="m401.54 131.93c0.23047 0.85547 0.94531 1.4961 1.8203 1.6289 0.11328 0.019531 0.22656 0.027344 0.33984 0.027344 0.76172 0 1.4727-0.39062 1.8867-1.0312l10.922-17.105c0.66406-1.043 0.35547-2.4258-0.68359-3.0898-1.043-0.66406-2.4258-0.35938-3.0898 0.68359l-8.207 12.852c-0.33984-1.2109-0.71484-2.4375-1.0742-3.6562l-0.003906-0.003907c0.20312-0.19531 0.36328-0.42969 0.47266-0.6875l5.0469-18.156c0.33203-1.1953-0.36328-2.4297-1.5586-2.7617-1.1914-0.33203-2.4297 0.36328-2.7617 1.5586l-3.5273 12.691c-1.6055-4.8438-3.5391-9.5703-5.7852-14.152-0.26562-0.53516-0.73047-0.9375-1.293-1.1289-0.5625-0.1875-1.1797-0.14453-1.7109 0.12109-0.53516 0.26562-0.9375 0.73438-1.125 1.2969-0.1875 0.56641-0.14063 1.1797 0.125 1.7109 4.3594 9.375 7.7773 19.156 10.207 29.203z"/>
  <path d="m332.18 114.39c1.0195 2.5312 1.7031 5.1836 2.0391 7.8906 0.097656 1.1602 1.0703 2.0508 2.2344 2.0508l0.10938-0.003906v-0.003907c1.2031-0.054687 2.1484-1.0586 2.1328-2.2695 0.21094-3.7422 2.0156-7.2148 4.9531-9.543 3.3086-2.6523 6.9609-4.8516 10.855-6.5352 1.1094-0.53906 1.5742-1.8789 1.0312-2.9883-0.53906-1.1133-1.8789-1.5742-2.9883-1.0352-4.2695 1.8516-8.2617 4.2812-11.875 7.2148-1.5273 1.3398-2.8555 2.8945-3.9414 4.6133-0.125-0.34375-0.24609-0.67188-0.35937-0.98047l-0.003907 0.003906c-2.2773-6.0273-4.8789-11.93-7.793-17.676-0.55859-1.0977-1.9023-1.5312-3-0.97656-1.1016 0.55859-1.543 1.8984-0.99219 3 2.8359 5.6055 5.3711 11.359 7.5977 17.238z"/>
  <path d="m519.6 336.59c-4.9062 1.7266-9.4062 4.4375-13.219 7.9727 0.26172-0.90625 0.48047-1.8242 0.75781-2.7266 0.78516-3.3672 2.3164-6.5156 4.4844-9.2109 0.84766-0.90234 0.80078-2.3203-0.10156-3.1641-0.90234-0.84766-2.3203-0.80078-3.168 0.10156-2.6484 3.1836-4.5312 6.9336-5.5 10.961-0.74219 2.4258-1.3906 4.875-2.0352 7.3281-0.78906-3.4336-1.9609-6.7695-3.4961-9.9414-2.0273-4.1133-5.8789-8.0625-10.609-6.7578v-0.003906c-1.1914 0.32812-1.8945 1.5586-1.5664 2.7539 0.32422 1.1914 1.5547 1.8945 2.75 1.5664 1.8906-0.50391 4.1797 1.9102 5.4141 4.418v0.003906c2.4219 4.9023 3.875 10.227 4.2773 15.676 0.074218 0.67188 0.45703 1.2695 1.0391 1.6133-0.71484 3.4297-1.3477 6.875-1.8672 10.336-3.3711-5.5508-8.5078-9.8047-14.586-12.09-1.1562-0.42578-2.4453 0.16797-2.8711 1.3242-0.42969 1.1602 0.16016 2.4453 1.3203 2.875 6.9023 2.5508 12.254 8.1289 14.52 15.133 0.125 0.33203 0.33203 0.625 0.60156 0.85547-0.097657 0.9375-0.24219 1.875-0.32813 2.8164-0.10937 1.2305 0.79688 2.3203 2.0273 2.4336 0.070313 0.003907 0.13672 0.011719 0.20312 0.011719v-0.003906c1.1602 0 2.1289-0.88281 2.2305-2.0391 0.23047-2.5508 0.55469-5.0977 0.89453-7.6445 0.019531-0.027344 0.054688-0.035156 0.074219-0.0625v0.003906c4.0469-5.4688 9.2773-9.9531 15.301-13.117 0.53125-0.27344 0.92969-0.74609 1.1094-1.3164 0.17969-0.57031 0.125-1.1875-0.15234-1.7148-0.28125-0.53125-0.75781-0.92578-1.332-1.0977-0.57031-0.17578-1.1875-0.11328-1.7148 0.17188-4.4141 2.3477-8.4531 5.3477-11.98 8.8984 0.55469-3.0781 1.1875-6.1406 1.9023-9.1914 4.3164-5.8711 10.242-10.359 17.062-12.926 1.1719-0.39844 1.8008-1.6719 1.4023-2.8438-0.40234-1.1719-1.6719-1.8008-2.8438-1.3984z"/>
  <path d="m470.57 336.64c-0.58984-0.12891-1.2031-0.003907-1.6953 0.33984s-0.81641 0.87891-0.89844 1.4727l-3.6484 20.562c-0.10156 0.58594 0.03125 1.1875 0.37109 1.6758 0.33984 0.48438 0.85938 0.81641 1.4453 0.91797 0.12891 0.027343 0.25781 0.039062 0.38672 0.039062 1.0898-0.003906 2.0156-0.78516 2.207-1.8555l3.6484-20.562h-0.003907c0.10547-0.58203-0.027343-1.1875-0.36719-1.6719-0.34375-0.48828-0.86328-0.81641-1.4453-0.91797z"/>
  <path d="m486.3 386.8c-0.59375 0.03125-1.1484 0.30078-1.5469 0.74219s-0.60156 1.0234-0.57031 1.6172c0.30078 5.668 0.14453 11.352-0.47656 16.996-0.066406 0.58984 0.10547 1.1836 0.47656 1.6445 0.375 0.46484 0.91406 0.76172 1.5039 0.82812 0.082031 0.007813 0.16797 0.015626 0.25 0.015626 1.1406-0.003907 2.0977-0.86328 2.2227-1.9961 0.64453-5.8867 0.8125-11.816 0.49609-17.73-0.027344-0.59375-0.29297-1.1523-0.73438-1.5508-0.44531-0.39453-1.0273-0.60156-1.6211-0.56641z"/>
  <path d="m488.67 282.71c-0.60156-0.097656-1.2148 0.058594-1.6992 0.43359-0.48047 0.37109-0.78906 0.92187-0.85156 1.5273-0.078125 0.57812 0.082031 1.1602 0.44141 1.6172s0.89062 0.75 1.4688 0.80469c0.3125 0.42578 0.50781 0.92578 0.5625 1.4492l5.25 23.793v0.003906c0.22656 1.0273 1.1367 1.7578 2.1875 1.7617 0.16016 0 0.32422-0.019531 0.48047-0.054688 0.58203-0.12891 1.0859-0.48047 1.4062-0.98047 0.32031-0.50391 0.42969-1.1094 0.30078-1.6914l-5.25-23.793c-0.82031-3.7461-2.7891-4.7188-4.2969-4.8711z"/>
  <path d="m539.62 295.08c-1.1445-0.46875-2.4492 0.082031-2.918 1.2266-3.668 8.9531-5.2031 18.637-4.4844 28.281 0.085938 1.168 1.0586 2.0742 2.2305 2.0742l0.16797-0.011718c0.59375-0.042969 1.1445-0.32031 1.5312-0.76953 0.38672-0.45312 0.57812-1.0391 0.53125-1.6289-0.66016-8.957 0.76562-17.941 4.168-26.25 0.22656-0.55078 0.22266-1.168-0.007812-1.7148-0.23047-0.54688-0.66797-0.98438-1.2188-1.207z"/>
  <path d="m510 266.36c5.1953 10.875 7.8945 22.777 7.8984 34.828-0.007813 1.0898 0.76953 2.0273 1.8398 2.2227 0.13281 0.023438 0.26562 0.035157 0.40234 0.035157 0.9375 0 1.7773-0.58594 2.0977-1.4688 3.707-10.07 8.0234-19.902 12.93-29.445 0.5625-1.0977 0.12891-2.4492-0.96875-3.0117-1.1016-0.56641-2.4492-0.13281-3.0117 0.96875-2.3359 4.5312-4.4961 9.1719-6.5703 13.855 1.0039-7.0234 2.125-14.039 3.4805-20.949 0.62891-3.2109 1.418-5.5469 3.2305-6.5312 1.0859-0.58594 1.4922-1.9453 0.90234-3.0352-0.58984-1.0859-1.9492-1.4883-3.0352-0.90234-3.1719 2.2227-5.1875 5.7461-5.4961 9.6055-1.3125 6.6719-2.4023 13.445-3.3906 20.227v-0.003907c-1.375-6.3398-3.4844-12.5-6.2852-18.352-0.53906-1.1133-1.8789-1.5742-2.9883-1.0352-1.1133 0.53906-1.5742 1.8789-1.0352 2.9922z"/>
  <path d="m520.22 235.1c-0.039062 0.59375 0.16016 1.1797 0.55469 1.625 0.39453 0.44531 0.94531 0.71875 1.5391 0.75391l0.14062 0.003906 0.003906 0.003906c1.1797-0.003906 2.1602-0.92188 2.2344-2.1016 0.61328-9.957-1.1367-19.914-5.1055-29.066-0.49219-1.1367-1.8125-1.6562-2.9492-1.1641s-1.6562 1.8125-1.1641 2.9492c3.6875 8.4961 5.3125 17.75 4.7461 26.996z"/>
  <path d="m476.7 277.36c-1.2148-0.23047-2.3867 0.5625-2.6211 1.7773-1.6797 8.7344-2.8711 17.555-3.5742 26.422-0.046875 0.59375 0.14062 1.1797 0.52734 1.6328 0.38672 0.44922 0.9375 0.73047 1.5273 0.77344l0.17578 0.011718c1.168 0 2.1406-0.89844 2.2305-2.0664 0.69531-8.7031 1.8672-17.359 3.5117-25.934 0.11328-0.58203-0.011718-1.1875-0.34375-1.6758-0.33594-0.49219-0.85156-0.83203-1.4336-0.94141z"/>
  <path d="m453.29 250.01c-1.1211 0.52734-1.6016 1.8594-1.0781 2.9805 4.1797 8.8711 6.2695 18.586 6.1094 28.391-0.023438 1.2383 0.96094 2.2617 2.1992 2.2891h0.042968c1.2188-0.003906 2.2148-0.98047 2.2422-2.1992 0.16797-10.496-2.0664-20.887-6.5352-30.387-0.52734-1.1133-1.8594-1.5977-2.9805-1.0742z"/>
  <path d="m476.64 237.32c-1.0195-0.69531-2.4102-0.4375-3.1094 0.57422-0.70312 1.0156-0.45312 2.4062 0.55859 3.1133 7.7188 5.3242 12.449 13.996 12.754 23.367 0.011719 0.57812 0.24609 1.125 0.65234 1.5352 0.085937 0.73828 0.14062 1.4805 0.25 2.2188v-0.003906c0.16406 1.0977 1.1016 1.9102 2.2109 1.9141 0.10938 0 0.22266-0.007812 0.33203-0.027344 0.58594-0.085937 1.1172-0.40234 1.4688-0.87891 0.35547-0.47656 0.50391-1.0742 0.41797-1.6641-1.8594-12.715-0.28125-25.695 4.5703-37.598 0.46094-1.1406-0.089844-2.4414-1.2305-2.9062-1.1445-0.46094-2.4453 0.082031-2.9141 1.2227-2.7539 6.7852-4.5195 13.93-5.2422 21.215-2.5703-4.8164-6.2422-8.957-10.719-12.082z"/>
  <path d="m480.28 224.93c1.168 0 2.1445-0.90625 2.2305-2.0742l1.3984-18.426v0.003907c0.046875-0.59375-0.14453-1.1797-0.53125-1.6289-0.38672-0.45312-0.9375-0.73047-1.5312-0.77344-0.59375-0.0625-1.1914 0.12109-1.6445 0.51172-0.45312 0.39063-0.72656 0.95313-0.75391 1.5508l-1.3984 18.426-0.003906-0.003906c-0.042969 0.59375 0.14844 1.1797 0.53516 1.6289 0.38672 0.45312 0.9375 0.73047 1.5273 0.77344z"/>
  <path d="m474.65 177.88c0.070312 0.15625 0.12891 0.32031 0.17969 0.48438-0.69141 0.85156-0.64453 2.082 0.10938 2.8789 0.75391 0.79297 1.9805 0.90625 2.8672 0.26172 0.34375 0.25781 0.75781 0.40625 1.1875 0.42578l0.058593 0.003906v0.003906c1.2148-0.003906 2.207-0.96875 2.2383-2.1836 0.23047-7.3086 2.8438-14.34 7.4414-20.027 0.77734-0.96484 0.625-2.375-0.33984-3.1484-0.96094-0.77734-2.3711-0.625-3.1484 0.33984-3.8828 4.8164-6.5391 10.504-7.7422 16.574-1.3242-2.8945-2.7383-5.7578-4.1641-8.6172 0.007812-0.039062 0.046874-0.058594 0.054687-0.097656v0.003906c1.1602-6.8164 3.8008-13.293 7.7383-18.977 0.70312-1.0195 0.44922-2.4141-0.57031-3.1172-1.0156-0.70312-2.4102-0.44922-3.1172 0.56641-3.2383 4.6992-5.6875 9.8945-7.25 15.383-2.4609-4.6367-5.0039-9.2344-7.707-13.707-0.64062-1.0625-2.0156-1.4023-3.0781-0.76172-1.0586 0.64062-1.3984 2.0195-0.75781 3.0781 5.9648 9.8672 11.309 20.098 16 30.633z"/>
  <path d="m499.81 205.94c0.125 0.023438 0.25 0.03125 0.375 0.03125 1.0938 0 2.0234-0.78906 2.207-1.8672l3.6406-21.629h0.003906c0.19922-1.2227-0.62109-2.375-1.8398-2.582-0.58594-0.10938-1.1953 0.023437-1.6797 0.37109-0.48828 0.34375-0.8125 0.875-0.90234 1.4648l-3.6406 21.629c-0.20312 1.2227 0.61719 2.375 1.8359 2.582z"/>
  <path d="m424.05 246.18c0.19141 0.054688 0.38672 0.082031 0.58594 0.082031 1.0117 0 1.8984-0.67969 2.1602-1.6562 1.5781-5.8984 1.3086-12.137-0.76562-17.879-0.42188-1.1602-1.707-1.7617-2.8711-1.3398-1.1641 0.42578-1.7617 1.7109-1.3398 2.8711 1.7617 4.875 1.9922 10.172 0.65625 15.18-0.32422 1.1914 0.38281 2.418 1.5742 2.7422z"/>
  <path d="m410.95 291.79c-0.58594-0.11719-1.1914 0.003906-1.6836 0.33594-0.49219 0.33203-0.83594 0.84375-0.94922 1.4297-1.1055 5.6797-0.8125 11.543 0.85938 17.082 0.28516 0.94922 1.1562 1.5977 2.1445 1.5977 0.21875 0 0.4375-0.03125 0.64453-0.097656 0.57031-0.16797 1.0469-0.55859 1.3281-1.082 0.28125-0.52344 0.34375-1.1367 0.17188-1.707-1.4609-4.8398-1.7188-9.9648-0.75-14.93 0.23438-1.2148-0.55469-2.3906-1.7656-2.6289z"/>
  <path d="m368.88 105.64c0.22266 1.0312 1.1367 1.7656 2.1914 1.7695 0.15625 0 0.31641-0.015625 0.46875-0.046875 1.2109-0.26172 1.9805-1.4531 1.7227-2.6641l-3.0859-14.422h0.003907c-0.26172-1.2109-1.4531-1.9805-2.6641-1.7227-1.2109 0.26172-1.9844 1.4531-1.7227 2.6641z"/>
  <path d="m312.98 111.42c0.27734 0.96094 1.1523 1.6211 2.1523 1.625 0.21094 0 0.41797-0.03125 0.62109-0.089844 1.1875-0.34375 1.8711-1.582 1.5352-2.7695l-4.207-14.688v-0.003906c-0.33984-1.1875-1.582-1.8789-2.7734-1.5352-1.1875 0.33984-1.875 1.582-1.5352 2.7734z"/>
  <path d="m259.61 122.65 0.078125-0.003906h-0.003906c0.59375-0.019532 1.1562-0.27344 1.5625-0.70703s0.62109-1.0117 0.59766-1.6055l-0.55859-16.82v-0.003906c-0.039062-1.2031-1.0273-2.1641-2.2344-2.1641l-0.078126 0.003906c-0.59375 0.019532-1.1562 0.27344-1.5625 0.71094-0.40234 0.43359-0.62109 1.0117-0.59766 1.6055l0.55859 16.82c0.039062 1.207 1.0273 2.1641 2.2383 2.1641z"/>
  <path d="m269.91 164.32c-0.046874 0.58984 0.14063 1.1797 0.52734 1.6289 0.38672 0.45313 0.9375 0.73047 1.5273 0.77734l0.17578 0.011719c1.1719 0 2.1445-0.90234 2.2305-2.0703 0.57812-7.7891-1.1992-15.574-5.0938-22.344-0.62109-1.0742-1.9922-1.4414-3.0625-0.82031-1.0742 0.61719-1.4414 1.9883-0.82031 3.0625 3.4492 5.9844 5.0234 12.863 4.5156 19.754z"/>
  <path d="m414.4 142.55 1.6836 15.219c0.125 1.1328 1.082 1.9922 2.2227 1.9961 0.082031 0 0.16797-0.003906 0.25-0.015625 0.58984-0.066406 1.1328-0.36328 1.5039-0.82422 0.37109-0.46484 0.54297-1.0586 0.47656-1.6484l-1.6836-15.219c-0.13672-1.2305-1.2422-2.1172-2.4727-1.9805-1.2305 0.13672-2.1172 1.2422-1.9805 2.4727z"/>
  <path d="m451.36 141.06c0.089844 0.011719 0.17969 0.015625 0.27344 0.015625 1.1328-0.003906 2.082-0.84766 2.2188-1.9727l2.5195-21.098 0.003906-0.003906c0.14453-1.2266-0.73047-2.3438-1.9609-2.4922-1.2266-0.14844-2.3438 0.73047-2.4922 1.957l-2.5195 21.098c-0.14844 1.2305 0.72656 2.3477 1.957 2.4961z"/>
  <path d="m506.77 252.15 0.054687 0.003906v0.003906c1.2188 0 2.2109-0.97266 2.2383-2.1875 0.14453-5.5938 1-11.141 2.5547-16.516 0.16406-0.57422 0.097657-1.1875-0.19141-1.7109-0.28906-0.51953-0.76953-0.90625-1.3438-1.0703-0.57422-0.16406-1.1875-0.09375-1.7109 0.19531-0.51953 0.28906-0.90234 0.77734-1.0664 1.3516-1.6562 5.7383-2.5664 11.668-2.7148 17.641-0.015626 0.59375 0.20312 1.168 0.61328 1.5977 0.41016 0.42969 0.97266 0.67969 1.5664 0.69141z"/>
  <use x="70" y="644" xlink:href="#u"/>
  <use x="90.546875" y="644" xlink:href="#d"/>
  <use x="104.355469" y="644" xlink:href="#a"/>
  <use x="123.347656" y="644" xlink:href="#e"/>
  <use x="142.242188" y="644" xlink:href="#b"/>
  <use x="155.625" y="644" xlink:href="#a"/>
  <use x="174.617188" y="644" xlink:href="#k"/>
  <use x="204.40625" y="644" xlink:href="#j"/>
  <use x="224.449219" y="644" xlink:href="#i"/>
  <use x="252.449219" y="644" xlink:href="#h"/>
  <use x="272.617188" y="644" xlink:href="#c"/>
  <use x="291.851562" y="644" xlink:href="#g"/>
  <use x="304.035156" y="644" xlink:href="#b"/>
  <use x="317.421875" y="644" xlink:href="#t"/>
  <use x="334.085938" y="644" xlink:href="#f"/>
  <use x="350.683594" y="644" xlink:href="#e"/>
  <use x="369.578125" y="644" xlink:href="#s"/>
  <use x="389.621094" y="644" xlink:href="#a"/>
  <use x="70" y="672" xlink:href="#g"/>
  <use x="82.183594" y="672" xlink:href="#d"/>
  <use x="95.992188" y="672" xlink:href="#c"/>
  <use x="115.226562" y="672" xlink:href="#r"/>
  <use x="154.152344" y="672" xlink:href="#b"/>
  <use x="167.535156" y="672" xlink:href="#q"/>
  <use x="187.46875" y="672" xlink:href="#a"/>
  <use x="216.207031" y="672" xlink:href="#p"/>
  <use x="239.640625" y="672" xlink:href="#c"/>
  <use x="258.878906" y="672" xlink:href="#o"/>
  <use x="278.8125" y="672" xlink:href="#n"/>
  <use x="308.492188" y="672" xlink:href="#m"/>
  <use x="329.015625" y="672" xlink:href="#d"/>
  <use x="342.820312" y="672" xlink:href="#c"/>
  <use x="362.058594" y="672" xlink:href="#l"/>
  <use x="371.65625" y="672" xlink:href="#a"/>
  <use x="390.648438" y="672" xlink:href="#f"/>
  <use x="407.242188" y="672" xlink:href="#b"/>
 </g>
</svg>
