<?xml version="1.0" encoding="UTF-8"?>
<svg width="700pt" height="700pt" version="1.1" viewBox="0 0 700 700" xmlns="http://www.w3.org/2000/svg" xmlns:xlink="http://www.w3.org/1999/xlink">
 <defs>
  <symbol id="u" overflow="visible">
   <path d="m14.656-0.875c-0.76172 0.39844-1.5547 0.69531-2.375 0.89062-0.8125 0.19531-1.6641 0.29688-2.5469 0.29688-2.6562 0-4.7617-0.73828-6.3125-2.2188-1.5547-1.4883-2.3281-3.5039-2.3281-6.0469 0-2.5508 0.77344-4.5664 2.3281-6.0469 1.5508-1.4883 3.6562-2.2344 6.3125-2.2344 0.88281 0 1.7344 0.10156 2.5469 0.29688 0.82031 0.19922 1.6133 0.49609 2.375 0.89062v3.2969c-0.76172-0.51953-1.5117-0.89844-2.25-1.1406-0.74219-0.23828-1.5234-0.35938-2.3438-0.35938-1.4688 0-2.625 0.46875-3.4688 1.4062-0.83594 0.9375-1.25 2.2344-1.25 3.8906 0 1.6484 0.41406 2.9375 1.25 3.875 0.84375 0.9375 2 1.4062 3.4688 1.4062 0.82031 0 1.6016-0.11719 2.3438-0.35938 0.73828-0.23828 1.4883-0.61719 2.25-1.1406z"/>
  </symbol>
  <symbol id="d" overflow="visible">
   <path d="m10.719-8.7031c-0.33594-0.15625-0.66797-0.26953-1-0.34375-0.32422-0.082031-0.65625-0.125-1-0.125-0.98047 0-1.7344 0.32031-2.2656 0.95312-0.53125 0.625-0.79688 1.5273-0.79688 2.7031v5.5156h-3.8125v-11.969h3.8125v1.9688c0.48828-0.78125 1.0508-1.3477 1.6875-1.7031 0.64453-0.36328 1.4102-0.54688 2.2969-0.54688 0.13281 0 0.27344 0.007812 0.42188 0.015625 0.14453 0.011719 0.36328 0.03125 0.65625 0.0625z"/>
  </symbol>
  <symbol id="a" overflow="visible">
   <path d="m13.781-6.0156v1.0938h-8.9375c0.09375 0.89844 0.41406 1.5703 0.96875 2.0156 0.55078 0.44922 1.3281 0.67188 2.3281 0.67188 0.80078 0 1.625-0.11719 2.4688-0.35938 0.84375-0.23828 1.7109-0.59766 2.6094-1.0781v2.9531c-0.90625 0.33594-1.8125 0.58984-2.7188 0.76562s-1.8125 0.26562-2.7188 0.26562c-2.1562 0-3.8398-0.54688-5.0469-1.6406-1.1992-1.1016-1.7969-2.6484-1.7969-4.6406 0-1.9453 0.58594-3.4766 1.7656-4.5938 1.1758-1.125 2.8008-1.6875 4.875-1.6875 1.875 0 3.375 0.57031 4.5 1.7031 1.1328 1.125 1.7031 2.6367 1.7031 4.5312zm-3.9375-1.2656c0-0.72656-0.21484-1.3125-0.64062-1.75-0.41797-0.44531-0.96875-0.67188-1.6562-0.67188-0.74219 0-1.3438 0.21094-1.8125 0.625-0.46094 0.41797-0.74609 1.0156-0.85938 1.7969z"/>
  </symbol>
  <symbol id="g" overflow="visible">
   <path d="m7.2031-5.3906c-0.80469 0-1.4062 0.13672-1.8125 0.40625-0.39844 0.27344-0.59375 0.67188-0.59375 1.2031 0 0.48047 0.16016 0.85938 0.48438 1.1406 0.32031 0.27344 0.77344 0.40625 1.3594 0.40625 0.71875 0 1.3203-0.25391 1.8125-0.76562 0.48828-0.51953 0.73438-1.1719 0.73438-1.9531v-0.4375zm5.8438-1.4375v6.8281h-3.8594v-1.7656c-0.51172 0.71875-1.0898 1.2461-1.7344 1.5781-0.63672 0.33203-1.418 0.5-2.3438 0.5-1.2422 0-2.2461-0.35938-3.0156-1.0781-0.77344-0.72656-1.1562-1.6719-1.1562-2.8281 0-1.3945 0.47656-2.4219 1.4375-3.0781 0.96875-0.65625 2.4883-0.98438 4.5625-0.98438h2.25v-0.29688c0-0.60156-0.24219-1.0469-0.71875-1.3281-0.48047-0.28125-1.2266-0.42188-2.2344-0.42188-0.8125 0-1.5742 0.085937-2.2812 0.25-0.71094 0.15625-1.3672 0.40234-1.9688 0.73438v-2.9219c0.82031-0.19531 1.6445-0.34766 2.4688-0.45312 0.82031-0.10156 1.6484-0.15625 2.4844-0.15625 2.1562 0 3.7109 0.42969 4.6719 1.2812 0.95703 0.84375 1.4375 2.2266 1.4375 4.1406z"/>
  </symbol>
  <symbol id="b" overflow="visible">
   <path d="m6.0156-15.359v3.3906h3.9375v2.7344h-3.9375v5.0781c0 0.55469 0.10938 0.92969 0.32812 1.125 0.21875 0.19922 0.65625 0.29688 1.3125 0.29688h1.9688v2.7344h-3.2812c-1.5117 0-2.5859-0.3125-3.2188-0.9375-0.625-0.63281-0.9375-1.707-0.9375-3.2188v-5.0781h-1.9062v-2.7344h1.9062v-3.3906z"/>
  </symbol>
  <symbol id="i" overflow="visible">
   <path d="m9.9688-10.219v-6.4062h3.8594v16.625h-3.8594v-1.7344c-0.52344 0.71094-1.1016 1.2305-1.7344 1.5625-0.63672 0.32031-1.3711 0.48438-2.2031 0.48438-1.4688 0-2.6797-0.58203-3.625-1.75-0.94922-1.1758-1.4219-2.6875-1.4219-4.5312s0.47266-3.3477 1.4219-4.5156c0.94531-1.1758 2.1562-1.7656 3.625-1.7656 0.83203 0 1.5664 0.16797 2.2031 0.5 0.63281 0.32422 1.2109 0.83594 1.7344 1.5312zm-2.5156 7.75c0.82031 0 1.4453-0.29688 1.875-0.89062 0.42578-0.60156 0.64062-1.4727 0.64062-2.6094 0-1.1445-0.21484-2.0156-0.64062-2.6094-0.42969-0.59375-1.0547-0.89062-1.875-0.89062-0.8125 0-1.4336 0.29688-1.8594 0.89062-0.42969 0.59375-0.64062 1.4648-0.64062 2.6094 0 1.1367 0.21094 2.0078 0.64062 2.6094 0.42578 0.59375 1.0469 0.89062 1.8594 0.89062z"/>
  </symbol>
  <symbol id="c" overflow="visible">
   <path d="m8.2031-2.4688c0.82031 0 1.4453-0.29688 1.875-0.89062 0.42578-0.60156 0.64062-1.4727 0.64062-2.6094 0-1.1445-0.21484-2.0156-0.64062-2.6094-0.42969-0.59375-1.0547-0.89062-1.875-0.89062-0.82422 0-1.4531 0.30469-1.8906 0.90625-0.4375 0.59375-0.65625 1.4609-0.65625 2.5938 0 1.1367 0.21875 2.0078 0.65625 2.6094 0.4375 0.59375 1.0664 0.89062 1.8906 0.89062zm-2.5469-7.75c0.53125-0.69531 1.1133-1.207 1.75-1.5312 0.64453-0.33203 1.3828-0.5 2.2188-0.5 1.4688 0 2.6758 0.58984 3.625 1.7656 0.94531 1.168 1.4219 2.6719 1.4219 4.5156s-0.47656 3.3555-1.4219 4.5312c-0.94922 1.168-2.1562 1.75-3.625 1.75-0.83594 0-1.5742-0.16797-2.2188-0.5-0.63672-0.33203-1.2188-0.84766-1.75-1.5469v1.7344h-3.8125v-16.625h3.8125z"/>
  </symbol>
  <symbol id="f" overflow="visible">
   <path d="m0.26562-11.969h3.8281l3.2188 8.125 2.7344-8.125h3.8125l-5.0312 13.094c-0.5 1.332-1.0898 2.2656-1.7656 2.7969-0.66797 0.53125-1.5547 0.79688-2.6562 0.79688h-2.2188v-2.5h1.2031c0.64453 0 1.1133-0.10547 1.4062-0.3125 0.30078-0.21094 0.53125-0.57812 0.6875-1.1094l0.10938-0.34375z"/>
  </symbol>
  <symbol id="h" overflow="visible">
   <path d="m2.0156-15.953h4.1094v6.0781h6.0625v-6.0781h4.1094v15.953h-4.1094v-6.7656h-6.0625v6.7656h-4.1094z"/>
  </symbol>
  <symbol id="t" overflow="visible">
   <path d="m7.8438-8.875c0.86328 0 1.4844-0.16016 1.8594-0.48438 0.375-0.32031 0.5625-0.84766 0.5625-1.5781 0-0.72656-0.1875-1.25-0.5625-1.5625s-0.99609-0.46875-1.8594-0.46875h-1.7188v4.0938zm-1.7188 2.8438v6.0312h-4.1094v-15.953h6.2656c2.1016 0 3.6445 0.35547 4.625 1.0625 0.97656 0.71094 1.4688 1.8242 1.4688 3.3438 0 1.0547-0.25781 1.918-0.76562 2.5938-0.51172 0.67969-1.2773 1.1797-2.2969 1.5 0.5625 0.125 1.0625 0.41797 1.5 0.875 0.44531 0.44922 0.89844 1.1328 1.3594 2.0469l2.2344 4.5312h-4.375l-1.9531-3.9688c-0.38672-0.78906-0.78125-1.332-1.1875-1.625-0.40625-0.28906-0.94531-0.4375-1.6094-0.4375z"/>
  </symbol>
  <symbol id="s" overflow="visible">
   <path d="m1.8438-11.969h3.8125v11.969h-3.8125zm0-4.6562h3.8125v3.125h-3.8125z"/>
  </symbol>
  <symbol id="r" overflow="visible">
   <path d="m9.7031-16.625v2.5156h-2.1094c-0.54297 0-0.92188 0.10156-1.1406 0.29688-0.21094 0.19922-0.3125 0.53906-0.3125 1.0156v0.82812h3.2656v2.7344h-3.2656v9.2344h-3.8281v-9.2344h-1.8906v-2.7344h1.8906v-0.82812c0-1.3008 0.36328-2.2656 1.0938-2.8906 0.72656-0.625 1.8516-0.9375 3.375-0.9375z"/>
  </symbol>
  <symbol id="e" overflow="visible">
   <path d="m7.5312-9.5156c-0.84375 0-1.4922 0.30859-1.9375 0.92188-0.44922 0.60547-0.67188 1.4805-0.67188 2.625 0 1.1484 0.22266 2.0273 0.67188 2.6406 0.44531 0.60547 1.0938 0.90625 1.9375 0.90625 0.83203 0 1.4688-0.30078 1.9062-0.90625 0.44531-0.61328 0.67188-1.4922 0.67188-2.6406 0-1.1445-0.22656-2.0195-0.67188-2.625-0.4375-0.61328-1.0742-0.92188-1.9062-0.92188zm0-2.7344c2.0508 0 3.6562 0.55859 4.8125 1.6719 1.1641 1.1055 1.75 2.6406 1.75 4.6094s-0.58594 3.5117-1.75 4.625c-1.1562 1.1055-2.7617 1.6562-4.8125 1.6562-2.0625 0-3.6797-0.55078-4.8438-1.6562-1.168-1.1133-1.75-2.6562-1.75-4.625s0.58203-3.5039 1.75-4.6094c1.1641-1.1133 2.7812-1.6719 4.8438-1.6719z"/>
  </symbol>
  <symbol id="q" overflow="visible">
   <path d="m12.922-9.9688c0.48828-0.75 1.0625-1.3164 1.7188-1.7031 0.66406-0.38281 1.3984-0.57812 2.2031-0.57812 1.375 0 2.4219 0.42969 3.1406 1.2812 0.71875 0.84375 1.0781 2.0742 1.0781 3.6875v7.2812h-3.8438v-6.2344c0.007812-0.09375 0.015625-0.1875 0.015625-0.28125v-0.4375c0-0.84375-0.125-1.457-0.375-1.8438-0.25-0.38281-0.65234-0.57812-1.2031-0.57812-0.73047 0-1.293 0.30469-1.6875 0.90625-0.38672 0.59375-0.58984 1.4609-0.60938 2.5938v5.875h-3.8438v-6.2344c0-1.3203-0.11719-2.1758-0.34375-2.5625-0.23047-0.38281-0.63672-0.57812-1.2188-0.57812-0.73047 0-1.2969 0.30469-1.7031 0.90625-0.39844 0.60547-0.59375 1.4648-0.59375 2.5781v5.8906h-3.8438v-11.969h3.8438v1.75c0.46875-0.66406 1.0039-1.1719 1.6094-1.5156 0.61328-0.34375 1.2891-0.51562 2.0312-0.51562 0.82031 0 1.5508 0.19922 2.1875 0.59375 0.63281 0.39844 1.1133 0.96094 1.4375 1.6875z"/>
  </symbol>
  <symbol id="p" overflow="visible">
   <path d="m13.859-7.2812v7.2812h-3.8438v-5.5469c0-1.0508-0.027344-1.7695-0.078125-2.1562-0.042969-0.39453-0.12109-0.6875-0.23438-0.875-0.14844-0.25-0.35156-0.44141-0.60938-0.57812-0.25-0.14453-0.54297-0.21875-0.875-0.21875-0.79297 0-1.418 0.3125-1.875 0.9375-0.46094 0.61719-0.6875 1.4648-0.6875 2.5469v5.8906h-3.8125v-16.625h3.8125v6.4062c0.58203-0.69531 1.1953-1.207 1.8438-1.5312 0.64453-0.33203 1.3594-0.5 2.1406-0.5 1.3828 0 2.4297 0.42969 3.1406 1.2812 0.71875 0.84375 1.0781 2.0742 1.0781 3.6875z"/>
  </symbol>
  <symbol id="o" overflow="visible">
   <path d="m2.0156-15.953h4.5781l5.8125 10.938v-10.938h3.8906v15.953h-4.5938l-5.7969-10.938v10.938h-3.8906z"/>
  </symbol>
  <symbol id="n" overflow="visible">
   <path d="m1.7031-4.6562v-7.3125h3.8438v1.2031c0 0.64844-0.007813 1.4609-0.015625 2.4375v1.9688c0 0.96094 0.023438 1.6523 0.078125 2.0781 0.050781 0.41797 0.13281 0.72656 0.25 0.92188 0.15625 0.25 0.35938 0.44531 0.60938 0.57812 0.25781 0.13672 0.55078 0.20312 0.875 0.20312 0.80078 0 1.4258-0.30469 1.875-0.92188 0.45703-0.61328 0.6875-1.4688 0.6875-2.5625v-5.9062h3.8281v11.969h-3.8281v-1.7344c-0.57422 0.69922-1.1836 1.2148-1.8281 1.5469-0.64844 0.33203-1.3555 0.5-2.125 0.5-1.3867 0-2.4453-0.42188-3.1719-1.2656-0.71875-0.85156-1.0781-2.0859-1.0781-3.7031z"/>
  </symbol>
  <symbol id="m" overflow="visible">
   <path d="m13.859-7.2812v7.2812h-3.8438v-5.5781c0-1.0312-0.027344-1.7383-0.078125-2.125-0.042969-0.39453-0.12109-0.6875-0.23438-0.875-0.14844-0.25-0.35156-0.44141-0.60938-0.57812-0.25-0.14453-0.54297-0.21875-0.875-0.21875-0.79297 0-1.418 0.3125-1.875 0.9375-0.46094 0.61719-0.6875 1.4648-0.6875 2.5469v5.8906h-3.8125v-11.969h3.8125v1.75c0.58203-0.69531 1.1953-1.207 1.8438-1.5312 0.64453-0.33203 1.3594-0.5 2.1406-0.5 1.3828 0 2.4297 0.42969 3.1406 1.2812 0.71875 0.84375 1.0781 2.0742 1.0781 3.6875z"/>
  </symbol>
  <symbol id="l" overflow="visible">
   <path d="m2.0156-15.953h6.8125c2.0312 0 3.5859 0.45312 4.6719 1.3594 1.0938 0.89844 1.6406 2.1797 1.6406 3.8438 0 1.6797-0.54688 2.9688-1.6406 3.875-1.0859 0.89844-2.6406 1.3438-4.6719 1.3438h-2.7031v5.5312h-4.1094zm4.1094 2.9844v4.4531h2.2656c0.80078 0 1.4141-0.19141 1.8438-0.57812 0.4375-0.38281 0.65625-0.9375 0.65625-1.6562 0-0.70703-0.21875-1.2539-0.65625-1.6406-0.42969-0.38281-1.043-0.57812-1.8438-0.57812z"/>
  </symbol>
  <symbol id="k" overflow="visible">
   <path d="m1.8438-11.969h3.8125v11.75c0 1.6016-0.38672 2.8281-1.1562 3.6719-0.76172 0.84375-1.8711 1.2656-3.3281 1.2656h-1.8906v-2.5h0.65625c0.72656 0 1.2266-0.16797 1.5-0.5 0.26953-0.32422 0.40625-0.96875 0.40625-1.9375zm0-4.6562h3.8125v3.125h-3.8125z"/>
  </symbol>
  <symbol id="j" overflow="visible">
   <path d="m11.5-11.594v3.125c-0.52344-0.35156-1.043-0.61328-1.5625-0.78125-0.52344-0.17578-1.0625-0.26562-1.625-0.26562-1.0742 0-1.9062 0.3125-2.5 0.9375s-0.89062 1.4961-0.89062 2.6094c0 1.1172 0.29688 1.9844 0.89062 2.6094s1.4258 0.9375 2.5 0.9375c0.59375 0 1.1562-0.085937 1.6875-0.26562 0.53906-0.17578 1.0391-0.44141 1.5-0.79688v3.125c-0.59375 0.23047-1.1992 0.39453-1.8125 0.5-0.61719 0.11328-1.2344 0.17188-1.8594 0.17188-2.1562 0-3.8438-0.55078-5.0625-1.6562-1.2188-1.1133-1.8281-2.6562-1.8281-4.625s0.60938-3.5039 1.8281-4.6094c1.2188-1.1133 2.9062-1.6719 5.0625-1.6719 0.625 0 1.2383 0.058594 1.8438 0.17188 0.61328 0.10547 1.2227 0.26562 1.8281 0.48438z"/>
  </symbol>
 </defs>
 <g>
  <path d="m410.81 44.301c-0.16797 0.074219-0.34375 0.13281-0.52344 0.16797 0.20313 1.4102 0.33203 2.7852 0.4375 4.1328 1.4727 4.0195 2.7188 8.1172 3.7383 12.277 0.46094 1.4805 0.875 3.1211 1.2461 4.8125h4.168c-0.22656-1.3477-0.48828-2.6602-0.75781-3.9375h0.003906c-1.0547-6.375-3.5703-12.418-7.3516-17.66-0.3125 0.10547-0.63281 0.17578-0.96094 0.20703zm-56.934 251.72c-5.7617 1.2344-11.746 0.99609-17.395-0.69141-2.9531-0.875-5.5781-2.7266-8.5352-3.707v0.003906c-1.6055-0.55078-3.1719-1.2109-4.6875-1.9727-0.10156 0.66016-0.20312 1.3477-0.26562 2.0039h-0.003906c0.76953 1.832 1.7305 3.582 2.8594 5.2188 1.5742 1.7461 3.043 3.5898 4.3945 5.5117 1.1172 1.8711 1.4492 3.5 3.9102 3.543h6.0664c6.5625 0 6.5625 7.5508 0 7.5508-3.2812 0-12.473 0.98438-15.312-4.5938-0.13281-0.26172-0.26172-0.49609-0.39453-0.72266 0.55469 2.5234 1.2148 5.3828 2.0039 8.3711 0.0625 0 6.5312 4.7891 7.3867 5.1172l0.003906 0.003906c0.79688 0.21484 1.6289 0.29297 2.457 0.22656 0.64453 0.054688 1.2969 0.042969 1.9375-0.03125 0.13281-0.027343 0.26562-0.058593 0.39453-0.10156 3.3164-3.4414 8.5312 1.8438 5.2852 5.3867-3.6211 2.6953-8.3867 3.3086-12.57 1.6094-0.33203-0.16797-0.72656-0.32812-1.0859-0.49609 4.2656 10.605 10.309 17.938 18.117 8.8281 4.4336-5.1523 7.4375-13.094 13.625-16.477-0.625-1.8711-1.2812-3.7422-2.0039-5.5781-0.32812 0-0.65625-0.035157-0.95312-0.035157-0.4375 0-0.875 0-1.3438 0.035157-0.19531 0-0.32812 0.03125-0.39453 0.03125v0.003906c0-0.019532 0.019531-0.035156 0.035156-0.03125-0.023437 0-0.050781 0.011718-0.070312 0.03125-0.15625 0.019531-0.30859 0.050781-0.45703 0.097656-4.4258 1.2773-6.4961-2.6602-6.2344-6.8281 0-0.066406 5.875-0.4375 6.2695-0.4375-1.6016-3.7812-2.625-7.7852-3.0391-11.871zm127.52-95.477c4.0234 1.8867 6.1602 6.3438 5.1172 10.664-2.4297 18.148-13.488 20.711-23.961 33.215 5.3086 8.2227 6.7695 18.348 4.0078 27.734 2.1602 4.0859 3.3594 8.6094 3.5 13.23-0.39062 6.0859-2.1406 12.004-5.1172 17.328h-0.058593c0.25 5.3945-0.19141 10.801-1.3125 16.082 0.16797 0.57812 0.19922 1.1836 0.10156 1.7734-0.46484 3.0898-0.070312 6.207-0.52344 9.293-0.26172 1.7734-1.1172 3.3477-1.4492 5.082-0.26562 3.5469-1.5664 6.9375-3.7422 9.7539-2.5391 2.9336-5.918 5.0195-9.6797 5.9688-3.8047 0.26172-7.6172 0.29688-11.426 0.10156 0.035156 0.6875 0.066406 1.4453 0.13281 2.1289v0.003906c1.8711 10.418 4.5039 20.684 7.875 30.719 3.9648-0.58984 7.9844 0.64062 10.938 3.3516 2.6523 3.0234 4.3047 6.7969 4.7305 10.797-0.13281 8.1406-1.5781 15.312-8.207 20.746-0.089844 0.023437-0.16797 0.066406-0.23438 0.12891 1.3828 2.2578 3.125 4.2773 5.1562 5.9766 2.7578 2.3984 7.7422 4.168 9.3242 7.875 4.6602 10.828 5.543 17.359-3.1211 25.566-5.875 5.5469-16.672 10.566-24.938 9.1875-4.4492 4.9375-9.8281 8.9492-15.824 11.812-7 2.5938-18.312 0.36328-23.828 5.0586-5.0938 4.375-5.2227 8.5-12.477 8.9258-2.8984-0.20312-5.6172-1.4648-7.6445-3.5469-2.3906 0.83203-4.9062 1.2305-7.4375 1.1836-0.48828 0-1.0156 0-1.5078-0.03125 0.058593 0.64453-0.070313 1.293-0.36328 1.8672 9.8477 10.898-7.3164 22.387-18.703 25.508-1.1914 2.25-2.5664 4.4023-4.1055 6.4297-4.4688 6.0391-15.75 5.9062-21.957 8.9609-7.4375 3.6445-22.219 14.375-29.016 5.875-1.5117 1.7383-3.8047 2.5898-6.0859 2.2656-2.2812-0.32422-4.2422-1.7852-5.2109-3.875-2.0977 1.7109-4.8008 2.5039-7.4883 2.1875-2.6914-0.31641-5.1406-1.707-6.7852-3.8594-4.7617 1.8672-10.668 1.9023-12.25-3.7773-0.72266-2.625-0.75391-5.3945-0.097656-8.0391-2.0547 0.83203-4.0039 1.9023-5.8125 3.1836-6.1016 4.4609-10.695 7.4805-18.605 3.8047l-0.003906 0.003906c-1.6719-0.6875-3.2578-1.5703-4.7227-2.625-4.3047 2.625-9.0938 3.8711-12.871 0.097656-6.0742-6.0664 0.875-19.066 6.8633-22.312v-0.003906c14.129-8.2539 27.719-17.398 40.688-27.375-0.003906-0.054688 0.007813-0.11328 0.03125-0.16406 2.0039-6.0078 7.8477-7.9102 12.641-11.191-0.50391-0.53906-0.94531-1.1328-1.3125-1.7734-1.2578-2.832-1.457-6.0234-0.5625-8.9922-1.2539-1.0352-2.3594-2.2383-3.2812-3.5742-0.95312-2.1562-1.0117-4.6016-0.16016-6.8008 1.8984-6.3008 2.457-12.93 1.6406-19.461-0.65625-9.0273-2.2305-17.891-3.2812-26.848-1.1875-10.207-5.0234-19.203-6.3711-29.211-1.2461-9.4531-1.543-18.938-2.6914-28.395-1.5078-12.734-14.875-28.754-8.7969-41.328-3.5078-3.3242-5.8906-7.6602-6.8281-12.402-6.4688 0.98438-12.57-3.2852-13.855-9.7031-1.3164-3.1719-0.85547-6.8047 1.2109-9.5508-0.47266-0.51562-0.78906-1.1523-0.91797-1.8359-1.8828-9.1133 0.83594-18.562 7.2695-25.285 4.5977-4.9883 8.1719-10.73 12.609-15.855 4.1641-4.8906 11.418-6.8594 15.816-12.797 8.6016-11.688 17.43-22.684 25.441-34.859 6.3359-9.7188 16.672-20.383 17.527-32.297 0.035157-0.23047 0.13281-0.4375 0.16797-0.625h-0.003906c-0.66406-0.64453-1.207-1.3984-1.6094-2.2305-1.6953-3.6719-2.168-7.793-1.3477-11.75-4.5586-3.3828-3.5742-9.8789-3.5-14.934 0.019532-0.125 0.050782-0.24609 0.097657-0.36328-4.0352-5.2852-3.8047-17.133-3.3828-22.059h0.003906c0.75391-9.5977 3.0625-19.008 6.8281-27.863 0.89844-2.1602 2.5078-3.9453 4.5625-5.0586 0.066406-0.29297 0.13281-0.58594 0.22656-0.875 4.1992-10.469 5.3516-22.484 14.672-30.656h0.003906c8.1367-6.5781 18.191-10.336 28.652-10.699 11.488-0.81641 23.832-4.8125 34.562 1.4141 5.582 3.2461 12.801 5.4766 16.707 10.863v-0.003906c0.29688 0.027343 0.58984 0.085937 0.875 0.16797 4.7148 1.8594 8.8086 5.0117 11.812 9.0898 0.26172-0.29688 0.55859-0.625 0.92188-1.0195 0.95312-0.96875 2.3672-1.3359 3.6719-0.94922 7.4375 2.8203 11.59 20.152 13.098 27.238 3.7266 13.824 2.7344 28.496-2.8203 41.691-4.7617 11.914-9.9453 28.914-19.398 37.152 2.1094 0.82031 3.8984 2.3086 5.0859 4.2344 0.76953 1.418 1.2148 2.9844 1.3125 4.5938 7.9453 0.097656 15.84 1.2109 23.5 3.3164 6.6328 2.1367 16.41 2.2656 22.227 6.4297 5.8125 4.1641 19.727 11.949 13.59 21.207h-0.003906c4.0273 4.2344 4.6406 10.664 1.4922 15.586zm-8.207 24.613c0.91797-1.2461 10.402-20.562-0.65625-17.984v-0.003906c-0.41016 0.097656-0.82812 0.12891-1.2461 0.097656-1.5664 0.40625-3.2188-0.21094-4.1367-1.5391-8.2148-11.59-18.02-6.6641-24.402 1.6484-2.3008 2.9883-5.582 6.3672-4.1055 9.8477 1.7383 3.3398 2.3594 7.1445 1.7734 10.863-4.9219 16.707-17.035 31.5-24.289 47.527 1.0898 3.7852 0.66797 7.8477-1.1836 11.324-1.1719 3.0977-3.3438 5.7148-6.1719 7.4375 0.089843 3.3398-0.27344 6.6719-1.082 9.9102 8.3594-7.2656 15.582-15.75 21.422-25.16 3.2188-7.9102 7.4883-15.352 12.688-22.125 6.125-6.8906 11.848-14.508 18.57-20.84v0.003906c4.5898-3.2852 8.8828-6.9688 12.82-11.008zm1.1172-27.535c6.9609-8.043-7.6797-11.375-11.848-12.016-7.543-1.1953-15.273-0.14453-22.223 3.0195-8.2383 3.418-16.809 9.7188-25.602 11.652 0.13281 2.625 0.26172 5.25 0.4375 7.875v-0.003906c2.5352-1.4766 5.207-2.707 7.9805-3.6758 1.9688-0.55859 3.9023-1.1523 5.9062-1.6445 2.0039-0.49609 4.0391-0.097656 6.0078-0.71875v0.003906c0.73828-0.22266 1.5273-0.21094 2.2617 0.027344 4.1406-5.4453 7.5195-10.668 15.43-10.602v0.003907c7.2812-0.26172 14.305 2.707 19.195 8.1055 0.52344-0.10156 1.0859-0.16797 1.5781-0.22656h0.003906c0.14062-0.66406 0.4375-1.2812 0.87109-1.8047zm-0.58984-17.266c3.0898-9.3906-41.352-17.035-53.895-18.645-0.4375 2.0352-1.0156 4.1055-1.6406 6.125l-0.003906-0.003907c8.5078-0.83984 17.094-0.47656 25.504 1.082 3.2773 0.50781 6.4727 1.4688 9.4883 2.8555 2.457 1.6602 4.668 3.6602 6.5625 5.9414 2.8164 0.15234 5.6211 0.45703 8.4023 0.92187 1.9336 0.30469 3.8125 0.88281 5.5781 1.7227zm-12.965 113.04c1.1719-3.0938 1.5234-6.4414 1.0195-9.7148-5.7656 9.9922-13.766 18.52-23.371 24.91-0.27734 0.17969-0.57031 0.33203-0.875 0.46094 0.40625 2.3203 0.65625 4.668 0.75391 7.0273 10.418-3.9609 18.613-12.23 22.473-22.684zm-12.688 164.18c8.207-3.1797 23.73-13.293 9.4844-23.188-2.1367-1.5078-3.6094-2.8203-5.6875-4.4336v0.003906c-5.6406-3.9258-9.3594-10.055-10.238-16.871-1.5781-10.672-1.5078-22.094-4.9609-32.398-3.0195-9.0625-7.2539-18.02-7.2539-27.805 0-8.3125-2-17.426-0.39453-25.633 1.7734-9.1562 3.25-21.762-4.8867-28.488-3.8398 6.4023-6.3398 12.043-14.246 14l0.003907 0.003907c3.4844 3.0547 5.4297 7.5078 5.3008 12.145 4.4336-0.59766 8.6758 1.9922 10.18 6.2031 4.0625 9.625-0.92188 14.574-4.7617 23.188-0.79297 1.75-1.5156 3.543-2.2656 5.3164h0.003906c0.039062 0.035157 0.070312 0.082031 0.09375 0.12891 4.9297 8.1641 7.5508 17.512 7.582 27.047-0.039062 7.9844 1.0312 15.938 3.1836 23.625 0.21875 0.90625 0.11328 1.8555-0.29688 2.6914 1.5781 10.402 8.0781 18.938 8.0781 29.539 0.003906 8.5273-5.0508 21.23 11.098 14.93zm10.434-185.55c-0.13281-0.39063-0.22656-0.81641-0.35938-1.2461-1.4961 2.6562-3.4648 5.0117-5.8086 6.9609-4.7461 3.668-9.1914 7.707-13.297 12.078-2.0742 2.3789-4.3477 4.5742-6.793 6.5625 1.2266 1.6016 2.2539 3.3438 3.0625 5.1914 2.625-2.1367 4.1328-5.4805 7.3203-6.8945v-0.003906c4.0352-2.3984 7.3945-5.793 9.75-9.8594 2.7656-3.875 4.8398-8.2031 6.125-12.789zm-11.234 54.094c2.6953-0.99609 5.0391-2.7539 6.75-5.0625 1.7109-2.3125 2.707-5.0664 2.875-7.9375-1.8359 1.8438-3.7109 3.6133-5.6875 5.2891-4.4922 3.8047-7.8086 3.8047-13.027 5.8398-0.10156 2.3633-0.29297 4.7617-0.48828 7.1211l-0.003906 0.003906c2.8711-2.2852 6.1094-4.0625 9.582-5.2539zm6.6602 9.9492c0.46484-1.8359 0.98828-3.6797 1.3477-5.5469h-0.003907c-2.5391 1.4023-5.1836 2.6094-7.9102 3.6094-3.3867 1.5352-6.3789 3.8242-8.75 6.6914-0.46484 0.51563-1.0742 0.88281-1.75 1.0547 0 0.4375-0.035156 0.85156-0.070313 1.2773 6.5352 0.19922 15.066 1.1836 17.133-7.0859zm-1.3789 64.527c0.55469-2.2734 0.17578-4.6719-1.0508-6.6641-1.0195-1.707-2.8711-2.7422-4.8555-2.7227 0.32422 1.8008 0.58984 3.6094 0.75781 5.4453l-0.003907 0.003906c0.27344 4.8203 0.84375 9.6211 1.7031 14.375 1.1602-1.3789 2.1523-2.8867 2.957-4.4961 0.94922-1.8477-0.11719-4.0352 0.49219-5.9414zm-7.7812-126.37c6.207-5.3398 9.8633-13.055 10.062-21.238-5.0508 4.9766-9.3828 10.633-12.867 16.809-2.3281 4.7539-4.4258 9.4492-7 13.883 3.207-3.2422 6.3594-6.5625 9.8047-9.4531zm-2.4297-94.625 0.003906-0.003906c1.6641-0.47266 3.3516-0.85938 5.0547-1.1484-9.4883-4.4609-21.141-4.0703-31.543-2.8867v-0.003906c-0.40234 1.3203-0.69531 2.6719-0.875 4.0391-0.44531 4.3047-0.63281 8.6367-0.55859 12.965 9.375-2.7578 18.531-10.273 27.922-12.965zm-10.598 47.129c0.027344-0.92969 0.003907-1.8594-0.066406-2.7891-0.15625 0.14062-0.32422 0.27344-0.49219 0.39453-0.93359 0.63672-1.9219 1.1836-2.9531 1.6406-1.1367 0.23438-2.2461 0.57422-3.3164 1.0156-2.6914 2.2969-5.8164 4.0273-9.1875 5.0898 0 1.7734-0.035156 3.5781-0.035156 5.3516v-0.003906c1.3984-0.57813 2.7031-1.3633 3.8711-2.332 1.4297-1.3516 2.9922-2.5625 4.6641-3.6094 1.707-0.77344 3.4609-1.4414 5.25-2.0039 0.72266-0.29297 1.6055-1.7695 2.2656-2.7539zm-0.48828-143.53c0.16016-5.043-0.5625-10.078-2.1367-14.875-0.58984-1.8086-1.3477-3.6445-2.1367-5.4453h-0.097656 0.003906c1.1562 6.4258 1.8164 12.93 1.9688 19.457 0.33203 0.097656 0.67188 0.17187 1.0156 0.23437 0.49609 0.11328 0.96875 0.32813 1.3828 0.62891zm-0.26953 131.49c0.015625-1.4414 0.26172-2.8711 0.72266-4.2383-2.25 0.25-4.4805 0.67969-6.6641 1.2852-3.3828 1.082-6.2695 3.0625-9.5156 4.375 0.13281 2.6953 0.22656 5.3867 0.25781 8.1094 2.2344-1.0859 3.8438-3.0625 6.2383-4.2031 1.8516-0.51953 3.6367-1.2539 5.3164-2.1875 1.2812-0.97656 2.4336-2.0938 3.6445-3.1406zm-1.9688-117.74c0.70703-2.4805 1.2656-5 1.6719-7.5469-0.58594 0.375-1.2734 0.56641-1.9688 0.55469-0.03125 1.1172-0.097656 2.2656-0.19141 3.3477-0.070313 0.86328-0.41797 1.6836-0.98828 2.332 0.52734 0.39453 1.0234 0.83203 1.4766 1.3125zm-5.7734 363.3c0 2.5625 4.4961 2.7266 7.4805 1.9727-2.1641-4.1875-3.1758-8.8789-2.9219-13.59 0-5.9766 1.75-7.8125-0.16016-14.18h-0.003907c-1.0078 1.8086-1.832 3.7148-2.4609 5.6875-0.72266 3.0195-0.58984 6.0391-1.0508 9.0898v0.003906c-0.60938 3.6406-0.90234 7.3242-0.88281 11.016zm4.2656-221.88c-0.15625 0.10938-0.32031 0.20703-0.49219 0.29297-1.8906 1.7031-3.8984 3.2695-6.0039 4.6953-1.707 0.89844-3.5 1.625-5.3516 2.1641v6.6992c0 1.2109-0.36328 4.8555-0.72656 8.75 4.0391-7.5547 8.4023-14.941 12.574-22.586zm-0.875-133.49c-0.22266-0.097656-0.43359-0.21875-0.625-0.36328-4.2891 5.918-6.7734 12.953-7.1602 20.25h0.16797c0.16016 0 0.26172 0.19531 0.4375 0.19531v0.003906c2.8555-6.5156 5.25-13.223 7.1719-20.074zm-1.4805 322.58c-0.78906-2.1875-1.4492-4.3008-2.0703-6.4648v-0.003906c-3.332 2.7305-7.5352 4.1641-11.84 4.043-4.3047-0.12109-8.4219-1.793-11.594-4.7031-0.65234 2.1367-1.4453 4.2031-2.2305 6.2734h-0.003906c6.4414 6.1406 10.156 14.602 10.309 23.5 0.26172 11.375-10.012 13.164-18.188 17.66-0.87109 5.1445-2.0508 10.23-3.5391 15.23-0.070313 0.22656-0.20313 0.4375-0.29688 0.65625 2.168 0.54297 4.4219-0.47656 5.4453-2.4648 0.65625-0.97266 1.5039-1.8008 2.4961-2.4258 3.2422-2.582 7.1211-4.2383 11.23-4.793 7.3516-1.6094 11.746 0.4375 18.148-4.0742v0.003906c-4.5156-0.92578-7.6484-5.0547-7.3203-9.6523 0.41797-7.9609-0.66406-28.77 9.4453-32.773zm-7.6562-346.2c1.2656-0.10938 2.5391-0.12109 3.8086-0.035157-0.10156-2.9844-0.29297-6.0078-0.58984-8.9609h-3.9062c0.35937 2.9531 0.61719 6.0078 0.6875 8.9961zm3.7422 7.6484c-1.3477-0.058594-2.6953-0.039062-4.0391 0.0625-0.13281 1.4141-0.32812 2.7578-0.55469 3.9727l-0.035156 0.03125c1.4609-0.039062 2.9258 0.039063 4.375 0.23438 0.12109-1.3789 0.1875-2.8242 0.25391-4.3008zm-18.676 323.37c4.375 5.875 21.336 7.0273 18.281-3.6758-1.1445-4.0039-1.8477-8.1172-2.1016-12.273-0.92188 0.92578-1.9336 1.7617-3.0156 2.4922-1.7695 1.0859-3.6875 1.918-5.6875 2.4648-0.875 0.26172-2.625 0.16016-3.0625 1.1172v-0.003906c-0.28125 0.56641-0.71094 1.043-1.2422 1.3789-0.92188 2.8203-2.2344 5.5156-3.3828 8.207 0.078125 0.09375 0.14844 0.19141 0.21094 0.29297zm17.266-311.88h-0.003907c-1.8516-0.14063-3.7148-0.0625-5.5469 0.22656-0.066407 0.51172-0.23047 1.0039-0.49219 1.4492-1.9727 3.4414-1.6719 8.4648-3.0625 12.309-1.25 3.543-2.3672 7.2188-3.3203 10.898v-0.003906c1.2852-0.19141 2.5781-0.30469 3.8789-0.33203 0.18359-8.8789 3.1758-17.473 8.543-24.547zm-2.3984 284.81h-0.003906c0.19531-0.15234 0.40625-0.28125 0.625-0.39453-0.38281-5.3867-1.5312-10.688-3.4102-15.75-1.9883 5.4219-3.6992 10.945-5.1211 16.543-0.69141 2.8203-1.1797 5.6133-1.6758 8.4062l0.003906-0.003906c0.76953-0.21875 1.5234-0.48047 2.2656-0.78516 1.8203-0.58203 3.3359-1.8711 4.1992-3.582 0.62109-1.7227 1.6953-3.25 3.1133-4.4141zm-5.543-29.707c0.875-2.1875 12.605-24.977 3.2148-23.074h-0.003906c-0.30078 0.066406-0.60938 0.097656-0.91797 0.10156-0.75391 2.8789-1.7344 5.6953-2.9258 8.4219-10.062 23.406-10.207 50.418-23.695 72.281-9.0312 14.605-9.3242 28.098-10.602 44.625v-0.003906c-0.67578 7.9023-2.9219 15.59-6.6016 22.617-0.70312 0.98828-1.5703 1.8516-2.5586 2.5586 1.9375 0.40234 3.9453 0.3125 5.8398-0.26172 0-1.3203 0.66797-2.5547 1.7734-3.2773 1.1055-0.72266 2.5-0.83594 3.7109-0.30469 0.29687-0.44922 0.50781-0.94531 0.625-1.4727 0.33984-2.1914 0.80859-4.3633 1.4062-6.5 1.9922-7.2227 3.5508-14.555 4.6641-21.961 1.4023-12.297 4.1523-24.406 8.2031-36.102 4.5938-12.961 8.3398-26.207 11.227-39.648 1.7031-6.168 3.9258-12.184 6.6367-17.977zm4.0039-223.88h-0.003907c-0.69141 0.066406-1.3906-0.035156-2.0352-0.29297h-0.91797c-1.2227 0.097656-2.4258 0.36328-3.5781 0.78906-0.046874 0.039062-0.10547 0.058593-0.16797 0.058593 0.035156 2.1875-0.29297 4.4336-0.35938 6.6016l0.003906 0.003906c0.16016 0.085938 0.30469 0.19922 0.4375 0.32812 2.6406-2.0664 4.8867-4.5938 6.6172-7.4648zm-4.6367 30.691c1.9727-6.4648-0.62109-14.836-9.0273-10.012 4.8594 13.195-1.6055 34.23-1.6055 46.277 0 14.734 0.81641 29.438 0.81641 44.145 0 10.406-1.707 23.961 0.26172 34.465l0.003907 0.003906c0.60156 0.77344 0.78516 1.793 0.48828 2.7266 0.13672 0.85938-0.058594 1.7383-0.55469 2.457-0.125 0.84766 0.11328 1.707 0.65625 2.3672 0.58203 0.67969 1.2305 1.293 1.9375 1.832 0.43359 0.37891 0.90625 0.71094 1.4102 0.98828 2.6133-2.3828 3.9297-5.8711 3.543-9.3867-0.089844-0.19141-0.16406-0.39062-0.22656-0.58984-5.6094-5.6133 0.13281-18.051-0.85156-25.375-1.6406-12.344 1.3125-24.852-0.26172-37.223h-0.003906c-1.5586-12.984-1.5586-26.109 0-39.09 0.6875-4.6328 1.832-9.1797 3.4141-13.586zm-2.0352-72.012c0-0.16797 0.066406-0.26172 0.066406-0.39844-1.7422 0.078125-3.457 0.47656-5.0547 1.1836-0.32812 0.17578-0.68359 0.29687-1.0547 0.35937-0.16016 0.95313-0.32422 1.8711-0.48828 2.8203 2.0039-0.19531 4.1328-0.46094 6.3359-0.71875 0.070313-1.0586 0.16406-2.1445 0.19922-3.2266zm0.55859-8.0781h0.003906c-0.19141-2.5859-0.50781-5.1602-0.95703-7.7109-1.5078 0.16797-3.0625 0.29297-4.3008 0.32812 0.074219 2.7734-0.023437 5.5508-0.29297 8.3125 1.8359-0.40234 3.6875-0.70312 5.5547-0.90234zm-2.2344-15.062c-0.023437-0.25391-0.066406-0.50781-0.12891-0.75781-0.16016-1.1172-1.0469-6.2695-2.2305-10.73l-0.65625-0.10156c-0.10156 3.9062-0.13281 7.8438-0.13281 11.781 1.0547 0.019532 2.1094-0.039062 3.1523-0.16797zm-3.543 43.652c0.95312-2.9883 1.0859-6.0742 1.8711-9.0312-1.6758 0.13281-3.25 0.16797-4.4688 0.20312-0.03125 0.16016-0.0625 0.35938-0.097657 0.52344l0.003907 0.003907c-0.10547 0.79297-0.48828 1.5234-1.0781 2.0625 0.58984 2.8359-0.24609 5.7773-2.2383 7.875-0.03125 0.03125-0.097656 0.066406-0.16016 0.13281-0.125 0.75391-0.49609 1.4453-1.0508 1.9688-0.65625 0.65625-0.98828 3.3477-1.3125 4.168-0.30469 0.73828-0.52734 1.5117-0.66016 2.2969 1.9336-0.14062 3.875 0.046875 5.7422 0.55859 1.0273-3.5859 2.3086-7.1641 3.4531-10.738zm-6.3086 244.58c2.8555-9.3203 17.691-32.062 4.0391-39.121-3.625 3.6914-9.4922 3.9492-13.43 0.58984-8.793 5.0547-1.0156 15.492 0.36328 21.875 0.9375 5.0898 0.9375 10.305 0 15.391-1.6445 6.2539-4.2344 12.219-7.6758 17.695-3.2188 6.2695-2.7266 13.195-4.5977 19.793-2.0352 7.1562-4.2969 14.641-6.8906 21.598-1.8906 5.1836-4.0508 10.27-6.4688 15.23-2.4219 4.9336-5.1875 9.6953-8.2734 14.242-1.6094 2.3633-10.797 11.125-10.695 13.355v0.003906c0.039062 0.75-0.15625 1.4961-0.55859 2.1328-0.8125 2.375-1.0039 4.918-0.55859 7.3867-0.24609 1.6445-0.03125 3.3242 0.62109 4.8555 0.29297 0.39453 2.4297 0.13281 2.8867 0.13281h0.003906c0.46094-0.007813 0.91016-0.12891 1.3125-0.35938 0.42188-0.60156 1.0156-1.0586 1.7031-1.3125 1.8438-1.543 1.25-3.8125 1.2148-6.043h0.003906c0-2.0859 1.6914-3.7773 3.7734-3.7773 2.0859 0 3.7773 1.6914 3.7773 3.7773 0.4375 3.5586-0.44141 7.1523-2.4648 10.109 2.2305 3.6094 6.7578 7 8.1719 1.4453h0.003907c0.1875-1.2266 0.55078-2.4219 1.0781-3.543 4.4688-6.7305 4.4961-15.984 4.8906-23.699 0.39453-13.332 4.2305-26.332 11.129-37.746 10.117-16.887 10.91-35.629 16.641-54.012zm-3.6445-215.15c2.3398 1.1406 4.9141 1.7227 7.5156 1.707-0.26172-3.1484 0-6.4375 0.035156-9.5508 0.23828-1.5586-0.8125-3.0156-2.3633-3.2891-1.5742-0.57031-3.2734-0.71875-4.9258-0.4375-0.054688-0.003906-0.10938 0.007813-0.16016 0.03125-0.62109 3.1562-2.2305 9.9141-0.85156 10.832h-0.003907c0.26953 0.21094 0.51563 0.44531 0.73047 0.70703zm4.2344 165.85c2.5117-3.5938 3.5664-8.0039 2.957-12.344-2.0312-1.3125-3.8242-2.9688-5.2969-4.8906-1.9102-2.7227-2.4297-6.1875-1.4102-9.3516-1.3477-8.0078 0.98438-16.477-0.066406-24.551l0.003906-0.003907c-1.1289-12.188-1.5-24.43-1.1172-36.66-0.54297-10.453-0.3125-20.93 0.6875-31.348 1.2812-8.8594 5.7148-32.691-4.0352-37.711v-0.003906c-0.17188 0.050781-0.34766 0.085937-0.52344 0.10156-2.918-0.074219-5.6289 1.4883-7.0273 4.0469-1.3945 2.5625-1.2422 5.6875 0.39844 8.0977 0.91406 1.1797 2.2266 2 2.3633 3.5781 0.84766 10.863-0.53125 21.531-0.49609 32.328-0.066406 11.738 0.49219 23.473 1.6719 35.152 1.3516 12.996 0.92188 26.117-1.2773 38.996-1.9023 9.9453-5.0586 24.453 1.1445 33.578 4.3906 6.4297 9.0156 5.0742 12.004 0.98438zm-1.0859-263.38c0-3.3477 1.9727-4.9531 3.9102-4.8906h0.003907c-0.24609-0.27344-0.46875-0.56641-0.66016-0.875-2.3281-4.1992-10.828-7.7773-14.961-9.5156-9.0938-3.875-16.625-1.4141-25.863-0.72656-14.18 1.0195-25.172 4.2031-33.613 17.062h-0.003906c-2.8398 5.0586-4.9375 10.504-6.2266 16.16 1.1523 0 2.332 0 3.5 0.097656 4.8125 0.32812 4.8516 7.875 0 7.5469-8.9648-0.62109-13.359 9.9141-14.672 17.727-1.0898 5.6328-1.4062 11.383-0.94922 17.102 0.32422 3.3125-0.625 11.551 6.3008 9.9453h-0.003906c2.2852-0.22656 4.4844-1.0039 6.4023-2.2656 1.2539-0.98438 2.9648-1.1406 4.3789-0.40625 1.4102 0.73438 2.2656 2.2266 2.1836 3.8164 0.11719 0.47266 0.17969 0.95703 0.19141 1.4453v6.3359c2.8047-1.5391 6.0039-2.2031 9.1875-1.9062 1.1758 0.19531 2.2266 0.84375 2.9219 1.8086 2.9375-1.332 6.3086-1.3086 9.2227 0.066406 0.75 0.47656 1.4336 1.0508 2.0352 1.7031 1.8555-0.21484 3.6953-0.53125 5.5117-0.95312 1.8945-0.68359 3.9844-0.58984 5.8125 0.26562 0.13281 0.066406 0.19531 0.16797 0.29688 0.19531-0.070312-0.72266-0.20312-1.4727-0.20312-2.0664 0-1.0195 0.17188-2.4297 0.17188-3.543-1.25-0.53125-2.5312-1.0859-3.7812-1.6758-4.375-2.1875-0.52344-8.75 3.8125-6.5625 4.3359 2.1875 8.9258 1.6406 13.32 3.1211 2.3008 0.75781 18.551-0.035156 17.062-6.168v-0.003906c-0.49609-2.4766-1.4062-4.8516-2.6953-7.0234-5.4766-9.2891-5.1836-29.539-5.1836-29.539 0-3.2812 7.5508-3.2812 7.5508 0-0.64062 7.7422 0.43359 15.531 3.1523 22.809 1.0234-7.0547 1.5625-14.172 1.6055-21.301 0-9.332 0.26172-17.934 0.26172-27.781zm-2.2617 414.25c1.9141-0.53906 3.5078-1.8672 4.3867-3.6523 0.875-1.7812 0.95312-3.8555 0.20703-5.6992-0.52344-4.4766-2.1055-8.7656-4.6211-12.504-0.125 0.59375-0.21094 1.1953-0.26562 1.8008-0.09375 4.8164-0.59766 9.6172-1.5078 14.348-0.69141 2.4648-1.2461 4.9219-1.7734 7.3867 1.1562-0.52344 2.3945-1.0312 3.5547-1.6758zm-8.1797-329.47c-0.023438-2.9961 0.19531-5.9961 0.65625-8.957-0.94922 0.29688-1.9141 0.55078-2.8867 0.75-0.32422 1.5078-0.13281 3.0859-0.58594 4.5273-0.5625 1.7109-1.6133 3.2188-3.0234 4.3359-1.4609 1.1484-2.9961 2.2031-4.5938 3.1523-0.92188 0.55859-3.5 1.4805-3.9062 1.8711-0.25391 0.27734-0.54688 0.50781-0.875 0.6875 0.89453 2.5859 0.87109 5.4023-0.066406 7.9766-0.96094 2.8047-3.1445 5.0234-5.9375 6.0234-2.9297 1.207-6.0859 1.7695-9.2539 1.6406-0.85547-0.10547-1.6797-0.38281-2.4258-0.81641-2.2422 1.8633-4.9805 3.0391-7.875 3.3789-3.4336 0.98047-7.1211 0.37891-10.062-1.6445-0.29297-0.30469-0.55859-0.63281-0.79297-0.98438-0.66016 0.37891-1.3672 0.67578-2.1016 0.875-1.6445 0.37109-3.3594 0.27734-4.957-0.26172-0.4375 6.0078-0.35938 12.508 6.9609 12.934 7.7148 0.4375 17.789 1.8086 25.238-0.22656 17.984-4.9258 10.965-20.023 19.957-30.785l0.003906-0.003906c0.67969-0.94141 1.8438-1.4023 2.9844-1.1836 0.9375-0.63281 1.9727-1.1094 3.0625-1.4102 0.14062-0.054688 0.28516-0.085938 0.4375-0.10156 0.042969-0.62891 0.042969-1.1836 0.042969-1.7773zm-0.19141 15.523c-0.73047-1.3398-1.1055-2.8477-1.0859-4.375-0.26562 0.10938-0.54297 0.19531-0.82422 0.26172-0.55469 1.7891-0.875 3.6445-0.94922 5.5156 1.0703-0.54688 2.0234-1.0039 2.875-1.4023zm-8.3125 197.89c0.88672-0.42188 1.8906-0.54688 2.8555-0.35938-0.82422-3.3516-3.8047-6.2383-3.9727-9.8828-0.0625-1.0156-0.0625-2-0.0625-2.9531-1.1055 1.1602-2.3281 2.2031-3.6445 3.1211 0.050781 0.23828 0.082031 0.47656 0.097656 0.71875 0.089844 2.9062-0.12109 5.8086-0.625 8.668 0.46484 0.19531 0.88281 0.49609 1.2148 0.875 0.63672 0.039063 1.2734 0.027344 1.9062-0.035156 0.35938 0 0.75781-0.066407 1.1172-0.097657l-0.003906 0.003907c0.15234-0.035157 0.30469-0.054688 0.46094-0.066407 0.48438-0.10156 2.125-0.64844 0.67578 0.007813zm-0.81641-66.004c-0.62109-10.965 2.9531-21.207 2.2656-32.133-0.20312-2.7266-0.4375-5.4453-0.66016-8.2031l-0.003906-0.003906c-1.6641 0.9375-3.5352 1.4336-5.4453 1.4453-2.3945 0-4.7891 0.097656-7.1875 0.03125 0.13281 17.234-5.9414 33.906-5.4453 51.188 0.39453 12.664 6.4961 21.66 9.1562 33.477 1.75 7.75 8.6016-6.3047 10.273-11.293-7-9.8125-4.2656-21.828-2.9219-34.395 0.019531-0.019531-0.011719-0.050781-0.011719-0.11328zm2.1875-55.898v-4.3008c-3.2812 1.543-4.8125 3.418-7.7773 3.7109l-0.003906-0.003907c-2.0156 0.14062-4.0391-0.13672-5.9414-0.81641-0.53516 1.7656-1.4531 3.3906-2.6914 4.7578-0.30859 0.30859-0.64844 0.58203-1.0156 0.82031 0.73438 1.8672 1.1875 3.8359 1.3438 5.8398 1.4141 1.9375 15.75-0.71875 15.625-2.8516-0.16797-2.3633 0.45703-4.7617 0.45703-7.1602zm-1.4453-12.336v-2.9258c-3.9727 1.207-8.1367 1.6758-12.277 1.3789 0.69141 1.5938 1.0625 3.3125 1.0859 5.0508 0.98828 0.52734 2.0938 0.80078 3.2148 0.78906 2.1875-0.22656 4.0039-2.8867 5.875-3.8711 0.64453-0.33984 1.375-0.48438 2.1016-0.42578zm-0.035156-10.898c-0.03125-2.2656-0.0625-4.5312-0.0625-6.8281v-0.003906c-1.5469 1.1445-3.3125 1.9609-5.1875 2.3945-3.1367 0.53906-6.3086 0.83203-9.4922 0.875-0.09375 1.8008-0.13281 3.543-0.0625 5.1172l0.003907 0.003906c4.5391 0.84375 9.2266 0.44922 13.562-1.1484 0.39062-0.19531 0.80859-0.33594 1.2383-0.41406zm-0.82031 166.03c1.9805-4.4414 3.2539-9.1641 3.7773-14-2.75 0.90625-5.6719 1.1562-8.5352 0.72266 0.042968 3.6875-0.28906 7.3711-0.98438 10.992 0.69922 0.38672 1.2461 1.0078 1.5391 1.75 1.2812 0.10156 2.5273 0.39453 3.7773 0.46094 0.14453 0.011719 0.28516 0.035157 0.42578 0.074219zm0.58984-181.56c-0.035156-1.3438-0.066406-2.6602-0.097656-4.0039h0.003906c-2.4414 1.6133-5.0078 3.0195-7.6836 4.1992-2.2773 1.1797-4.707 2.0312-7.2227 2.5312 0.10156 0.55469 0.19531 1.1172 0.26172 1.707 2.9844 0.054687 5.9609-0.25781 8.8633-0.93359 2.0742-0.96484 4.043-2.1367 5.875-3.5zm-1.2461-59.312c0.035156-0.29297 0.066406-0.62109 0.097656-0.91797-2.4609-0.078125-4.9102-0.38672-7.3164-0.91797v0.49609c0 1.5078 0.26172 3.1484 0.22656 4.7266l0.003906-0.003907c0.73438 0.12891 1.418 0.47266 1.9688 0.98438 1.2227-0.66016 2.4062-1.3906 3.5469-2.1875 1.0625-0.76172 1.4062-0.95703 1.4727-2.1758zm0.26172 46.707c-0.65625-1.1445-1.6445-2.2969-2.5586-3.5742-4.1602 3.9727-9.6445 6.2617-15.395 6.4336 0.58984 1.5742 1.1445 3.1484 1.75 4.7266v-0.003907c0.074219 0.03125 0.14844 0.050782 0.22656 0.066407 2.3984 0.875 6.2031-1.75 8.3359-2.6914 2.7656-1.2852 5.3359-2.9531 7.6406-4.9531zm-4.3984 204.13c0.49609-0.98438 0.98437-1.9336 1.4805-2.8867h-0.003906c-0.49609-0.085938-1.0039-0.14062-1.5078-0.16797-0.875 0.046875-1.7461-0.042969-2.5938-0.25781-0.26172-0.10156-0.4375-0.26172-0.6875-0.36328-2.7266 9.0898-6.3359 22.254-1.7109 27.34 0.67188-1.8945 1.1992-3.8359 1.5781-5.8086 0.94922-5.3164 0.98438-13.027 3.4453-17.855zm-6.0391-37.086v-3.1484c0-0.69141-1.6094-1.8438-2.2305-3.4492-10.602 7.2539-11.555 25.305-29.344 20.414-4.8359-1.8906-8.5195-5.9141-9.9805-10.898-2.625-10.109-6.5977-19.891-8.3125-30.16-1.1797-7.0273-3.5-15.199-1.3789-22.254 2.5586-8.4336 0.94922-13.719 0.94922-21.992 0-10.566-2.4922-24.68 0.10156-36.168v-0.003906c0.011719-0.62891 0.16797-1.25 0.46094-1.8086 0.67578-2.4102 1.6836-4.7188 2.9883-6.8594-6.7305 4.0742-13.062 9.3906-19.465 13.887-5.418 3.7773-13.16 7.0586-17.363 12.211-1.8711 2.3281-2.5938 4.957-5.0547 6.6641-0.082031 0.054687-0.16797 0.097656-0.26172 0.125-0.34766 2.7891-0.96094 5.5391-1.8359 8.207-0.65625 1.9023-1.4141 4.2031-2.2656 6.6289 0.72266 0.875 1.4453 1.75 2.1367 2.5938 4.4961-3.8359 11.156-2.457 16.188-0.29297 5.3516 2.2969 7.5156 11.914 8.3711 16.871 0.55859 3.1484 0.75781 7.9766-1.5742 10.109 0.35938 35 11.75 70 24.715 102.27l-0.007813 0.003906c0.99609 1.3516 1.8633 2.7891 2.5938 4.3008 0.10156-2.1016 0.19531-4.2344 0.13281-6.3711-0.69531-3.832-1.9336-7.543-3.6758-11.023-1.0312-5.543 2.0117-11.039 7.2539-13.109 6.0312-2.043 12.516-2.3438 18.707-0.875 4.0273 0.66406 7.8047 2.375 10.965 4.957 2.8906-10.766 7.0859-21.535 5.3867-32.812-0.070313-0.21094-0.10156-0.43359-0.10156-0.65625-0.16016-0.98438-0.39453-1.9688-0.65625-2.9531-0.25391-0.92578-0.125-1.9141 0.35547-2.7422s1.2734-1.4297 2.2031-1.668zm-3.1211-194.05h0.003907c1.1289-0.77344 1.6328-2.1875 1.2461-3.5-2.1953 0.76562-4.4453 1.3555-6.7305 1.7695 0.10547 1.0391 0.070313 2.0859-0.09375 3.1172 0.66016-0.023438 1.3164-0.15625 1.9375-0.39453 1.2461-0.1875 2.4688-0.52344 3.6406-0.99219zm-1.5078 363.25c6.8594-4.8555 0-8.2383-4.4258-11.258-4.3047-2.9219-13.426-15.984-19.301-11.324 1.8086 0.55469 3.5781 1.1445 5.2852 1.8008l-0.003906 0.003906c4.3945 2.2383 7.9844 5.7891 10.266 10.16 2.2812 4.3711 3.1445 9.3438 2.4727 14.23 1.9688-1.0977 3.875-2.3047 5.707-3.6133zm-0.65625-92.363v-0.003907c0.87891-2.8398 1.9336-5.6211 3.1523-8.332-6.5273-3.1484-8.168-9.9805-7.1211-17.984h-0.003907c0.03125-0.066406 0.042969-0.13281 0.035157-0.20312-0.76562-0.34766-1.375-0.97266-1.707-1.75-2.7539-3.1211-6.543-5.1406-10.668-5.6875-0.26953 0.88672-0.86719 1.6406-1.6719 2.1016-1.1719 0.5-2.0625 1.5-2.4297 2.7227-0.36719 1.2227-0.17578 2.543 0.52734 3.6094 1.8008 2.7266 1.6094 6.0078 3.4141 8.75h-0.003906c2.9961 4.1953 5.2109 8.8984 6.5312 13.879 3.2773 1.1562 6.4805 2.5195 9.5859 4.0742 0.097656-0.42188 0.26562-0.78125 0.35938-1.1797zm-2.332-174.45c0.035156-0.875 0.035156-1.75 0-2.625-1.0039-0.58984-1.832-1.4414-2.3906-2.4648-0.875-1.6406-0.13281-3.3477-0.875-4.957-0.28125-0.59766-0.48828-1.2266-0.62109-1.8711-6.832-0.097656-13.582-1.4883-19.895-4.1055 0.75781 0.98438 1.8711 2.1367 1.8711 3.418s2.5938 2.5938 4.0391 3.7773c2.0352 1.6406 4.4609 3.1484 6.3047 4.9531v-0.003907c2.3242 2.2656 5.5938 3.2773 8.793 2.7266 1.0586-0.097656 2.0938 0.33594 2.7734 1.1523zm0.79297-106.94v-0.003907c-0.29297-0.43359-0.67578-0.80078-1.1172-1.082-0.035157 0-2.957 0.625-3.6445 0.72266l-1.1172 0.19531h0.003906c0.015625 0.10156 0.046875 0.20312 0.09375 0.29688 0.26953 0.41016 0.46094 0.86719 0.5625 1.3477 1.8008-0.23828 3.5586-0.73828 5.2188-1.4805zm-2.4648 86.863c1.3125 0 1.707-1.6758 1.4805-3.6133-0.26172-0.56641-0.39844-1.1797-0.39844-1.8047-0.55469-1.9023-1.6406-3.6094-3.0195-3.7422v0.003906c-2.5547-0.28906-5.0781-0.79688-7.5469-1.5156-3.957-1.5469-7.6016-3.793-10.766-6.625-7.2227-5.2852-14.738-8.207-21.039-14.609-1.0156 1.3125-2.0703 2.5938-3.0625 3.9062 6.1016 4.8398 11.523 10.48 16.113 16.773 7.2656 8.8477 16.59 11.227 28.238 11.227zm0.98438 28.652c0.13281-1.082 0.26172-2.1875 0.36328-3.2812-0.65234 0.66016-1.5312 1.0469-2.4609 1.0859-0.32812 0-0.58984-0.035156-0.91797-0.035156 0.98438 0.77344 1.9688 1.5781 3.0156 2.2461zm-0.58984 176.29c0.29297-0.6875 0.55469-1.4102 0.82422-2.1289-5.5508-2.5938-10.57-6.2695-17.172-4.6953-0.35938 0.10156-9.3477 1.543-9.4141 1.6758-0.18359 0.52734-0.46484 1.0195-0.82422 1.4453-0.55859 4.9219-4.0977 11.453-4.4961 15.062-0.21875 3.5938-1.3867 7.0664-3.3828 10.062 0.71875 0.64062 1.3203 1.4102 1.7773 2.2617 0.76172 2.4609 2.0234 4.7422 3.7031 6.6992 0.875 0.72266 6.2031 2.3633 7.2227 1.0859 0.19531-0.23047 0.4375-0.46484 0.62109-0.72656v-0.003906c-1.9375-0.96875-3.4531-2.6133-4.2656-4.6211-1.457-4.5039-1.3281-9.3672 0.36328-13.789 1.1758-2.4648 3.543-3.7773 5.1172-5.9766l0.003907 0.003906c1.082-1.4688 2.457-2.6992 4.0352-3.6094 4.8242-2.2969 10.172-3.2578 15.492-2.793 0.13281 0 0.26563 0.066407 0.39453 0.066407zm-1.9375-162.05 1.2812-6.6641v0.003906c-0.57422-0.03125-1.1328-0.1875-1.6406-0.46094-1.5977-0.78125-3.0625-1.8164-4.3359-3.0625-1.082-1.082-2.7578-0.98438-3.9727-1.7734v0.003906c-2.5625-1.6133-4.8164-3.668-6.6562-6.0703-2.2969-2.9219-4.7305-5.7812-6.8945-8.7969-0.55859-0.82422-1.1797-2.0703-1.8672-3.3828h-0.003906c-1.4961-1.5547-2.8477-3.2461-4.0352-5.0508-0.80859-0.46875-1.3633-1.2695-1.5117-2.1875-1.0586 1.7734-1.8438 3.6992-2.332 5.707 1.9375 8.832 3.4141 15.922 10.566 22.52 5.9023 5.3789 13.438 8.6328 21.402 9.2344zm0.47266-59.816c-0.4375-3.7422 0.29688-7.7422-0.03125-11.52-0.21484-2.1523-0.60938-4.2812-1.1797-6.3672-0.69141 1.0508-1.3789 2.1016-2.0039 3.2148-2.125 3.2812-3.2227 7.125-3.1523 11.031 0.027344 0.55078-0.074218 1.1016-0.29687 1.6055 2.1797 0.8125 4.4062 1.4883 6.6641 2.0352zm-2.5898 74.707c0.16016-2.4648 0.4375-4.9219 0.81641-7.3867-4.3359-0.40625-8.6016-1.3789-12.688-2.8906-4.4844-2.0352-8.543-4.9102-11.949-8.4648-2.8789-2.3633-5.2852-5.2461-7.0898-8.5 0.35938 5.8398 1.082 11.586 1.75 16.312 0.79688 0.10156 1.5352 0.47266 2.0977 1.0508 3.25 4.1562 7.9766 6.8984 13.199 7.6562 4.5938 0.097656 9.125 1.8672 13.684 2.1875 0.066406 0 0.10156 0.035156 0.16797 0.035156zm-0.32812 13.75c-0.070312-2.1016-0.070312-4.1992 0-6.2344-6.3633-0.49219-12.68-1.4453-18.906-2.8555-3.2852-1-6.293-2.7422-8.8008-5.0898-0.085938 2.5156-0.36719 5.0195-0.84766 7.4883 4.2266 2.2422 8.6016 4.1953 13.098 5.8398 4.8359 1.875 10.145 2.1797 15.164 0.875 0.089844-0.023438 0.1875-0.03125 0.28125-0.023438zm-2.7695-148.29c-0.007812-0.09375-0.03125-0.17969-0.070312-0.26172-3.0625 0.26172-6.1992 0.39453-9.1875 0.39453v-0.003906c0.007812 0.15625-0.003907 0.30859-0.035157 0.46094-0.20312 0.96484-0.46484 1.918-0.78516 2.8516 0.65625 1.75 3.8398 1.25 5.5469 0.72266 1.1875-0.30859 2.3008-0.84375 3.2852-1.5742-0.011718-1.0117 0.44922-1.9688 1.2461-2.5898zm-0.82422 35.773c0.19141-0.78516 0.52734-1.5273 0.98438-2.1875-2.8242 0.55078-5.3555 2.1016-7.1211 4.375-3.5625 3.3008-5.7227 7.8398-6.0391 12.688 1.1172 0.72266 2.2305 1.4453 3.3125 2.3008 0.53125 0.39453 1.0547 0.71875 1.543 1.082h0.003906c0.35547-4.4883 1.7461-8.832 4.0664-12.688 1.3359-1.6992 2.4336-3.5703 3.25-5.5703zm4.5625 253.39c-4.4023 0.035156-8.9648 0.4375-11.227 4.7305h0.003906c-0.65625 0.92578-1.4922 1.707-2.4648 2.2969-1.7734 1.3438-1.5391 3.5781-1.4805 5.4453 0.10156 3.1211 0.69141 4.2695 3.1562 4.9883 4.6875-5.3203 8.7188-11.184 12.016-17.461zm-5.9258 77.102c0.59766-4.2773-0.1875-8.6367-2.2344-12.438-3.5742-5.3516-11.844-4.5625-17.324-6.2383h-0.003906c-3.4688-1.2188-7.207-1.4336-10.797-0.625-3.5859 0.80469-6.875 2.6016-9.4883 5.1875h4.4961c4.7852 0.51562 9.4766 1.6758 13.949 3.4453 3.9062 1.2148 9.6523 0.32812 13.098 2.5938 3.2031 2.207 6.0078 4.9375 8.3047 8.0742zm-1.707-374.47c-0.28906-1.3555-0.77344-2.6602-1.4414-3.875-0.39453-0.55859-3.3164-0.29687-3.8438 0.097657h-0.003906c-0.13672 0.10938-0.28516 0.20703-0.4375 0.29688-0.035156 1.0508-0.066406 2.0352-0.066406 2.793-0.019531 0.38672-0.074219 0.76953-0.16406 1.1445 2.2344-0.19531 4.3008-0.37109 5.9453-0.45703zm-2.9883 381.96v-0.003906c0.046874-0.082032 0.10156-0.16016 0.16406-0.23047-0.27734-0.26172-0.51953-0.55469-0.72266-0.875-5.25-8.2031-22.484-14-32.559-14-1.6094 0-3.25 0.13281-4.7891 0.13281l-0.003907-0.003907c0.94141 0.82812 1.4648 2.0234 1.4297 3.2734-0.03125 1.25-0.61328 2.418-1.5938 3.1953-5.875 4.4922-12.801 7.2852-18.707 11.68-4.8906 3.6445-6.5625 9.5859-10.109 14.051 5.7734 2.2969 12.438-8.5352 16.016-12.688v0.003906c5.5078-6.1328 12.332-10.945 19.957-14.082 4.332-2.1875 8.1719 4.375 3.8047 6.5312l0.003906 0.003906c-6.3594 2.5977-12.141 6.4336-17.004 11.285 0.37891 0.14062 0.72266 0.35156 1.0156 0.625 1.8086-1.0859 3.7773-1.9375 5.582-2.8203 7.957-3.25 15.43-7.5703 22.223-12.836 3.6758-3.1836 9.0273 2.1367 5.3516 5.3203h-0.003906c-4.7812 4.0234-10.055 7.4297-15.688 10.141-5.6875 2.8555-13.066 5.0547-17.363 10.012 0.03125 0.10156 0.066406 0.16797 0.10156 0.26172 1.2773 4.0391 27.637-9.1875 31.473-10.141 7.3359-1.8828 7.8047-2.6484 11.41-8.8398zm-4.332-106.15c1.2383-0.22266 2.4883-0.35156 3.7422-0.39453-3.8711-9.8125-13.719-21.039-8.6016-29.539-3.6445 0.78906-6.3008 2.7578-3.6445 7.4844 4.168 7.4805 2.6953 15.312 2.4336 23.531 2.0859-0.45703 4.2539-0.71875 6.0586-1.082zm0-235.96c0.28906-0.32422 0.59766-0.62891 0.91797-0.92188-3.8594 0.12109-7.7109-0.35547-11.422-1.4102-2.625 3.1836-5.3164 6.4023-8.0117 9.6836l0.003907-0.003906c2.8672 2.9141 6.1289 5.418 9.6836 7.4375 1.5352-5.6406 4.582-10.754 8.8164-14.785zm-2.3672 301.84h0.003906c-1.0039-2.0781-1.5117-4.3633-1.4805-6.668-0.03125-1.8672-0.16016-3.8711-0.09375-5.8086v-0.003906c-1.8828 0.039062-3.7617-0.125-5.6133-0.48828-6.668-1.3125-8.5352-6.7305-11.953-11.375h0.003906c0.21875 1.1758 0.18359 2.3828-0.097656 3.543-0.14453 0.41406-0.30859 0.81641-0.49609 1.2109 1.6094 1.3828 3.3516 2.4648 3.3516 5.4531 0.007812 3.918-0.90625 7.7852-2.6602 11.293-1.2969 3.082-4.1211 5.25-7.4375 5.707-0.55469 1.8438-1.0078 3.7188-1.3477 5.6133 6.5039-2.9883 13.766-3.9141 20.809-2.6602 1.5586-2.7188 4.043-4.7852 7-5.8164zm-3.5-341.03h0.003906c-0.11719-0.44141-0.18359-0.89062-0.19922-1.3438 0 0 0.066406-2.0039 0.035156-3.6797-1.7539 0.57031-3.4766 1.2383-5.1523 2.0039-0.13281 0.58984-0.26172 1.2109-0.36328 1.8359 1.8008 0.76953 3.7383 1.1719 5.6953 1.1836zm-0.32812 7.4844c0-0.066407 0.035156-0.10156 0.066406-0.16797-1.6523-0.13672-3.293-0.36719-4.9219-0.68359 0.11328 0.52734 0.19141 1.0625 0.23438 1.6055 0.003906 0.29688-0.039062 0.58984-0.13281 0.875 0.94922 0.65625 2.625 1.4141 2.9844 1.2148 0.625-0.32031 1.1641-0.78125 1.5742-1.3477 0.039063-0.50391 0.10547-1.0039 0.20703-1.4961zm-12.211 1.7734h0.003906c0.03125-0.16016 0.097657-0.3125 0.19922-0.4375-0.082031-0.19141-0.14062-0.38672-0.16406-0.59375-0.45703-2.5391-0.76172-5.1016-0.92188-7.6758l0.097656-0.78906c-1.9531 0.61328-3.9688 1.0078-6.0078 1.1836-0.082032 0.24219-0.125 0.49609-0.125 0.75 0 0.78906 0 1.6094 0.03125 2.3984 0.03125 0.78906 0.097656 3.6094 0.91797 4.0391 1.3281 0.60156 2.7695 0.92578 4.2305 0.94922 0.58594 0.023437 1.1719 0.082031 1.75 0.17578zm-0.29297-17.168 0.003906-6.3359c-3.1367 1.4219-6.582 2.0078-10.012 1.707-0.058594 1.3359-0.046875 2.6719 0.03125 4.0078 0.10156 1.4727-0.16016 1.6406 1.2148 1.7734v-0.003906c2.957-0.058594 5.8984-0.44531 8.7734-1.1484zm-0.13281 24.75c-1.2461-0.16016-2.5273-0.32812-3.8125-0.52344-1.5391 9.8125-7.6133 15.492-12.207 24.715l0.007812-0.003906c-6.3125 11.469-13.664 22.336-21.965 32.461-4.5273 5.9414-12.043 18.641-18.812 22.219-10.438 5.5781-26.359 21.301-25.836 34.957l0.003906 0.003906c1.332-1.207 2.5078-2.5742 3.5-4.0703 3.5781-5.6133 7.7812-14.477 14.508-16.707 4.6289-1.5742 6.5977 5.6875 2.0039 7.2539-3.2148 1.0859-5.875 6.793-7.582 9.4844-1.7969 2.7266-3.7383 5.3555-5.8164 7.875-1.8008 2.2969-7.1523 5.2852-6.8203 8.5352 0.58984 5.5117 3.5 5.9727 7 5.6875 1.4336-1.3633 2.582-3 3.3789-4.8125 0.066406-0.33984 0.17969-0.66797 0.32812-0.98047-0.21484-1.0508-0.36719-2.1133-0.46094-3.1836 0-3.2852 7.5508-3.2852 7.5508 0 0 13.125 10.73-8.1758 11.812-11.422v-0.003907c1.1758-4.6523 1.8789-9.418 2.1016-14.211 1.8125-12.176 10.539-19.363 16.25-29.637h-0.003907c10.656-18.27 22.938-35.539 36.699-51.602-2.1797-3.2578-2.1133-10.918-1.8164-16.039zm-2.5625 287.07c0.72656-11.586 8.3125-23.766-0.52344-34.527v-0.003907c-0.21484-0.26172-0.39063-0.55859-0.51953-0.875-0.17578-0.26172-0.33203-0.53516-0.46484-0.82031-10.996-27.242-20.562-55.469-23.957-84.715-0.98438 2-1.9688 3.8047-2.7578 5.1836-4.4961 7.6484-2.6602 21.875-2.1016 32.004h0.003906c0.24219 0.20312 0.47266 0.42188 0.6875 0.65625 7.8438 9.2891 9.4531 18.312 13.562 29.574 3.7422 10.34 11.621 20.051 11.621 31.605 0 4.5312 1.082 9.0898 1.082 13.688-0.19531 1.4453-0.39453 2.8555-0.6875 4.3008-0.46094 4.5859 0.88672 5.8984 4.0664 3.9258zm-3.9023-302.95h-0.066406 0.003906c-0.066406 0.125-0.14062 0.24609-0.22656 0.35937 0.13672-0.16406 0.23438-0.26562 0.30078-0.35937zm-1.6719 329.18h0.003906c0.37891-1.1328 0.23047-2.3711-0.39844-3.3828-7.0195 3.707-15.473 3.418-22.223-0.75781-2.4336 1.2969-5.1992 1.8359-7.9453 1.5469-0.03125 0.32812-0.0625 0.69141-0.0625 0.98438 0 2.9219 3.0625 1.5742 5.4805 1.5742h0.003906c4.6953 0.11328 9.293 1.3398 13.422 3.5781 2.2656 1.0273 4.6055 1.8711 7 2.5273 0.60547 0 1.2031 0.13672 1.75 0.39453 0.0625 0 0.16016 0.03125 0.22656 0.03125 1.9297 0.32812 2.5508-5.6797 2.7539-6.4961zm-2.0664-247.39c3.0977-2.7344 6.6875-4.8633 10.574-6.2695-3.3047-5.4141-7.5547-10.195-12.543-14.113-3.707 5.0195-7.2852 10.141-10.402 15.312-4.8906 8.043-10.375 15.625-15.266 23.625-0.32422 0.52344-0.55469 1.0156-0.81641 1.5391 4.6289-3.6406 9.9805-6.3359 14.738-9.8438 4.8672-3 9.457-6.4297 13.715-10.25zm-16.625 236.03c0.58984 2.625 19.332 4.0391 14.77-3.6445-2.1602-3.6797-4.5078-7.2539-7.0273-10.699-3.3555-4.1055-6.1289-8.6602-8.2383-13.523-3.3477-8.8281-3.2812-18.641-6.793-27.562-0.24609-0.58203-0.32422-1.2188-0.22656-1.8438-3.332-8.3477-5.3594-17.156-6.0078-26.121 0.19531-11.656-0.39453-23.34 0.16016-34.957h0.003906c-0.042969-6.3555 1.2773-12.645 3.8711-18.449 0.039062-0.066407 8.1094-17.855 5.8438-19.25-4.3438-2.6875-9.0625-4.7109-14-6.0078-3.082 3.6523-6.4883 7.0195-10.176 10.062-2.6914 2.3633-5.3164 5.7461-8.2383 6.0664-2.3633 8.8633 9.1562 28.918 9.9492 37.027 0.61719 13.402 2.6406 26.703 6.0352 39.684 2.5742 8.9922 4.2031 18.23 4.8633 27.562 0.65234 7.6797 1.4375 15.312 1.6406 22.977 0-0.32812-2.2344 24.418 6.1992 19.398 0.37109-3.75 6.3789-4.9844 7.3711-0.71875zm12.465-20.969c0.24219-3.8281 0.21875-7.6641-0.070313-11.488-2.0312-8.1719 0-9.7461-4.5586-17.691-1.875-3.2617-3.4688-6.6719-4.7734-10.195-2.332-8.1445-5.1367-16.145-8.3984-23.961 1.4062 10 3.543 19.887 6.3984 29.574 0.085938 0.32031 0.13281 0.65234 0.13281 0.98438 2.7578 9.6523 3.0625 21.105 8.4648 29.18 0.70312 1 1.6875 2.2461 2.8047 3.5977zm-3.2773 45.719c0.0625-0.32812 0.13281-0.58984 0.16016-0.875-0.875-0.29297-1.8359-0.625-2.793-0.98438h0.003906c-3.3203-1.9219-6.9375-3.2734-10.703-4.0039-1.6719 0-3.5 0.19531-5.2188 0.19531v0.003907c-0.10938 0.16406-0.24219 0.30859-0.39453 0.4375-3.5078 2.8633-7.2383 5.4414-11.156 7.7109-1.0508 0.69141 5.9062 0.58984 7 0.58984h7.75c3.6719 0 9.582-0.62109 12.828 1.7109 2.9609 2.0742 2.2227-3.2539 2.5234-4.7852zm-1.0859 22.75c0.20703-0.14844 0.42969-0.28125 0.65625-0.39453-1.1133-0.33203-2.1055-0.98438-2.8555-1.8711-3.5156 1.8242-6.9141 3.8711-10.172 6.125-0.91797 0.72266-1.8086 1.4102-2.7266 2.1016-1.6758 2.0352-4.6602 3.0625-5.6133 5.4453-1.1758 2.1133-2.8242 3.9336-4.8125 5.3164-2.4141 2.0625-5.1836 3.6758-8.1719 4.7578-2.0156 2.5156-3.0547 5.6758-2.9219 8.8945 0.49609 4.7617 8.1406-7.4141 7.9453-7.1211 2.0625-3.4648 4.5312-6.668 7.3477-9.5508 6.0273-5.7969 14.723-8.625 21.32-13.707zm-9.625-211.75c0.26172 0.16016 0.52344 0.29297 0.82422 0.4375-0.32031-2.5352-0.91797-5.0312-1.7773-7.4375-0.78906-2.1875-1.9688-5.0586-4.375-5.7461-1.8086-0.49609-4.8594-1.5078-6.4297 0.13281-0.15234 0.14844-0.31641 0.28125-0.49609 0.39453 0.78125 1.9141 0.95312 4.0195 0.49609 6.0352 2.5234 1.0195 4.7539 2.5586 7.1836 3.8047 0.58984 0.29688 1.1875 0.625 1.7734 0.92188 0.96484 0.44531 1.918 0.90625 2.8047 1.4297zm-6.168 208.72c3.4141-2.6914 9.2852-3.6445 11.09-7.8438-2.2109-1-4.6367-1.4219-7.0547-1.2188-5.0547 0-10.305 0.4375-15.312 0-2.4102-0.21484-4.7773-0.77734-7.0273-1.6719-7.7148 5.5781-15.23 11.52-23.336 16.477-5.1172 3.1484-10.062 7.0234-15.312 9.8477v0.003906c-3.5469 1.3984-6.1406 4.5-6.8906 8.2344-0.46094 1.3789 0.19531 2.2969 2 2.7578 6.5312-4.9219 13.918-9.8477 20.023-15.266 4.2656-3.8047 13.562-4.7266 16.902-9.0898 2.9258-3.8047 9.4883-0.066407 6.5352 3.8125-3.1836 4.1328-8.4062 5.3828-12.867 7.9062v-0.003907c-5.543 3.0039-10.816 6.4883-15.75 10.41 1.3516 0.30469 2.7539 0.28906 4.0977-0.035157 2.2305-0.75391 4.332-1.7734 6.5625-2.4922 4.7461-0.88672 9.3945-2.2266 13.883-4.0039 0.03125 0 0.066407 0 0.066407-0.03125 2.5117-2.9102 5.2344-5.6289 8.1406-8.1406 4.2383-3.8047 9.7227-6.0703 14.254-9.6797zm-14.898-212.19c2.1875-2.9531 1.8789-7.0625-0.72266-9.6523-2.0312 5.7266-6.3789 10.332-11.98 12.688-2.2969 0.71875-4.7969-0.066406-6.2695-1.9688-0.31641 0.39453-0.66797 0.75781-1.0508 1.0859 0.70703 0.88281 0.98438 2.0391 0.75781 3.1484-0.20312 0.98438 3.0625 5.1523 3.6758 5.9727 0.72266 0.95312 1.5078 0.58984 2.2969 2.7266 2-2.5586 4.625-4.0391 6.4023-6.4023 1.918-2.5938 5.2109-4.9727 6.8906-7.5977z"/>
  <path d="m381.62 89.301c0.95312 4.7617-0.95313 6.9258-3.3828 10.57-2.2305 3.3164-6.125 2.9844-9.4531 3.9062v0.003906c-0.87109 0.62109-1.9727 0.83594-3.0195 0.58594-7.1211-1.6055-20.023-7.4375-20.023-16.508 0-12.539 10.539-13.355 20.484-13.355v-0.003906c3.7969-0.33594 7.582 0.74219 10.637 3.0195 2.5703 3.4531 4.2109 7.5117 4.7578 11.781zm-15.461 7.3867c3.6758-1.2461 9.2539-1.1797 7.875-6.793-1.1445-4.8125-2.625-7.8438-7.8086-7.8438-4.0742 0-15.723-0.82422-12.344 6.7656 1.7734 4.0312 7.875 6.625 12.277 7.8711z"/>
  <path d="m346.89 107.09c0.51562 2-0.66797 4.0469-2.6602 4.5938-1.9883 0.54688-4.0508-0.60547-4.6289-2.5898-0.27734-1.0195-0.46484-2.0625-0.55469-3.1172l-0.035156 0.035157c-0.37109 0.82422-0.53906 1.7227-0.49219 2.625 0 2.0859-1.6914 3.7734-3.7734 3.7734-2.0859 0-3.7773-1.6875-3.7773-3.7734-0.03125-1.2617 0.11328-2.5234 0.4375-3.7422 0.36328-1.2148 1.1523-2.2969 1.5078-3.5 0.625-1.8047 1.8867-3.3203 3.5469-4.2656 0.10156-0.16797 0.13281-0.32812 0.23047-0.49609v0.003907c0.87109-1.4727 2.6133-2.1836 4.2656-1.75 0.089844 0.015625 0.17578 0.035156 0.26172 0.0625 1.2969 0.33203 2.3125 1.3359 2.6602 2.625 0.10938 0.61719 0.12109 1.25 0.035156 1.8711l0.26172 0.32813c0.56641 0.61328 1.082 1.2695 1.543 1.9688 0.64062 1.7188 1.0352 3.5195 1.1719 5.3477z"/>
  <path d="m334.94 85.562c0.72656 7.8086-6.7578 11.812-12.008 16.188-0.99219 0.78906-2.2891 1.0781-3.5234 0.78125-1.2305-0.29297-2.2578-1.1406-2.7812-2.293-1.0234-0.67188-1.9141-1.5273-2.625-2.5234-2.3008-3.0898-0.26172-6.0078-0.26172-9.3906l-0.003907 0.003906c-0.41797-3.2695 0.26172-6.582 1.9336-9.4219 0.46484-0.58984 0.72656-2.3672 1.6406-3.2812 0.94141-0.82812 2.1602-1.2734 3.4141-1.2461 3.0742 0.43359 6.0234 1.4922 8.6719 3.1172 3.0664 1.6094 5.1367 4.6289 5.543 8.0664zm-7.8438 2.5586c2.4922-2.625-2.2305-4.3359-3.7773-4.957-0.13281-0.03125-0.65234-0.22656-1.1758-0.4375-0.53125 1.4648-0.82812 3.0039-0.875 4.5586-0.039062 1.4727-0.21484 2.9375-0.52344 4.375-0.10156 0.75781-0.23047 1.4805-0.36328 2.1875h0.26172c2.2812-1.7578 4.4336-3.6719 6.4531-5.7266z"/>
  <use x="70" y="625.625" xlink:href="#u"/>
  <use x="86.054688" y="625.625" xlink:href="#d"/>
  <use x="96.839844" y="625.625" xlink:href="#a"/>
  <use x="111.679687" y="625.625" xlink:href="#g"/>
  <use x="126.4375" y="625.625" xlink:href="#b"/>
  <use x="136.894531" y="625.625" xlink:href="#a"/>
  <use x="151.730469" y="625.625" xlink:href="#i"/>
  <use x="175.007812" y="625.625" xlink:href="#c"/>
  <use x="190.664062" y="625.625" xlink:href="#f"/>
  <use x="212.539062" y="625.625" xlink:href="#h"/>
  <use x="230.847656" y="625.625" xlink:href="#a"/>
  <use x="245.683594" y="625.625" xlink:href="#f"/>
  <use x="267.558594" y="625.625" xlink:href="#t"/>
  <use x="284.402344" y="625.625" xlink:href="#g"/>
  <use x="299.164062" y="625.625" xlink:href="#c"/>
  <use x="314.824219" y="625.625" xlink:href="#c"/>
  <use x="330.480469" y="625.625" xlink:href="#s"/>
  <use x="337.980469" y="625.625" xlink:href="#b"/>
  <use x="70" y="647.5" xlink:href="#r"/>
  <use x="79.515625" y="647.5" xlink:href="#d"/>
  <use x="90.304688" y="647.5" xlink:href="#e"/>
  <use x="105.332031" y="647.5" xlink:href="#q"/>
  <use x="135.742188" y="647.5" xlink:href="#b"/>
  <use x="146.199219" y="647.5" xlink:href="#p"/>
  <use x="161.773438" y="647.5" xlink:href="#a"/>
  <use x="184.222656" y="647.5" xlink:href="#o"/>
  <use x="202.53125" y="647.5" xlink:href="#e"/>
  <use x="217.558594" y="647.5" xlink:href="#n"/>
  <use x="233.132812" y="647.5" xlink:href="#m"/>
  <use x="256.320312" y="647.5" xlink:href="#l"/>
  <use x="272.355469" y="647.5" xlink:href="#d"/>
  <use x="283.140625" y="647.5" xlink:href="#e"/>
  <use x="298.171875" y="647.5" xlink:href="#k"/>
  <use x="305.667969" y="647.5" xlink:href="#a"/>
  <use x="320.503906" y="647.5" xlink:href="#j"/>
  <use x="333.472656" y="647.5" xlink:href="#b"/>
 </g>
</svg>
